G04*
G04 #@! TF.GenerationSoftware,Altium Limited,Altium Designer,18.1.9 (240)*
G04*
G04 Layer_Physical_Order=2*
G04 Layer_Color=16711680*
%FSLAX25Y25*%
%MOIN*%
G70*
G01*
G75*
%ADD13C,0.01000*%
%ADD26R,0.07500X0.07500*%
%ADD27C,0.07500*%
%ADD31C,0.10000*%
%ADD50C,0.02500*%
%ADD52R,0.06500X0.06500*%
%ADD53C,0.06500*%
%ADD54R,0.10000X0.10000*%
%ADD55R,0.06500X0.06500*%
%ADD56C,0.09000*%
%ADD57C,0.07000*%
%ADD58R,0.07000X0.07000*%
%ADD59C,0.18740*%
%ADD60C,0.05000*%
%ADD61C,0.15748*%
%ADD62C,0.18000*%
D13*
X211000Y66500D02*
X211571Y67071D01*
X326750Y18250D02*
X398000D01*
X70500Y317500D02*
X106864D01*
X65000Y312000D02*
X70500Y317500D01*
X106864D02*
X109500Y320136D01*
X304543Y359500D02*
X398000D01*
X226000Y363500D02*
X385500D01*
X398000Y359500D02*
X399500Y358000D01*
X225500Y363000D02*
X226000Y363500D01*
X422421Y150110D02*
X433890D01*
X434000Y150000D01*
X444142Y84000D02*
X447642Y80500D01*
X406500Y84000D02*
X444142D01*
X323000Y7000D02*
X540000D01*
X323000Y5500D02*
Y7000D01*
X242414Y13000D02*
X272000D01*
X240164Y10750D02*
X242414Y13000D01*
X12500Y13553D02*
X18132Y7920D01*
X9500Y13553D02*
X12500D01*
X472413Y146055D02*
X474500Y148142D01*
X211571Y67071D02*
X440135D01*
X485450Y153550D02*
X485899Y154000D01*
X29947Y43000D02*
X57947Y15000D01*
X20000Y43000D02*
X29947D01*
X20000Y41163D02*
Y43000D01*
X39000Y12000D02*
X181490D01*
X182490Y13000D01*
X354000Y296500D02*
X415500D01*
X156250Y272250D02*
X374000D01*
X424000Y316500D02*
X427500Y313000D01*
X386550Y316500D02*
X424000D01*
X384550Y314500D02*
X386550Y316500D01*
X345559Y314500D02*
X384550D01*
X566181Y171327D02*
X569008Y168500D01*
X453550Y171327D02*
X566181D01*
X452724Y170500D02*
X453550Y171327D01*
X346000Y170500D02*
X452724D01*
X343500Y173000D02*
X346000Y170500D01*
X466157Y146055D02*
X472413D01*
X462657Y142555D02*
X466157Y146055D01*
X415500Y296500D02*
X416500Y297500D01*
X352661Y309161D02*
X353000Y309500D01*
X311161Y309161D02*
X352661D01*
X329500Y319500D02*
X352000D01*
X326500Y316500D02*
X329500Y319500D01*
X326500Y315000D02*
Y316500D01*
X210500Y67000D02*
X211000Y66500D01*
X433000Y150000D02*
X434000D01*
X278500Y105000D02*
X279500Y106000D01*
X396000Y87000D02*
Y87500D01*
X393500Y90000D02*
X396000Y87500D01*
X216500Y90000D02*
X393500D01*
X145000Y109000D02*
X147000Y111000D01*
X309000D02*
X316500Y103500D01*
X147000Y111000D02*
X309000D01*
X165000Y105000D02*
X278500D01*
X155000Y131500D02*
X268500D01*
X37500Y242500D02*
X380500D01*
X392000Y290000D02*
X393000Y289000D01*
X534500D01*
X184740Y10750D02*
X240164D01*
X182490Y13000D02*
X184740Y10750D01*
X437000Y191000D02*
X437500Y190500D01*
X193000Y191000D02*
X437000D01*
X425950Y157000D02*
X433500D01*
X424450Y155500D02*
X425950Y157000D01*
X421550Y155500D02*
X424450D01*
X420050Y157000D02*
X421550Y155500D01*
X150500Y157000D02*
X420050D01*
X375550Y161500D02*
X378050Y159000D01*
X98950Y161500D02*
X375550D01*
X96450Y159000D02*
X98950Y161500D01*
X372500Y152500D02*
X373500Y153500D01*
X87000Y152500D02*
X372500D01*
X85500Y154000D02*
X87000Y152500D01*
X382450Y160500D02*
X421500D01*
X380950Y159000D02*
X382450Y160500D01*
X378050Y159000D02*
X380950D01*
X93550D02*
X96450D01*
X92050Y160500D02*
X93550Y159000D01*
X26000Y160500D02*
X92050D01*
X421500D02*
X423000Y159000D01*
X25000Y159500D02*
X26000Y160500D01*
X276000Y138500D02*
X276500Y139000D01*
X135000Y138500D02*
X276000D01*
X312000Y98000D02*
X315500Y94500D01*
X124500Y98000D02*
X312000D01*
X109500Y320136D02*
Y322000D01*
X115000D01*
X311000Y169000D02*
X312000Y168000D01*
X109500Y169000D02*
X311000D01*
X479500Y343500D02*
X480000Y343000D01*
X479000Y344000D02*
X479500Y343500D01*
X45500Y344000D02*
X479000D01*
X19917Y238500D02*
X421500D01*
X11000Y247417D02*
X19917Y238500D01*
X11000Y247417D02*
Y308000D01*
X25000Y322000D01*
X95000Y387500D02*
X99500Y392000D01*
X317000D01*
X280500Y314114D02*
X282114Y312500D01*
X280500Y314114D02*
Y335121D01*
X281500Y336121D01*
Y338000D01*
Y369500D02*
X282000Y370000D01*
X314000D01*
X154000Y274500D02*
Y279000D01*
Y274500D02*
X156250Y272250D01*
X164500Y280000D02*
X168000Y276500D01*
X388500D01*
X185000Y312000D02*
X192000Y305000D01*
X329500D01*
X330000Y304500D01*
X327000Y204500D02*
X327500Y204000D01*
X268000Y204500D02*
X327000D01*
X105000Y306000D02*
Y312000D01*
Y306000D02*
X109500Y301500D01*
X221500D01*
X385500Y363500D02*
X391000Y369000D01*
Y377000D01*
X125000Y65500D02*
Y72000D01*
Y65500D02*
X128500Y62000D01*
X257500D01*
X261500Y383500D02*
X266000Y388000D01*
X397500D01*
X401000Y384500D01*
Y377000D02*
Y384500D01*
X359500Y213500D02*
X361500Y211500D01*
X405000D01*
X290740Y326000D02*
X418260D01*
X419000Y326740D01*
X338000Y181000D02*
X339595Y179405D01*
X569008D01*
X95000Y164500D02*
X379500D01*
X6500Y335500D02*
X74500D01*
X13500Y6500D02*
X15500Y4500D01*
X308500D01*
X312500Y8500D01*
Y22500D01*
X85000Y322000D02*
Y327500D01*
X83000Y329500D02*
X85000Y327500D01*
X10000Y329500D02*
X83000D01*
X18132Y7920D02*
X302420D01*
X302500Y8000D01*
Y22500D01*
X175000Y322000D02*
Y334000D01*
X179500Y338500D01*
X234500D01*
X231500Y82000D02*
X233475Y80025D01*
X205000Y82000D02*
X231500D01*
X205000D02*
X206975Y80025D01*
X175000Y82000D02*
Y87500D01*
X177500Y90000D01*
X216500D01*
X216000Y51000D02*
X220000Y55000D01*
X201500Y51000D02*
X216000D01*
X55000Y295500D02*
Y312000D01*
X53000Y293500D02*
X55000Y295500D01*
X18000Y293500D02*
X53000D01*
X57947Y15000D02*
X186500D01*
X234025Y17475D02*
X236500Y15000D01*
D26*
X569008Y190311D02*
D03*
D27*
Y146689D02*
D03*
X580189Y152142D02*
D03*
X569008Y157595D02*
D03*
X580189Y163047D02*
D03*
X569008Y168500D02*
D03*
X580189Y173953D02*
D03*
X569008Y179405D02*
D03*
X580189Y184858D02*
D03*
D31*
X531000Y28283D02*
D03*
X470000Y28000D02*
D03*
D50*
X463000Y130000D02*
X498000D01*
X483000Y94500D02*
X569000D01*
X398250Y39250D02*
X408000Y29500D01*
X311750Y39250D02*
X398250D01*
X311500Y39500D02*
X311750Y39250D01*
X368000Y43500D02*
X414500D01*
X334500Y111000D02*
X336500Y109000D01*
X334500Y111000D02*
Y113500D01*
X248000Y40000D02*
X265500D01*
X75000Y121000D02*
X247000D01*
X336000Y109000D02*
X336500D01*
X357000Y24000D02*
Y29500D01*
X273500D02*
X357000D01*
X271500Y27500D02*
X273500Y29500D01*
X357000Y24000D02*
X358000Y23000D01*
X468500Y188500D02*
X493500D01*
X466000Y186000D02*
X468500Y188500D01*
X398000Y18250D02*
X399250Y17000D01*
X439000D01*
X398000Y18250D02*
Y23000D01*
X266000Y40000D02*
X290740D01*
X517000Y50500D02*
X531000Y36500D01*
X457500Y50500D02*
X517000D01*
X475169Y164169D02*
X475500D01*
X472500Y115000D02*
X475000Y117500D01*
X420000Y115000D02*
X472500D01*
X474500Y163500D02*
X475169Y164169D01*
X474500Y148142D02*
Y163500D01*
X448500Y65000D02*
X455000Y58500D01*
X447642Y65000D02*
X448500D01*
X414500Y139500D02*
X417555Y142555D01*
X414500Y131161D02*
Y139500D01*
X485899Y154000D02*
X528500D01*
X485450Y150500D02*
Y153550D01*
X423500Y264000D02*
X424000Y264500D01*
X311000Y264000D02*
X423500D01*
X378949Y332500D02*
X379449Y332000D01*
X341500Y332500D02*
X378949D01*
X337000Y293500D02*
X339000Y295500D01*
X320000Y293500D02*
X337000D01*
X411370Y255630D02*
X414500Y252500D01*
X318177Y255630D02*
X411370D01*
X412000Y278000D02*
X432000D01*
X533000Y149500D02*
X534000Y150500D01*
X505000Y149500D02*
X533000D01*
X532000Y228500D02*
X533500Y227000D01*
X451500Y228500D02*
X532000D01*
X455161Y217000D02*
X457500Y219339D01*
X414500Y217000D02*
X455161D01*
X510500Y117500D02*
X513000Y115000D01*
X475000Y117500D02*
X510500D01*
X462000Y122500D02*
X462500Y123000D01*
X505500D01*
X442000Y142555D02*
X462657D01*
X417555D02*
X442000D01*
X411500Y313000D02*
X412000Y312500D01*
X388000Y313000D02*
X411500D01*
X271500Y292500D02*
X272000Y292000D01*
X310500D01*
X320000Y44500D02*
X320500Y45000D01*
X337500D01*
X348500Y113500D02*
X348677Y113323D01*
X334500Y113500D02*
X348500D01*
X436500Y124000D02*
Y135500D01*
X435500Y123000D02*
X436500Y124000D01*
X424500Y123000D02*
X435500D01*
X436500Y135500D02*
X437000Y136000D01*
X467500D01*
X467606Y136106D01*
Y142555D01*
X290500Y59500D02*
X293000Y57000D01*
X360500D01*
X362000Y99500D02*
X364500Y102000D01*
X361500Y99000D02*
X362000Y99500D01*
X364500Y102000D02*
X470500D01*
X414500Y43500D02*
X418500Y47500D01*
X322500Y22500D02*
X326750Y18250D01*
X115000Y48500D02*
X119000Y44500D01*
X320000D01*
X439000Y17000D02*
X450000Y28000D01*
X459500Y18500D01*
X501217D01*
X511000Y28283D01*
X533500Y141500D02*
X559000D01*
X287500Y321000D02*
X324000D01*
X327000Y333000D02*
X327500Y333500D01*
X286500Y333000D02*
X327000D01*
X65000Y292500D02*
X271500D01*
X65000D02*
Y312000D01*
X370500Y195000D02*
X375000Y199500D01*
X286000Y195000D02*
X370500D01*
X106500Y145500D02*
X110000Y149000D01*
X325000D01*
X371500Y123000D02*
X394500D01*
Y218500D02*
Y228000D01*
X391500Y231000D02*
X394500Y228000D01*
X354000Y231000D02*
X391500D01*
X353500Y230500D02*
X354000Y231000D01*
X292929Y230500D02*
X353500D01*
X494000Y78500D02*
X575000D01*
X492500Y80000D02*
X494000Y78500D01*
X569000Y94500D02*
X575000Y88500D01*
X498000Y71500D02*
X501000Y68500D01*
X575000D01*
X455000Y58500D02*
X575000D01*
X531000Y28283D02*
Y36500D01*
X408000Y23000D02*
Y29500D01*
X286500Y85500D02*
X334000D01*
X322500Y21000D02*
Y22500D01*
D52*
X358000Y23000D02*
D03*
X273000Y377500D02*
D03*
X282500Y22500D02*
D03*
X236500Y15000D02*
D03*
D53*
X368000Y23000D02*
D03*
X378000D02*
D03*
X388000D02*
D03*
X398000D02*
D03*
X408000D02*
D03*
X283000Y377500D02*
D03*
X293000D02*
D03*
X303000D02*
D03*
X313000D02*
D03*
X323000D02*
D03*
X333000D02*
D03*
X343000D02*
D03*
X353000D02*
D03*
X363000D02*
D03*
X373000D02*
D03*
X383000D02*
D03*
X393000D02*
D03*
X403000D02*
D03*
X413000D02*
D03*
X423000D02*
D03*
X575000Y78500D02*
D03*
Y68500D02*
D03*
Y58500D02*
D03*
X332500Y22500D02*
D03*
X322500D02*
D03*
X312500D02*
D03*
X302500D02*
D03*
X292500D02*
D03*
X186500Y15000D02*
D03*
X196500D02*
D03*
X206500D02*
D03*
X216500D02*
D03*
X226500D02*
D03*
D54*
X511000Y28283D02*
D03*
X450000Y28000D02*
D03*
D55*
X575000Y88500D02*
D03*
D56*
X394500Y218500D02*
D03*
X384500D02*
D03*
X374500D02*
D03*
D57*
X205000Y322000D02*
D03*
Y312000D02*
D03*
X195000Y322000D02*
D03*
Y312000D02*
D03*
X185000Y322000D02*
D03*
Y312000D02*
D03*
X175000Y322000D02*
D03*
Y312000D02*
D03*
X165000Y322000D02*
D03*
Y312000D02*
D03*
X155000Y322000D02*
D03*
Y312000D02*
D03*
X145000Y322000D02*
D03*
Y312000D02*
D03*
X135000Y322000D02*
D03*
Y312000D02*
D03*
X125000Y322000D02*
D03*
Y312000D02*
D03*
X115000Y322000D02*
D03*
Y312000D02*
D03*
X105000Y322000D02*
D03*
Y312000D02*
D03*
X95000Y322000D02*
D03*
Y312000D02*
D03*
X85000Y322000D02*
D03*
Y312000D02*
D03*
X75000Y322000D02*
D03*
Y312000D02*
D03*
X65000Y322000D02*
D03*
Y312000D02*
D03*
X55000Y322000D02*
D03*
Y312000D02*
D03*
X45000Y322000D02*
D03*
Y312000D02*
D03*
X35000Y322000D02*
D03*
Y312000D02*
D03*
X25000Y322000D02*
D03*
X205000Y82000D02*
D03*
Y72000D02*
D03*
X195000Y82000D02*
D03*
Y72000D02*
D03*
X185000Y82000D02*
D03*
Y72000D02*
D03*
X175000Y82000D02*
D03*
Y72000D02*
D03*
X165000Y82000D02*
D03*
Y72000D02*
D03*
X155000Y82000D02*
D03*
Y72000D02*
D03*
X145000Y82000D02*
D03*
Y72000D02*
D03*
X135000Y82000D02*
D03*
Y72000D02*
D03*
X125000Y82000D02*
D03*
Y72000D02*
D03*
X115000Y82000D02*
D03*
Y72000D02*
D03*
X105000Y82000D02*
D03*
Y72000D02*
D03*
X95000Y82000D02*
D03*
Y72000D02*
D03*
X85000Y82000D02*
D03*
Y72000D02*
D03*
X75000Y82000D02*
D03*
Y72000D02*
D03*
X65000Y82000D02*
D03*
Y72000D02*
D03*
X55000Y82000D02*
D03*
Y72000D02*
D03*
X45000Y82000D02*
D03*
Y72000D02*
D03*
X35000Y82000D02*
D03*
Y72000D02*
D03*
X25000Y82000D02*
D03*
D58*
Y312000D02*
D03*
Y72000D02*
D03*
D59*
X574598Y217693D02*
D03*
Y119307D02*
D03*
D60*
X498000Y130000D02*
D03*
X483000Y94500D02*
D03*
X368000Y43500D02*
D03*
X435000Y150000D02*
D03*
X248000Y40000D02*
D03*
X247000Y121000D02*
D03*
X75000D02*
D03*
X304543Y359500D02*
D03*
X422421Y150110D02*
D03*
X406500Y84000D02*
D03*
X336500Y109000D02*
D03*
X493500Y188500D02*
D03*
X311500Y39500D02*
D03*
X290740Y40000D02*
D03*
X271500Y27500D02*
D03*
X540000Y7000D02*
D03*
X457500Y50500D02*
D03*
X272000Y13000D02*
D03*
X323000Y5500D02*
D03*
X475500Y164169D02*
D03*
X420000Y115000D02*
D03*
X9500Y13553D02*
D03*
X440135Y67071D02*
D03*
X447642Y65000D02*
D03*
X414500Y131161D02*
D03*
X485450Y150500D02*
D03*
X20000Y43000D02*
D03*
X39000Y12000D02*
D03*
X354000Y296500D02*
D03*
X374000Y272250D02*
D03*
X311000Y264000D02*
D03*
X424000Y264500D02*
D03*
X427500Y313000D02*
D03*
X428000Y293500D02*
D03*
X345559Y314500D02*
D03*
X341500Y332500D02*
D03*
X339000Y295500D02*
D03*
X320000Y293500D02*
D03*
X379449Y332000D02*
D03*
X318177Y255630D02*
D03*
X414500Y252500D02*
D03*
X432000Y278000D02*
D03*
X412000D02*
D03*
X435000Y157000D02*
D03*
X534000Y150500D02*
D03*
X533500Y227000D02*
D03*
X451500Y228500D02*
D03*
X505000Y149500D02*
D03*
X457500Y219339D02*
D03*
X414500Y217000D02*
D03*
X466000Y186000D02*
D03*
X513000Y115000D02*
D03*
X475000Y117500D02*
D03*
X505500Y123000D02*
D03*
X462000Y122500D02*
D03*
X447642Y80500D02*
D03*
X431500Y166500D02*
D03*
X442000Y142555D02*
D03*
X528500Y154000D02*
D03*
X412000Y312500D02*
D03*
X388000Y313000D02*
D03*
X416500Y297500D02*
D03*
X310500Y292000D02*
D03*
X311161Y309161D02*
D03*
X353000Y309500D02*
D03*
X352000Y319500D02*
D03*
X326500Y315000D02*
D03*
X337500Y45000D02*
D03*
X348677Y113323D02*
D03*
X424500Y123000D02*
D03*
X436500Y135500D02*
D03*
X467606Y142555D02*
D03*
X291000Y60000D02*
D03*
X360500Y57000D02*
D03*
X362000Y99500D02*
D03*
X470500Y102000D02*
D03*
X418500Y47500D02*
D03*
X396000Y87000D02*
D03*
X115000Y48500D02*
D03*
X320000Y44500D02*
D03*
X533500Y141500D02*
D03*
X559000D02*
D03*
X210500Y67000D02*
D03*
X279500Y105000D02*
D03*
X165000D02*
D03*
X268500Y131500D02*
D03*
X155000D02*
D03*
X380500Y242500D02*
D03*
X37500D02*
D03*
X392000Y290000D02*
D03*
X534500Y289000D02*
D03*
X437000Y191000D02*
D03*
X193000D02*
D03*
X150500Y157000D02*
D03*
X316500Y103500D02*
D03*
X145000Y109000D02*
D03*
X276000Y138500D02*
D03*
X135000D02*
D03*
X315500Y94500D02*
D03*
X124500Y98000D02*
D03*
X287500Y321000D02*
D03*
X324000D02*
D03*
X327000Y333000D02*
D03*
X286500D02*
D03*
X271500Y292500D02*
D03*
X311000Y169000D02*
D03*
X109500D02*
D03*
X479500Y343500D02*
D03*
X45500Y344000D02*
D03*
X423000Y159000D02*
D03*
X25000Y159500D02*
D03*
X421500Y238500D02*
D03*
X399500Y358000D02*
D03*
X95000Y387500D02*
D03*
X317000Y392000D02*
D03*
X375000Y199500D02*
D03*
X286000Y195000D02*
D03*
X281500Y338000D02*
D03*
X282114Y312500D02*
D03*
X281500Y369500D02*
D03*
X314000Y370000D02*
D03*
X106500Y145500D02*
D03*
X325000Y149000D02*
D03*
X371500Y123000D02*
D03*
X394500D02*
D03*
X354000Y231000D02*
D03*
X292929Y230500D02*
D03*
X154000Y279000D02*
D03*
X164500Y280000D02*
D03*
X388500Y276500D02*
D03*
X330000Y304500D02*
D03*
X327500Y204000D02*
D03*
X268000Y204500D02*
D03*
X221500Y301500D02*
D03*
X225500Y363000D02*
D03*
X257500Y62000D02*
D03*
X261500Y383500D02*
D03*
X359500Y213500D02*
D03*
X405000Y211500D02*
D03*
X290740Y326000D02*
D03*
X419000Y326740D02*
D03*
X338000Y181000D02*
D03*
X343500Y173000D02*
D03*
X492500Y80000D02*
D03*
X463000Y130000D02*
D03*
X498000Y71500D02*
D03*
X95000Y164500D02*
D03*
X379500D02*
D03*
X85500Y154000D02*
D03*
X373500Y153500D02*
D03*
X74500Y335500D02*
D03*
X6500D02*
D03*
X13500Y6500D02*
D03*
X10000Y329500D02*
D03*
X334000Y85500D02*
D03*
X286500D02*
D03*
X234500Y338500D02*
D03*
X233475Y80025D02*
D03*
X216500Y90000D02*
D03*
X220000Y55000D02*
D03*
X201500Y51000D02*
D03*
X18000Y293500D02*
D03*
D61*
X546622Y377500D02*
D03*
Y255453D02*
D03*
X251346D02*
D03*
Y377500D02*
D03*
D62*
X575000Y374500D02*
D03*
Y24500D02*
D03*
X25000Y374500D02*
D03*
Y24500D02*
D03*
M02*
