G04*
G04 #@! TF.GenerationSoftware,Altium Limited,Altium Designer,18.1.9 (240)*
G04*
G04 Layer_Color=2752767*
%FSLAX25Y25*%
%MOIN*%
G70*
G01*
G75*
%ADD13C,0.01000*%
%ADD51C,0.01500*%
%ADD65C,0.00200*%
%ADD66C,0.00100*%
%ADD67C,0.01600*%
D13*
X638277Y193333D02*
G03*
X638277Y193333I-3333J0D01*
G01*
X631610Y265000D02*
X634944Y266667D01*
X638277Y265000D01*
X636610Y268333D02*
X638277Y265000D01*
X636610Y268333D02*
X638277Y271667D01*
X634944Y270000D02*
X638277Y271667D01*
X631610D02*
X634944Y270000D01*
X631610Y271667D02*
X633277Y268333D01*
X631610Y265000D02*
X633277Y268333D01*
X631610Y251667D02*
X633277D01*
X631610D02*
Y255000D01*
X633277D01*
Y256667D01*
X636610D01*
Y255000D02*
Y256667D01*
Y255000D02*
X638277D01*
Y251667D02*
Y255000D01*
X636610Y251667D02*
X638277D01*
X636610Y250000D02*
Y251667D01*
X633277Y250000D02*
X636610D01*
X633277D02*
Y251667D01*
X631610Y235000D02*
X638277D01*
Y241667D01*
X631610D02*
X638277D01*
X631610Y235000D02*
Y241667D01*
X634944Y220000D02*
X638277Y226667D01*
X631610D02*
X638277D01*
X631610D02*
X634944Y220000D01*
X633277Y206667D02*
X634944Y205000D01*
X631610Y206667D02*
X633277D01*
X631610D02*
X633277Y208333D01*
X631610Y210000D02*
X633277Y208333D01*
X631610Y210000D02*
X633277D01*
X634944Y211667D01*
X636610Y210000D01*
X638277D01*
X636610Y208333D02*
X638277Y210000D01*
X636610Y208333D02*
X638277Y206667D01*
X636610D02*
X638277D01*
X634944Y205000D02*
X636610Y206667D01*
X631610Y175000D02*
Y176667D01*
X633277Y178333D01*
X631610Y180000D02*
X633277Y178333D01*
X631610Y180000D02*
Y181667D01*
X633277D01*
X634944Y180000D01*
X636610Y181667D01*
X638277D01*
Y180000D02*
Y181667D01*
X636610Y178333D02*
X638277Y180000D01*
X636610Y178333D02*
X638277Y176667D01*
Y175000D02*
Y176667D01*
X636610Y175000D02*
X638277D01*
X634944Y176667D02*
X636610Y175000D01*
X633277D02*
X634944Y176667D01*
X631610Y175000D02*
X633277D01*
X940148Y265000D02*
Y270998D01*
X943147D01*
X944147Y269998D01*
Y267999D01*
X943147Y266999D01*
X940148D01*
X942147D02*
X944147Y265000D01*
X947146D02*
X949145D01*
X950145Y266000D01*
Y267999D01*
X949145Y268999D01*
X947146D01*
X946146Y267999D01*
Y266000D01*
X947146Y265000D01*
X952144Y268999D02*
Y266000D01*
X953144Y265000D01*
X956143D01*
Y268999D01*
X958142Y265000D02*
Y268999D01*
X961141D01*
X962141Y267999D01*
Y265000D01*
X968139Y270998D02*
Y265000D01*
X965140D01*
X964140Y266000D01*
Y267999D01*
X965140Y268999D01*
X968139D01*
X940148Y250000D02*
Y255998D01*
X943147D01*
X944147Y254998D01*
Y252999D01*
X943147Y251999D01*
X940148D01*
X942147D02*
X944147Y250000D01*
X947146D02*
X949145D01*
X950145Y251000D01*
Y252999D01*
X949145Y253999D01*
X947146D01*
X946146Y252999D01*
Y251000D01*
X947146Y250000D01*
X952144Y253999D02*
Y251000D01*
X953144Y250000D01*
X956143D01*
Y253999D01*
X958142Y250000D02*
Y253999D01*
X961141D01*
X962141Y252999D01*
Y250000D01*
X968139Y255998D02*
Y250000D01*
X965140D01*
X964140Y251000D01*
Y252999D01*
X965140Y253999D01*
X968139D01*
X940148Y235000D02*
Y240998D01*
X943147D01*
X944147Y239998D01*
Y237999D01*
X943147Y236999D01*
X940148D01*
X942147D02*
X944147Y235000D01*
X947146D02*
X949145D01*
X950145Y236000D01*
Y237999D01*
X949145Y238999D01*
X947146D01*
X946146Y237999D01*
Y236000D01*
X947146Y235000D01*
X952144Y238999D02*
Y236000D01*
X953144Y235000D01*
X956143D01*
Y238999D01*
X958142Y235000D02*
Y238999D01*
X961141D01*
X962141Y237999D01*
Y235000D01*
X968139Y240998D02*
Y235000D01*
X965140D01*
X964140Y236000D01*
Y237999D01*
X965140Y238999D01*
X968139D01*
X940148Y220000D02*
Y225998D01*
X943147D01*
X944147Y224998D01*
Y222999D01*
X943147Y221999D01*
X940148D01*
X942147D02*
X944147Y220000D01*
X947146D02*
X949145D01*
X950145Y221000D01*
Y222999D01*
X949145Y223999D01*
X947146D01*
X946146Y222999D01*
Y221000D01*
X947146Y220000D01*
X952144Y223999D02*
Y221000D01*
X953144Y220000D01*
X956143D01*
Y223999D01*
X958142Y220000D02*
Y223999D01*
X961141D01*
X962141Y222999D01*
Y220000D01*
X968139Y225998D02*
Y220000D01*
X965140D01*
X964140Y221000D01*
Y222999D01*
X965140Y223999D01*
X968139D01*
X940148Y205000D02*
Y210998D01*
X943147D01*
X944147Y209998D01*
Y207999D01*
X943147Y206999D01*
X940148D01*
X942147D02*
X944147Y205000D01*
X947146D02*
X949145D01*
X950145Y206000D01*
Y207999D01*
X949145Y208999D01*
X947146D01*
X946146Y207999D01*
Y206000D01*
X947146Y205000D01*
X952144Y208999D02*
Y206000D01*
X953144Y205000D01*
X956143D01*
Y208999D01*
X958142Y205000D02*
Y208999D01*
X961141D01*
X962141Y207999D01*
Y205000D01*
X968139Y210998D02*
Y205000D01*
X965140D01*
X964140Y206000D01*
Y207999D01*
X965140Y208999D01*
X968139D01*
X940148Y190000D02*
Y195998D01*
X943147D01*
X944147Y194998D01*
Y192999D01*
X943147Y191999D01*
X940148D01*
X942147D02*
X944147Y190000D01*
X947146D02*
X949145D01*
X950145Y191000D01*
Y192999D01*
X949145Y193999D01*
X947146D01*
X946146Y192999D01*
Y191000D01*
X947146Y190000D01*
X952144Y193999D02*
Y191000D01*
X953144Y190000D01*
X956143D01*
Y193999D01*
X958142Y190000D02*
Y193999D01*
X961141D01*
X962141Y192999D01*
Y190000D01*
X968139Y195998D02*
Y190000D01*
X965140D01*
X964140Y191000D01*
Y192999D01*
X965140Y193999D01*
X968139D01*
X940148Y175000D02*
Y180998D01*
X943147D01*
X944147Y179998D01*
Y177999D01*
X943147Y176999D01*
X940148D01*
X942147D02*
X944147Y175000D01*
X947146D02*
X949145D01*
X950145Y176000D01*
Y177999D01*
X949145Y178999D01*
X947146D01*
X946146Y177999D01*
Y176000D01*
X947146Y175000D01*
X952144Y178999D02*
Y176000D01*
X953144Y175000D01*
X956143D01*
Y178999D01*
X958142Y175000D02*
Y178999D01*
X961141D01*
X962141Y177999D01*
Y175000D01*
X968139Y180998D02*
Y175000D01*
X965140D01*
X964140Y176000D01*
Y177999D01*
X965140Y178999D01*
X968139D01*
X889560Y265000D02*
Y270998D01*
X892559D01*
X893559Y269998D01*
Y267999D01*
X892559Y266999D01*
X889560D01*
X895558Y270998D02*
X899557D01*
X897558D01*
Y265000D01*
X901556Y270998D02*
Y265000D01*
Y267999D01*
X905555D01*
Y270998D01*
Y265000D01*
X889560Y250000D02*
Y255998D01*
X892559D01*
X893559Y254998D01*
Y252999D01*
X892559Y251999D01*
X889560D01*
X895558Y255998D02*
X899557D01*
X897558D01*
Y250000D01*
X901556Y255998D02*
Y250000D01*
Y252999D01*
X905555D01*
Y255998D01*
Y250000D01*
X889560Y235000D02*
Y240998D01*
X892559D01*
X893559Y239998D01*
Y237999D01*
X892559Y236999D01*
X889560D01*
X895558Y240998D02*
X899557D01*
X897558D01*
Y235000D01*
X901556Y240998D02*
Y235000D01*
Y237999D01*
X905555D01*
Y240998D01*
Y235000D01*
X889560Y220000D02*
Y225998D01*
X892559D01*
X893559Y224998D01*
Y222999D01*
X892559Y221999D01*
X889560D01*
X895558Y225998D02*
X899557D01*
X897558D01*
Y220000D01*
X901556Y225998D02*
Y220000D01*
Y222999D01*
X905555D01*
Y225998D01*
Y220000D01*
X889560Y205000D02*
Y210998D01*
X892559D01*
X893559Y209998D01*
Y207999D01*
X892559Y206999D01*
X889560D01*
X895558Y210998D02*
X899557D01*
X897558D01*
Y205000D01*
X901556Y210998D02*
Y205000D01*
Y207999D01*
X905555D01*
Y210998D01*
Y205000D01*
X889560Y190000D02*
Y195998D01*
X892559D01*
X893559Y194998D01*
Y192999D01*
X892559Y191999D01*
X889560D01*
X895558Y195998D02*
X899557D01*
X897558D01*
Y190000D01*
X901556Y195998D02*
Y190000D01*
Y192999D01*
X905555D01*
Y195998D01*
Y190000D01*
X889560Y175000D02*
Y180998D01*
X892559D01*
X893559Y179998D01*
Y177999D01*
X892559Y176999D01*
X889560D01*
X895558Y180998D02*
X899557D01*
X897558D01*
Y175000D01*
X901556Y180998D02*
Y175000D01*
Y177999D01*
X905555D01*
Y180998D01*
Y175000D01*
X755000Y265000D02*
X756999D01*
X756000D01*
Y270998D01*
X755000Y269998D01*
X763997Y265000D02*
X759998D01*
X763997Y268999D01*
Y269998D01*
X762997Y270998D01*
X760998D01*
X759998Y269998D01*
X769995Y265000D02*
X765996D01*
X769995Y268999D01*
Y269998D01*
X768996Y270998D01*
X766996D01*
X765996Y269998D01*
X771994Y265000D02*
Y266000D01*
X772994D01*
Y265000D01*
X771994D01*
X776993Y269998D02*
X777993Y270998D01*
X779992D01*
X780992Y269998D01*
Y266000D01*
X779992Y265000D01*
X777993D01*
X776993Y266000D01*
Y269998D01*
X786990Y270998D02*
X782991D01*
Y267999D01*
X784990Y268999D01*
X785990D01*
X786990Y267999D01*
Y266000D01*
X785990Y265000D01*
X783991D01*
X782991Y266000D01*
X788989Y265000D02*
Y268999D01*
X789989D01*
X790988Y267999D01*
Y265000D01*
Y267999D01*
X791988Y268999D01*
X792988Y267999D01*
Y265000D01*
X794987D02*
X796986D01*
X795987D01*
Y268999D01*
X794987D01*
X799985Y265000D02*
X801985D01*
X800985D01*
Y270998D01*
X799985D01*
X812981Y265000D02*
X810982Y266999D01*
Y268999D01*
X812981Y270998D01*
X815980Y269998D02*
X816980Y270998D01*
X818979D01*
X819979Y269998D01*
Y268999D01*
X818979Y267999D01*
X817980D01*
X818979D01*
X819979Y266999D01*
Y266000D01*
X818979Y265000D01*
X816980D01*
X815980Y266000D01*
X821978Y265000D02*
Y266000D01*
X822978D01*
Y265000D01*
X821978D01*
X826977D02*
X828976D01*
X827976D01*
Y270998D01*
X826977Y269998D01*
X831975D02*
X832975Y270998D01*
X834974D01*
X835974Y269998D01*
Y266000D01*
X834974Y265000D01*
X832975D01*
X831975Y266000D01*
Y269998D01*
X837973D02*
X838973Y270998D01*
X840972D01*
X841972Y269998D01*
Y266000D01*
X840972Y265000D01*
X838973D01*
X837973Y266000D01*
Y269998D01*
X843971Y265000D02*
Y268999D01*
X844971D01*
X845971Y267999D01*
Y265000D01*
Y267999D01*
X846970Y268999D01*
X847970Y267999D01*
Y265000D01*
X849969D02*
Y268999D01*
X850969D01*
X851969Y267999D01*
Y265000D01*
Y267999D01*
X852968Y268999D01*
X853968Y267999D01*
Y265000D01*
X855967D02*
X857967Y266999D01*
Y268999D01*
X855967Y270998D01*
X755000Y251000D02*
X756000Y250000D01*
X757999D01*
X758999Y251000D01*
Y254998D01*
X757999Y255998D01*
X756000D01*
X755000Y254998D01*
Y253999D01*
X756000Y252999D01*
X758999D01*
X760998Y254998D02*
X761998Y255998D01*
X763997D01*
X764997Y254998D01*
Y253999D01*
X763997Y252999D01*
X764997Y251999D01*
Y251000D01*
X763997Y250000D01*
X761998D01*
X760998Y251000D01*
Y251999D01*
X761998Y252999D01*
X760998Y253999D01*
Y254998D01*
X761998Y252999D02*
X763997D01*
X766996Y250000D02*
Y251000D01*
X767996D01*
Y250000D01*
X766996D01*
X774994D02*
Y255998D01*
X771994Y252999D01*
X775993D01*
X777993Y254998D02*
X778992Y255998D01*
X780992D01*
X781991Y254998D01*
Y253999D01*
X780992Y252999D01*
X779992D01*
X780992D01*
X781991Y251999D01*
Y251000D01*
X780992Y250000D01*
X778992D01*
X777993Y251000D01*
X783991Y250000D02*
Y253999D01*
X784990D01*
X785990Y252999D01*
Y250000D01*
Y252999D01*
X786990Y253999D01*
X787989Y252999D01*
Y250000D01*
X789989D02*
X791988D01*
X790988D01*
Y253999D01*
X789989D01*
X794987Y250000D02*
X796986D01*
X795987D01*
Y255998D01*
X794987D01*
X807983Y250000D02*
X805984Y251999D01*
Y253999D01*
X807983Y255998D01*
X814981Y250000D02*
X810982D01*
X814981Y253999D01*
Y254998D01*
X813981Y255998D01*
X811982D01*
X810982Y254998D01*
X816980Y250000D02*
Y251000D01*
X817980D01*
Y250000D01*
X816980D01*
X825977Y255998D02*
X821978D01*
Y252999D01*
X823978Y253999D01*
X824977D01*
X825977Y252999D01*
Y251000D01*
X824977Y250000D01*
X822978D01*
X821978Y251000D01*
X827976Y254998D02*
X828976Y255998D01*
X830975D01*
X831975Y254998D01*
Y251000D01*
X830975Y250000D01*
X828976D01*
X827976Y251000D01*
Y254998D01*
X833974D02*
X834974Y255998D01*
X836973D01*
X837973Y254998D01*
Y251000D01*
X836973Y250000D01*
X834974D01*
X833974Y251000D01*
Y254998D01*
X839972Y250000D02*
Y253999D01*
X840972D01*
X841972Y252999D01*
Y250000D01*
Y252999D01*
X842972Y253999D01*
X843971Y252999D01*
Y250000D01*
X845971D02*
Y253999D01*
X846970D01*
X847970Y252999D01*
Y250000D01*
Y252999D01*
X848970Y253999D01*
X849969Y252999D01*
Y250000D01*
X851969D02*
X853968Y251999D01*
Y253999D01*
X851969Y255998D01*
X755000Y235000D02*
X756999D01*
X756000D01*
Y240998D01*
X755000Y239998D01*
X759998D02*
X760998Y240998D01*
X762997D01*
X763997Y239998D01*
Y238999D01*
X762997Y237999D01*
X761998D01*
X762997D01*
X763997Y236999D01*
Y236000D01*
X762997Y235000D01*
X760998D01*
X759998Y236000D01*
X769995Y240998D02*
X767996Y239998D01*
X765996Y237999D01*
Y236000D01*
X766996Y235000D01*
X768996D01*
X769995Y236000D01*
Y236999D01*
X768996Y237999D01*
X765996D01*
X771994Y235000D02*
Y236000D01*
X772994D01*
Y235000D01*
X771994D01*
X776993Y239998D02*
X777993Y240998D01*
X779992D01*
X780992Y239998D01*
Y236000D01*
X779992Y235000D01*
X777993D01*
X776993Y236000D01*
Y239998D01*
X782991D02*
X783991Y240998D01*
X785990D01*
X786990Y239998D01*
Y236000D01*
X785990Y235000D01*
X783991D01*
X782991Y236000D01*
Y239998D01*
X788989Y235000D02*
Y238999D01*
X789989D01*
X790988Y237999D01*
Y235000D01*
Y237999D01*
X791988Y238999D01*
X792988Y237999D01*
Y235000D01*
X794987D02*
X796986D01*
X795987D01*
Y238999D01*
X794987D01*
X799985Y235000D02*
X801985D01*
X800985D01*
Y240998D01*
X799985D01*
X812981Y235000D02*
X810982Y236999D01*
Y238999D01*
X812981Y240998D01*
X815980Y239998D02*
X816980Y240998D01*
X818979D01*
X819979Y239998D01*
Y238999D01*
X818979Y237999D01*
X817980D01*
X818979D01*
X819979Y236999D01*
Y236000D01*
X818979Y235000D01*
X816980D01*
X815980Y236000D01*
X821978Y235000D02*
Y236000D01*
X822978D01*
Y235000D01*
X821978D01*
X829976D02*
Y240998D01*
X826977Y237999D01*
X830975D01*
X836973Y240998D02*
X832975D01*
Y237999D01*
X834974Y238999D01*
X835974D01*
X836973Y237999D01*
Y236000D01*
X835974Y235000D01*
X833974D01*
X832975Y236000D01*
X841972Y235000D02*
Y240998D01*
X838973Y237999D01*
X842972D01*
X844971Y235000D02*
Y238999D01*
X845971D01*
X846970Y237999D01*
Y235000D01*
Y237999D01*
X847970Y238999D01*
X848970Y237999D01*
Y235000D01*
X850969D02*
Y238999D01*
X851969D01*
X852968Y237999D01*
Y235000D01*
Y237999D01*
X853968Y238999D01*
X854968Y237999D01*
Y235000D01*
X856967D02*
X858966Y236999D01*
Y238999D01*
X856967Y240998D01*
X758999Y225998D02*
X755000D01*
Y222999D01*
X756999Y223999D01*
X757999D01*
X758999Y222999D01*
Y221000D01*
X757999Y220000D01*
X756000D01*
X755000Y221000D01*
X764997Y225998D02*
X760998D01*
Y222999D01*
X762997Y223999D01*
X763997D01*
X764997Y222999D01*
Y221000D01*
X763997Y220000D01*
X761998D01*
X760998Y221000D01*
X766996Y220000D02*
Y221000D01*
X767996D01*
Y220000D01*
X766996D01*
X771994Y224998D02*
X772994Y225998D01*
X774994D01*
X775993Y224998D01*
Y221000D01*
X774994Y220000D01*
X772994D01*
X771994Y221000D01*
Y224998D01*
X777993D02*
X778992Y225998D01*
X780992D01*
X781991Y224998D01*
Y221000D01*
X780992Y220000D01*
X778992D01*
X777993Y221000D01*
Y224998D01*
X783991Y220000D02*
Y223999D01*
X784990D01*
X785990Y222999D01*
Y220000D01*
Y222999D01*
X786990Y223999D01*
X787989Y222999D01*
Y220000D01*
X789989D02*
X791988D01*
X790988D01*
Y223999D01*
X789989D01*
X794987Y220000D02*
X796986D01*
X795987D01*
Y225998D01*
X794987D01*
X807983Y220000D02*
X805984Y221999D01*
Y223999D01*
X807983Y225998D01*
X810982Y220000D02*
X812981D01*
X811982D01*
Y225998D01*
X810982Y224998D01*
X815980Y220000D02*
Y221000D01*
X816980D01*
Y220000D01*
X815980D01*
X820979Y224998D02*
X821978Y225998D01*
X823978D01*
X824977Y224998D01*
Y223999D01*
X823978Y222999D01*
X822978D01*
X823978D01*
X824977Y221999D01*
Y221000D01*
X823978Y220000D01*
X821978D01*
X820979Y221000D01*
X826977D02*
X827976Y220000D01*
X829976D01*
X830975Y221000D01*
Y224998D01*
X829976Y225998D01*
X827976D01*
X826977Y224998D01*
Y223999D01*
X827976Y222999D01*
X830975D01*
X832975Y225998D02*
X836973D01*
Y224998D01*
X832975Y221000D01*
Y220000D01*
X838973D02*
Y223999D01*
X839972D01*
X840972Y222999D01*
Y220000D01*
Y222999D01*
X841972Y223999D01*
X842972Y222999D01*
Y220000D01*
X844971D02*
Y223999D01*
X845971D01*
X846970Y222999D01*
Y220000D01*
Y222999D01*
X847970Y223999D01*
X848970Y222999D01*
Y220000D01*
X850969D02*
X852968Y221999D01*
Y223999D01*
X850969Y225998D01*
X757999Y205000D02*
Y210998D01*
X755000Y207999D01*
X758999D01*
X764997Y205000D02*
X760998D01*
X764997Y208999D01*
Y209998D01*
X763997Y210998D01*
X761998D01*
X760998Y209998D01*
X766996Y205000D02*
Y206000D01*
X767996D01*
Y205000D01*
X766996D01*
X771994Y206000D02*
X772994Y205000D01*
X774994D01*
X775993Y206000D01*
Y209998D01*
X774994Y210998D01*
X772994D01*
X771994Y209998D01*
Y208999D01*
X772994Y207999D01*
X775993D01*
X777993Y205000D02*
X779992D01*
X778992D01*
Y210998D01*
X777993Y209998D01*
X782991Y205000D02*
Y208999D01*
X783991D01*
X784990Y207999D01*
Y205000D01*
Y207999D01*
X785990Y208999D01*
X786990Y207999D01*
Y205000D01*
X788989D02*
X790988D01*
X789989D01*
Y208999D01*
X788989D01*
X793987Y205000D02*
X795987D01*
X794987D01*
Y210998D01*
X793987D01*
X806983Y205000D02*
X804984Y206999D01*
Y208999D01*
X806983Y210998D01*
X809982Y205000D02*
X811981D01*
X810982D01*
Y210998D01*
X809982Y209998D01*
X814981Y205000D02*
Y206000D01*
X815980D01*
Y205000D01*
X814981D01*
X819979Y209998D02*
X820979Y210998D01*
X822978D01*
X823978Y209998D01*
Y206000D01*
X822978Y205000D01*
X820979D01*
X819979Y206000D01*
Y209998D01*
X825977Y206000D02*
X826977Y205000D01*
X828976D01*
X829976Y206000D01*
Y209998D01*
X828976Y210998D01*
X826977D01*
X825977Y209998D01*
Y208999D01*
X826977Y207999D01*
X829976D01*
X831975Y209998D02*
X832975Y210998D01*
X834974D01*
X835974Y209998D01*
Y206000D01*
X834974Y205000D01*
X832975D01*
X831975Y206000D01*
Y209998D01*
X837973Y205000D02*
Y208999D01*
X838973D01*
X839972Y207999D01*
Y205000D01*
Y207999D01*
X840972Y208999D01*
X841972Y207999D01*
Y205000D01*
X843971D02*
Y208999D01*
X844971D01*
X845971Y207999D01*
Y205000D01*
Y207999D01*
X846970Y208999D01*
X847970Y207999D01*
Y205000D01*
X849969D02*
X851969Y206999D01*
Y208999D01*
X849969Y210998D01*
X757999Y190000D02*
Y195998D01*
X755000Y192999D01*
X758999D01*
X760998Y194998D02*
X761998Y195998D01*
X763997D01*
X764997Y194998D01*
Y191000D01*
X763997Y190000D01*
X761998D01*
X760998Y191000D01*
Y194998D01*
X766996Y190000D02*
Y191000D01*
X767996D01*
Y190000D01*
X766996D01*
X771994Y194998D02*
X772994Y195998D01*
X774994D01*
X775993Y194998D01*
Y191000D01*
X774994Y190000D01*
X772994D01*
X771994Y191000D01*
Y194998D01*
X777993D02*
X778992Y195998D01*
X780992D01*
X781991Y194998D01*
Y191000D01*
X780992Y190000D01*
X778992D01*
X777993Y191000D01*
Y194998D01*
X783991Y190000D02*
Y193999D01*
X784990D01*
X785990Y192999D01*
Y190000D01*
Y192999D01*
X786990Y193999D01*
X787989Y192999D01*
Y190000D01*
X789989D02*
X791988D01*
X790988D01*
Y193999D01*
X789989D01*
X794987Y190000D02*
X796986D01*
X795987D01*
Y195998D01*
X794987D01*
X807983Y190000D02*
X805984Y191999D01*
Y193999D01*
X807983Y195998D01*
X810982Y190000D02*
X812981D01*
X811982D01*
Y195998D01*
X810982Y194998D01*
X815980Y190000D02*
Y191000D01*
X816980D01*
Y190000D01*
X815980D01*
X820979Y194998D02*
X821978Y195998D01*
X823978D01*
X824977Y194998D01*
Y191000D01*
X823978Y190000D01*
X821978D01*
X820979Y191000D01*
Y194998D01*
X826977Y190000D02*
X828976D01*
X827976D01*
Y195998D01*
X826977Y194998D01*
X835974Y195998D02*
X833974Y194998D01*
X831975Y192999D01*
Y191000D01*
X832975Y190000D01*
X834974D01*
X835974Y191000D01*
Y191999D01*
X834974Y192999D01*
X831975D01*
X837973Y190000D02*
Y193999D01*
X838973D01*
X839972Y192999D01*
Y190000D01*
Y192999D01*
X840972Y193999D01*
X841972Y192999D01*
Y190000D01*
X843971D02*
Y193999D01*
X844971D01*
X845971Y192999D01*
Y190000D01*
Y192999D01*
X846970Y193999D01*
X847970Y192999D01*
Y190000D01*
X849969D02*
X851969Y191999D01*
Y193999D01*
X849969Y195998D01*
X758999Y175000D02*
X755000D01*
X758999Y178999D01*
Y179998D01*
X757999Y180998D01*
X756000D01*
X755000Y179998D01*
X760998D02*
X761998Y180998D01*
X763997D01*
X764997Y179998D01*
Y178999D01*
X763997Y177999D01*
X764997Y176999D01*
Y176000D01*
X763997Y175000D01*
X761998D01*
X760998Y176000D01*
Y176999D01*
X761998Y177999D01*
X760998Y178999D01*
Y179998D01*
X761998Y177999D02*
X763997D01*
X766996Y175000D02*
Y176000D01*
X767996D01*
Y175000D01*
X766996D01*
X771994Y179998D02*
X772994Y180998D01*
X774994D01*
X775993Y179998D01*
Y176000D01*
X774994Y175000D01*
X772994D01*
X771994Y176000D01*
Y179998D01*
X777993D02*
X778992Y180998D01*
X780992D01*
X781991Y179998D01*
Y176000D01*
X780992Y175000D01*
X778992D01*
X777993Y176000D01*
Y179998D01*
X783991Y175000D02*
Y178999D01*
X784990D01*
X785990Y177999D01*
Y175000D01*
Y177999D01*
X786990Y178999D01*
X787989Y177999D01*
Y175000D01*
X789989D02*
X791988D01*
X790988D01*
Y178999D01*
X789989D01*
X794987Y175000D02*
X796986D01*
X795987D01*
Y180998D01*
X794987D01*
X807983Y175000D02*
X805984Y176999D01*
Y178999D01*
X807983Y180998D01*
X810982Y179998D02*
X811982Y180998D01*
X813981D01*
X814981Y179998D01*
Y176000D01*
X813981Y175000D01*
X811982D01*
X810982Y176000D01*
Y179998D01*
X816980Y175000D02*
Y176000D01*
X817980D01*
Y175000D01*
X816980D01*
X821978Y180998D02*
X825977D01*
Y179998D01*
X821978Y176000D01*
Y175000D01*
X827976D02*
X829976D01*
X828976D01*
Y180998D01*
X827976Y179998D01*
X832975Y175000D02*
X834974D01*
X833974D01*
Y180998D01*
X832975Y179998D01*
X837973Y175000D02*
Y178999D01*
X838973D01*
X839972Y177999D01*
Y175000D01*
Y177999D01*
X840972Y178999D01*
X841972Y177999D01*
Y175000D01*
X843971D02*
Y178999D01*
X844971D01*
X845971Y177999D01*
Y175000D01*
Y177999D01*
X846970Y178999D01*
X847970Y177999D01*
Y175000D01*
X849969D02*
X851969Y176999D01*
Y178999D01*
X849969Y180998D01*
X685219Y164998D02*
X686218Y165998D01*
X688218D01*
X689217Y164998D01*
Y163999D01*
X688218Y162999D01*
X687218D01*
X688218D01*
X689217Y161999D01*
Y161000D01*
X688218Y160000D01*
X686218D01*
X685219Y161000D01*
X691217Y164998D02*
X692216Y165998D01*
X694216D01*
X695215Y164998D01*
Y161000D01*
X694216Y160000D01*
X692216D01*
X691217Y161000D01*
Y164998D01*
X701214Y160000D02*
X697215D01*
X701214Y163999D01*
Y164998D01*
X700214Y165998D01*
X698214D01*
X697215Y164998D01*
X709211Y165998D02*
X713210D01*
X711210D01*
Y160000D01*
X716209D02*
X718208D01*
X719208Y161000D01*
Y162999D01*
X718208Y163999D01*
X716209D01*
X715209Y162999D01*
Y161000D01*
X716209Y160000D01*
X722207Y164998D02*
Y163999D01*
X721207D01*
X723206D01*
X722207D01*
Y161000D01*
X723206Y160000D01*
X727205Y163999D02*
X729204D01*
X730204Y162999D01*
Y160000D01*
X727205D01*
X726205Y161000D01*
X727205Y161999D01*
X730204D01*
X732203Y160000D02*
X734203D01*
X733203D01*
Y165998D01*
X732203D01*
X689217Y265000D02*
X685219D01*
X689217Y268999D01*
Y269998D01*
X688218Y270998D01*
X686218D01*
X685219Y269998D01*
X688218Y250000D02*
Y255998D01*
X685219Y252999D01*
X689217D01*
X688218Y235000D02*
Y240998D01*
X685219Y237999D01*
X689217D01*
X685219Y225998D02*
X689217D01*
Y224998D01*
X685219Y221000D01*
Y220000D01*
Y206000D02*
X686218Y205000D01*
X688218D01*
X689217Y206000D01*
Y209998D01*
X688218Y210998D01*
X686218D01*
X685219Y209998D01*
Y208999D01*
X686218Y207999D01*
X689217D01*
X685219Y190000D02*
X687218D01*
X686218D01*
Y195998D01*
X685219Y194998D01*
X690217Y190000D02*
X692216D01*
X691217D01*
Y195998D01*
X690217Y194998D01*
X698214Y190000D02*
Y195998D01*
X695215Y192999D01*
X699214D01*
X685219Y175000D02*
X687218D01*
X686218D01*
Y180998D01*
X685219Y179998D01*
X694216Y180998D02*
X692216Y179998D01*
X690217Y177999D01*
Y176000D01*
X691217Y175000D01*
X693216D01*
X694216Y176000D01*
Y176999D01*
X693216Y177999D01*
X690217D01*
X700214Y175000D02*
X696215D01*
X700214Y178999D01*
Y179998D01*
X699214Y180998D01*
X697215D01*
X696215Y179998D01*
X629979Y501857D02*
Y495859D01*
X633977D01*
X636976Y499858D02*
X638976D01*
X639975Y498858D01*
Y495859D01*
X636976D01*
X635977Y496859D01*
X636976Y497858D01*
X639975D01*
X641975Y499858D02*
Y496859D01*
X642974Y495859D01*
X645973D01*
Y494859D01*
X644974Y493860D01*
X643974D01*
X645973Y495859D02*
Y499858D01*
X650972Y495859D02*
X648973D01*
X647973Y496859D01*
Y498858D01*
X648973Y499858D01*
X650972D01*
X651971Y498858D01*
Y497858D01*
X647973D01*
X653971Y499858D02*
Y495859D01*
Y497858D01*
X654971Y498858D01*
X655970Y499858D01*
X656970D01*
X629979Y417857D02*
X633977D01*
Y416857D01*
X629979Y412859D01*
Y411859D01*
X633977Y429857D02*
X631978Y428857D01*
X629979Y426858D01*
Y424859D01*
X630978Y423859D01*
X632978D01*
X633977Y424859D01*
Y425858D01*
X632978Y426858D01*
X629979D01*
X633977Y441857D02*
X629979D01*
Y438858D01*
X631978Y439858D01*
X632978D01*
X633977Y438858D01*
Y436859D01*
X632978Y435859D01*
X630978D01*
X629979Y436859D01*
X632978Y447859D02*
Y453857D01*
X629979Y450858D01*
X633977D01*
X629979Y464857D02*
X630978Y465857D01*
X632978D01*
X633977Y464857D01*
Y463858D01*
X632978Y462858D01*
X631978D01*
X632978D01*
X633977Y461858D01*
Y460859D01*
X632978Y459859D01*
X630978D01*
X629979Y460859D01*
X633977Y471859D02*
X629979D01*
X633977Y475858D01*
Y476857D01*
X632978Y477857D01*
X630978D01*
X629979Y476857D01*
Y483859D02*
X631978D01*
X630978D01*
Y489857D01*
X629979Y488857D01*
X670970Y495859D02*
Y501857D01*
X674969Y495859D01*
Y501857D01*
X677968Y499858D02*
X679967D01*
X680967Y498858D01*
Y495859D01*
X677968D01*
X676968Y496859D01*
X677968Y497858D01*
X680967D01*
X682966Y495859D02*
Y499858D01*
X683966D01*
X684965Y498858D01*
Y495859D01*
Y498858D01*
X685965Y499858D01*
X686965Y498858D01*
Y495859D01*
X691963D02*
X689964D01*
X688964Y496859D01*
Y498858D01*
X689964Y499858D01*
X691963D01*
X692963Y498858D01*
Y497858D01*
X688964D01*
X670970Y417857D02*
Y411859D01*
X673969D01*
X674969Y412859D01*
Y413858D01*
X673969Y414858D01*
X670970D01*
X673969D01*
X674969Y415858D01*
Y416857D01*
X673969Y417857D01*
X670970D01*
X677968Y411859D02*
X679967D01*
X680967Y412859D01*
Y414858D01*
X679967Y415858D01*
X677968D01*
X676968Y414858D01*
Y412859D01*
X677968Y411859D01*
X683966Y416857D02*
Y415858D01*
X682966D01*
X684965D01*
X683966D01*
Y412859D01*
X684965Y411859D01*
X688964Y416857D02*
Y415858D01*
X687964D01*
X689964D01*
X688964D01*
Y412859D01*
X689964Y411859D01*
X693962D02*
X695962D01*
X696961Y412859D01*
Y414858D01*
X695962Y415858D01*
X693962D01*
X692963Y414858D01*
Y412859D01*
X693962Y411859D01*
X698961D02*
Y415858D01*
X699961D01*
X700960Y414858D01*
Y411859D01*
Y414858D01*
X701960Y415858D01*
X702960Y414858D01*
Y411859D01*
X713956Y417857D02*
X711957D01*
X710957Y416857D01*
Y412859D01*
X711957Y411859D01*
X713956D01*
X714956Y412859D01*
Y416857D01*
X713956Y417857D01*
X716955Y415858D02*
X718954Y411859D01*
X720954Y415858D01*
X725952Y411859D02*
X723953D01*
X722953Y412859D01*
Y414858D01*
X723953Y415858D01*
X725952D01*
X726952Y414858D01*
Y413858D01*
X722953D01*
X728951Y415858D02*
Y411859D01*
Y413858D01*
X729951Y414858D01*
X730950Y415858D01*
X731950D01*
X734949Y411859D02*
X736949D01*
X735949D01*
Y417857D01*
X734949D01*
X740947Y415858D02*
X742947D01*
X743946Y414858D01*
Y411859D01*
X740947D01*
X739948Y412859D01*
X740947Y413858D01*
X743946D01*
X745946Y415858D02*
Y412859D01*
X746945Y411859D01*
X749944D01*
Y410859D01*
X748945Y409860D01*
X747945D01*
X749944Y411859D02*
Y415858D01*
X670970Y429857D02*
Y423859D01*
X673969D01*
X674969Y424859D01*
Y425858D01*
X673969Y426858D01*
X670970D01*
X673969D01*
X674969Y427858D01*
Y428857D01*
X673969Y429857D01*
X670970D01*
X677968Y423859D02*
X679967D01*
X680967Y424859D01*
Y426858D01*
X679967Y427858D01*
X677968D01*
X676968Y426858D01*
Y424859D01*
X677968Y423859D01*
X683966Y428857D02*
Y427858D01*
X682966D01*
X684965D01*
X683966D01*
Y424859D01*
X684965Y423859D01*
X688964Y428857D02*
Y427858D01*
X687964D01*
X689964D01*
X688964D01*
Y424859D01*
X689964Y423859D01*
X693962D02*
X695962D01*
X696961Y424859D01*
Y426858D01*
X695962Y427858D01*
X693962D01*
X692963Y426858D01*
Y424859D01*
X693962Y423859D01*
X698961D02*
Y427858D01*
X699961D01*
X700960Y426858D01*
Y423859D01*
Y426858D01*
X701960Y427858D01*
X702960Y426858D01*
Y423859D01*
X714956Y428857D02*
X713956Y429857D01*
X711957D01*
X710957Y428857D01*
Y427858D01*
X711957Y426858D01*
X713956D01*
X714956Y425858D01*
Y424859D01*
X713956Y423859D01*
X711957D01*
X710957Y424859D01*
X717955Y423859D02*
X719954D01*
X720954Y424859D01*
Y426858D01*
X719954Y427858D01*
X717955D01*
X716955Y426858D01*
Y424859D01*
X717955Y423859D01*
X722953D02*
X724952D01*
X723953D01*
Y429857D01*
X722953D01*
X731950D02*
Y423859D01*
X728951D01*
X727951Y424859D01*
Y426858D01*
X728951Y427858D01*
X731950D01*
X736949Y423859D02*
X734949D01*
X733950Y424859D01*
Y426858D01*
X734949Y427858D01*
X736949D01*
X737948Y426858D01*
Y425858D01*
X733950D01*
X739948Y427858D02*
Y423859D01*
Y425858D01*
X740947Y426858D01*
X741947Y427858D01*
X742947D01*
X670970Y441857D02*
Y435859D01*
X673969D01*
X674969Y436859D01*
Y437858D01*
X673969Y438858D01*
X670970D01*
X673969D01*
X674969Y439858D01*
Y440857D01*
X673969Y441857D01*
X670970D01*
X677968Y435859D02*
X679967D01*
X680967Y436859D01*
Y438858D01*
X679967Y439858D01*
X677968D01*
X676968Y438858D01*
Y436859D01*
X677968Y435859D01*
X683966Y440857D02*
Y439858D01*
X682966D01*
X684965D01*
X683966D01*
Y436859D01*
X684965Y435859D01*
X688964Y440857D02*
Y439858D01*
X687964D01*
X689964D01*
X688964D01*
Y436859D01*
X689964Y435859D01*
X693962D02*
X695962D01*
X696961Y436859D01*
Y438858D01*
X695962Y439858D01*
X693962D01*
X692963Y438858D01*
Y436859D01*
X693962Y435859D01*
X698961D02*
Y439858D01*
X699961D01*
X700960Y438858D01*
Y435859D01*
Y438858D01*
X701960Y439858D01*
X702960Y438858D01*
Y435859D01*
X710957Y441857D02*
Y435859D01*
X714956D01*
X717955Y439858D02*
X719954D01*
X720954Y438858D01*
Y435859D01*
X717955D01*
X716955Y436859D01*
X717955Y437858D01*
X720954D01*
X722953Y439858D02*
Y436859D01*
X723953Y435859D01*
X726952D01*
Y434859D01*
X725952Y433860D01*
X724952D01*
X726952Y435859D02*
Y439858D01*
X731950Y435859D02*
X729951D01*
X728951Y436859D01*
Y438858D01*
X729951Y439858D01*
X731950D01*
X732950Y438858D01*
Y437858D01*
X728951D01*
X734949Y439858D02*
Y435859D01*
Y437858D01*
X735949Y438858D01*
X736949Y439858D01*
X737948D01*
X670970Y453857D02*
Y447859D01*
X673969D01*
X674969Y448859D01*
Y452857D01*
X673969Y453857D01*
X670970D01*
X676968Y447859D02*
X678967D01*
X677968D01*
Y451858D01*
X676968D01*
X684965Y447859D02*
X682966D01*
X681966Y448859D01*
Y450858D01*
X682966Y451858D01*
X684965D01*
X685965Y450858D01*
Y449858D01*
X681966D01*
X687964Y447859D02*
X689964D01*
X688964D01*
Y453857D01*
X687964D01*
X695962Y447859D02*
X693962D01*
X692963Y448859D01*
Y450858D01*
X693962Y451858D01*
X695962D01*
X696961Y450858D01*
Y449858D01*
X692963D01*
X702960Y451858D02*
X699961D01*
X698961Y450858D01*
Y448859D01*
X699961Y447859D01*
X702960D01*
X705959Y452857D02*
Y451858D01*
X704959D01*
X706958D01*
X705959D01*
Y448859D01*
X706958Y447859D01*
X709957Y451858D02*
Y447859D01*
Y449858D01*
X710957Y450858D01*
X711957Y451858D01*
X712956D01*
X715955Y447859D02*
X717955D01*
X716955D01*
Y451858D01*
X715955D01*
X724952D02*
X721953D01*
X720954Y450858D01*
Y448859D01*
X721953Y447859D01*
X724952D01*
X732950D02*
X734949D01*
X733950D01*
Y453857D01*
X732950Y452857D01*
X670970Y465857D02*
X674969D01*
X672969D01*
Y459859D01*
X677968D02*
X679967D01*
X680967Y460859D01*
Y462858D01*
X679967Y463858D01*
X677968D01*
X676968Y462858D01*
Y460859D01*
X677968Y459859D01*
X682966Y457860D02*
Y463858D01*
X685965D01*
X686965Y462858D01*
Y460859D01*
X685965Y459859D01*
X682966D01*
X694962Y465857D02*
Y459859D01*
X698961D01*
X701960Y463858D02*
X703959D01*
X704959Y462858D01*
Y459859D01*
X701960D01*
X700960Y460859D01*
X701960Y461858D01*
X704959D01*
X706958Y463858D02*
Y460859D01*
X707958Y459859D01*
X710957D01*
Y458859D01*
X709957Y457860D01*
X708958D01*
X710957Y459859D02*
Y463858D01*
X715955Y459859D02*
X713956D01*
X712956Y460859D01*
Y462858D01*
X713956Y463858D01*
X715955D01*
X716955Y462858D01*
Y461858D01*
X712956D01*
X718954Y463858D02*
Y459859D01*
Y461858D01*
X719954Y462858D01*
X720954Y463858D01*
X721953D01*
X670970Y477857D02*
X674969D01*
X672969D01*
Y471859D01*
X677968D02*
X679967D01*
X680967Y472859D01*
Y474858D01*
X679967Y475858D01*
X677968D01*
X676968Y474858D01*
Y472859D01*
X677968Y471859D01*
X682966Y469860D02*
Y475858D01*
X685965D01*
X686965Y474858D01*
Y472859D01*
X685965Y471859D01*
X682966D01*
X698961Y476857D02*
X697961Y477857D01*
X695962D01*
X694962Y476857D01*
Y475858D01*
X695962Y474858D01*
X697961D01*
X698961Y473858D01*
Y472859D01*
X697961Y471859D01*
X695962D01*
X694962Y472859D01*
X701960Y471859D02*
X703959D01*
X704959Y472859D01*
Y474858D01*
X703959Y475858D01*
X701960D01*
X700960Y474858D01*
Y472859D01*
X701960Y471859D01*
X706958D02*
X708958D01*
X707958D01*
Y477857D01*
X706958D01*
X715955D02*
Y471859D01*
X712956D01*
X711957Y472859D01*
Y474858D01*
X712956Y475858D01*
X715955D01*
X720954Y471859D02*
X718954D01*
X717955Y472859D01*
Y474858D01*
X718954Y475858D01*
X720954D01*
X721953Y474858D01*
Y473858D01*
X717955D01*
X723953Y475858D02*
Y471859D01*
Y473858D01*
X724953Y474858D01*
X725952Y475858D01*
X726952D01*
X670970Y489857D02*
X674969D01*
X672969D01*
Y483859D01*
X677968D02*
X679967D01*
X680967Y484859D01*
Y486858D01*
X679967Y487858D01*
X677968D01*
X676968Y486858D01*
Y484859D01*
X677968Y483859D01*
X682966Y481860D02*
Y487858D01*
X685965D01*
X686965Y486858D01*
Y484859D01*
X685965Y483859D01*
X682966D01*
X697961Y489857D02*
X695962D01*
X694962Y488857D01*
Y484859D01*
X695962Y483859D01*
X697961D01*
X698961Y484859D01*
Y488857D01*
X697961Y489857D01*
X700960Y487858D02*
X702960Y483859D01*
X704959Y487858D01*
X709957Y483859D02*
X707958D01*
X706958Y484859D01*
Y486858D01*
X707958Y487858D01*
X709957D01*
X710957Y486858D01*
Y485858D01*
X706958D01*
X712956Y487858D02*
Y483859D01*
Y485858D01*
X713956Y486858D01*
X714956Y487858D01*
X715955D01*
X718954Y483859D02*
X720954D01*
X719954D01*
Y489857D01*
X718954D01*
X724953Y487858D02*
X726952D01*
X727951Y486858D01*
Y483859D01*
X724953D01*
X723953Y484859D01*
X724953Y485858D01*
X727951D01*
X729951Y487858D02*
Y484859D01*
X730950Y483859D01*
X733950D01*
Y482859D01*
X732950Y481860D01*
X731950D01*
X733950Y483859D02*
Y487858D01*
X763944Y495859D02*
Y501857D01*
X765944Y499858D01*
X767943Y501857D01*
Y495859D01*
X770942Y499858D02*
X772941D01*
X773941Y498858D01*
Y495859D01*
X770942D01*
X769942Y496859D01*
X770942Y497858D01*
X773941D01*
X776940Y500857D02*
Y499858D01*
X775941D01*
X777940D01*
X776940D01*
Y496859D01*
X777940Y495859D01*
X783938D02*
X781939D01*
X780939Y496859D01*
Y498858D01*
X781939Y499858D01*
X783938D01*
X784938Y498858D01*
Y497858D01*
X780939D01*
X786937Y499858D02*
Y495859D01*
Y497858D01*
X787937Y498858D01*
X788936Y499858D01*
X789936D01*
X792935Y495859D02*
X794934D01*
X793935D01*
Y499858D01*
X792935D01*
X798933D02*
X800932D01*
X801932Y498858D01*
Y495859D01*
X798933D01*
X797933Y496859D01*
X798933Y497858D01*
X801932D01*
X803931Y495859D02*
X805931D01*
X804931D01*
Y501857D01*
X803931D01*
X767943Y428857D02*
X766943Y429857D01*
X764944D01*
X763944Y428857D01*
Y427858D01*
X764944Y426858D01*
X766943D01*
X767943Y425858D01*
Y424859D01*
X766943Y423859D01*
X764944D01*
X763944Y424859D01*
X770942Y423859D02*
X772941D01*
X773941Y424859D01*
Y426858D01*
X772941Y427858D01*
X770942D01*
X769942Y426858D01*
Y424859D01*
X770942Y423859D01*
X775941D02*
X777940D01*
X776940D01*
Y429857D01*
X775941D01*
X784938D02*
Y423859D01*
X781939D01*
X780939Y424859D01*
Y426858D01*
X781939Y427858D01*
X784938D01*
X789936Y423859D02*
X787937D01*
X786937Y424859D01*
Y426858D01*
X787937Y427858D01*
X789936D01*
X790936Y426858D01*
Y425858D01*
X786937D01*
X792935Y427858D02*
Y423859D01*
Y425858D01*
X793935Y426858D01*
X794934Y427858D01*
X795934D01*
X804931Y423859D02*
Y429857D01*
X807930D01*
X808930Y428857D01*
Y426858D01*
X807930Y425858D01*
X804931D01*
X806931D02*
X808930Y423859D01*
X813928D02*
X811929D01*
X810929Y424859D01*
Y426858D01*
X811929Y427858D01*
X813928D01*
X814928Y426858D01*
Y425858D01*
X810929D01*
X816927Y423859D02*
X819926D01*
X820926Y424859D01*
X819926Y425858D01*
X817927D01*
X816927Y426858D01*
X817927Y427858D01*
X820926D01*
X822925Y423859D02*
X824925D01*
X823925D01*
Y427858D01*
X822925D01*
X827924Y423859D02*
X830923D01*
X831922Y424859D01*
X830923Y425858D01*
X828923D01*
X827924Y426858D01*
X828923Y427858D01*
X831922D01*
X834921Y428857D02*
Y427858D01*
X833922D01*
X835921D01*
X834921D01*
Y424859D01*
X835921Y423859D01*
X767943Y440857D02*
X766943Y441857D01*
X764944D01*
X763944Y440857D01*
Y436859D01*
X764944Y435859D01*
X766943D01*
X767943Y436859D01*
X770942Y435859D02*
X772941D01*
X773941Y436859D01*
Y438858D01*
X772941Y439858D01*
X770942D01*
X769942Y438858D01*
Y436859D01*
X770942Y435859D01*
X775941Y433860D02*
Y439858D01*
X778939D01*
X779939Y438858D01*
Y436859D01*
X778939Y435859D01*
X775941D01*
X781939Y433860D02*
Y439858D01*
X784938D01*
X785937Y438858D01*
Y436859D01*
X784938Y435859D01*
X781939D01*
X790936D02*
X788936D01*
X787937Y436859D01*
Y438858D01*
X788936Y439858D01*
X790936D01*
X791935Y438858D01*
Y437858D01*
X787937D01*
X793935Y439858D02*
Y435859D01*
Y437858D01*
X794934Y438858D01*
X795934Y439858D01*
X796934D01*
X767943Y453857D02*
X763944D01*
Y450858D01*
X765944D01*
X763944D01*
Y447859D01*
X769942D02*
Y453857D01*
X772941D01*
X773941Y452857D01*
Y450858D01*
X772941Y449858D01*
X769942D01*
X771942D02*
X773941Y447859D01*
X775941Y450858D02*
X779939D01*
X784938Y447859D02*
Y453857D01*
X781939Y450858D01*
X785937D01*
X767943Y464857D02*
X766943Y465857D01*
X764944D01*
X763944Y464857D01*
Y460859D01*
X764944Y459859D01*
X766943D01*
X767943Y460859D01*
X770942Y459859D02*
X772941D01*
X773941Y460859D01*
Y462858D01*
X772941Y463858D01*
X770942D01*
X769942Y462858D01*
Y460859D01*
X770942Y459859D01*
X775941Y457860D02*
Y463858D01*
X778939D01*
X779939Y462858D01*
Y460859D01*
X778939Y459859D01*
X775941D01*
X781939Y457860D02*
Y463858D01*
X784938D01*
X785937Y462858D01*
Y460859D01*
X784938Y459859D01*
X781939D01*
X790936D02*
X788936D01*
X787937Y460859D01*
Y462858D01*
X788936Y463858D01*
X790936D01*
X791935Y462858D01*
Y461858D01*
X787937D01*
X793935Y463858D02*
Y459859D01*
Y461858D01*
X794934Y462858D01*
X795934Y463858D01*
X796934D01*
X767943Y476857D02*
X766943Y477857D01*
X764944D01*
X763944Y476857D01*
Y475858D01*
X764944Y474858D01*
X766943D01*
X767943Y473858D01*
Y472859D01*
X766943Y471859D01*
X764944D01*
X763944Y472859D01*
X770942Y471859D02*
X772941D01*
X773941Y472859D01*
Y474858D01*
X772941Y475858D01*
X770942D01*
X769942Y474858D01*
Y472859D01*
X770942Y471859D01*
X775941D02*
X777940D01*
X776940D01*
Y477857D01*
X775941D01*
X784938D02*
Y471859D01*
X781939D01*
X780939Y472859D01*
Y474858D01*
X781939Y475858D01*
X784938D01*
X789936Y471859D02*
X787937D01*
X786937Y472859D01*
Y474858D01*
X787937Y475858D01*
X789936D01*
X790936Y474858D01*
Y473858D01*
X786937D01*
X792935Y475858D02*
Y471859D01*
Y473858D01*
X793935Y474858D01*
X794934Y475858D01*
X795934D01*
X804931Y471859D02*
Y477857D01*
X807930D01*
X808930Y476857D01*
Y474858D01*
X807930Y473858D01*
X804931D01*
X806931D02*
X808930Y471859D01*
X813928D02*
X811929D01*
X810929Y472859D01*
Y474858D01*
X811929Y475858D01*
X813928D01*
X814928Y474858D01*
Y473858D01*
X810929D01*
X816927Y471859D02*
X819926D01*
X820926Y472859D01*
X819926Y473858D01*
X817927D01*
X816927Y474858D01*
X817927Y475858D01*
X820926D01*
X822925Y471859D02*
X824925D01*
X823925D01*
Y475858D01*
X822925D01*
X827924Y471859D02*
X830923D01*
X831922Y472859D01*
X830923Y473858D01*
X828923D01*
X827924Y474858D01*
X828923Y475858D01*
X831922D01*
X834921Y476857D02*
Y475858D01*
X833922D01*
X835921D01*
X834921D01*
Y472859D01*
X835921Y471859D01*
X849921Y501857D02*
X853920D01*
X851920D01*
Y495859D01*
X855919Y501857D02*
Y495859D01*
Y498858D01*
X856919Y499858D01*
X858918D01*
X859918Y498858D01*
Y495859D01*
X861917D02*
X863916D01*
X862917D01*
Y499858D01*
X861917D01*
X870914D02*
X867915D01*
X866916Y498858D01*
Y496859D01*
X867915Y495859D01*
X870914D01*
X872914D02*
Y501857D01*
Y497858D02*
X875913Y499858D01*
X872914Y497858D02*
X875913Y495859D01*
X878912D02*
Y499858D01*
X881911D01*
X882910Y498858D01*
Y495859D01*
X887909D02*
X885909D01*
X884910Y496859D01*
Y498858D01*
X885909Y499858D01*
X887909D01*
X888908Y498858D01*
Y497858D01*
X884910D01*
X890908Y495859D02*
X893907D01*
X894907Y496859D01*
X893907Y497858D01*
X891908D01*
X890908Y498858D01*
X891908Y499858D01*
X894907D01*
X896906Y495859D02*
X899905D01*
X900905Y496859D01*
X899905Y497858D01*
X897906D01*
X896906Y498858D01*
X897906Y499858D01*
X900905D01*
X849921Y428857D02*
X850921Y429857D01*
X852920D01*
X853920Y428857D01*
Y424859D01*
X852920Y423859D01*
X850921D01*
X849921Y424859D01*
Y428857D01*
X855919Y423859D02*
Y424859D01*
X856919D01*
Y423859D01*
X855919D01*
X863916D02*
Y429857D01*
X860917Y426858D01*
X864916D01*
X866916Y428857D02*
X867915Y429857D01*
X869915D01*
X870914Y428857D01*
Y424859D01*
X869915Y423859D01*
X867915D01*
X866916Y424859D01*
Y428857D01*
X872914Y423859D02*
Y427858D01*
X873913D01*
X874913Y426858D01*
Y423859D01*
Y426858D01*
X875913Y427858D01*
X876912Y426858D01*
Y423859D01*
X878912D02*
X880911D01*
X879911D01*
Y427858D01*
X878912D01*
X883910Y423859D02*
X885909D01*
X884910D01*
Y429857D01*
X883910D01*
X849921Y435859D02*
X851920D01*
X850921D01*
Y441857D01*
X849921Y440857D01*
X854919Y435859D02*
Y436859D01*
X855919D01*
Y435859D01*
X854919D01*
X862917D02*
Y441857D01*
X859918Y438858D01*
X863916D01*
X865916Y440857D02*
X866916Y441857D01*
X868915D01*
X869915Y440857D01*
Y436859D01*
X868915Y435859D01*
X866916D01*
X865916Y436859D01*
Y440857D01*
X871914Y435859D02*
Y439858D01*
X872914D01*
X873913Y438858D01*
Y435859D01*
Y438858D01*
X874913Y439858D01*
X875913Y438858D01*
Y435859D01*
X877912D02*
X879911D01*
X878912D01*
Y439858D01*
X877912D01*
X882910Y435859D02*
X884910D01*
X883910D01*
Y441857D01*
X882910D01*
X853920Y453857D02*
X849921D01*
Y450858D01*
X851920Y451858D01*
X852920D01*
X853920Y450858D01*
Y448859D01*
X852920Y447859D01*
X850921D01*
X849921Y448859D01*
X855919Y452857D02*
X856919Y453857D01*
X858918D01*
X859918Y452857D01*
Y451858D01*
X858918Y450858D01*
X859918Y449858D01*
Y448859D01*
X858918Y447859D01*
X856919D01*
X855919Y448859D01*
Y449858D01*
X856919Y450858D01*
X855919Y451858D01*
Y452857D01*
X856919Y450858D02*
X858918D01*
X861917Y447859D02*
Y448859D01*
X862917D01*
Y447859D01*
X861917D01*
X869915D02*
Y453857D01*
X866916Y450858D01*
X870914D01*
X872914Y452857D02*
X873913Y453857D01*
X875913D01*
X876912Y452857D01*
Y448859D01*
X875913Y447859D01*
X873913D01*
X872914Y448859D01*
Y452857D01*
X878912Y447859D02*
Y451858D01*
X879911D01*
X880911Y450858D01*
Y447859D01*
Y450858D01*
X881911Y451858D01*
X882910Y450858D01*
Y447859D01*
X884910D02*
X886909D01*
X885909D01*
Y451858D01*
X884910D01*
X889908Y447859D02*
X891908D01*
X890908D01*
Y453857D01*
X889908D01*
X849921Y459859D02*
X851920D01*
X850921D01*
Y465857D01*
X849921Y464857D01*
X854919Y459859D02*
Y460859D01*
X855919D01*
Y459859D01*
X854919D01*
X862917D02*
Y465857D01*
X859918Y462858D01*
X863916D01*
X865916Y464857D02*
X866916Y465857D01*
X868915D01*
X869915Y464857D01*
Y460859D01*
X868915Y459859D01*
X866916D01*
X865916Y460859D01*
Y464857D01*
X871914Y459859D02*
Y463858D01*
X872914D01*
X873913Y462858D01*
Y459859D01*
Y462858D01*
X874913Y463858D01*
X875913Y462858D01*
Y459859D01*
X877912D02*
X879911D01*
X878912D01*
Y463858D01*
X877912D01*
X882910Y459859D02*
X884910D01*
X883910D01*
Y465857D01*
X882910D01*
X849921Y476857D02*
X850921Y477857D01*
X852920D01*
X853920Y476857D01*
Y472859D01*
X852920Y471859D01*
X850921D01*
X849921Y472859D01*
Y476857D01*
X855919Y471859D02*
Y472859D01*
X856919D01*
Y471859D01*
X855919D01*
X863916D02*
Y477857D01*
X860917Y474858D01*
X864916D01*
X866916Y476857D02*
X867915Y477857D01*
X869915D01*
X870914Y476857D01*
Y472859D01*
X869915Y471859D01*
X867915D01*
X866916Y472859D01*
Y476857D01*
X872914Y471859D02*
Y475858D01*
X873913D01*
X874913Y474858D01*
Y471859D01*
Y474858D01*
X875913Y475858D01*
X876912Y474858D01*
Y471859D01*
X878912D02*
X880911D01*
X879911D01*
Y475858D01*
X878912D01*
X883910Y471859D02*
X885909D01*
X884910D01*
Y477857D01*
X883910D01*
X918903Y500857D02*
X917904Y501857D01*
X915904D01*
X914905Y500857D01*
Y496859D01*
X915904Y495859D01*
X917904D01*
X918903Y496859D01*
X921902Y495859D02*
X923902D01*
X924901Y496859D01*
Y498858D01*
X923902Y499858D01*
X921902D01*
X920903Y498858D01*
Y496859D01*
X921902Y495859D01*
X926901D02*
Y499858D01*
X929900D01*
X930899Y498858D01*
Y495859D01*
X932899D02*
X935898D01*
X936897Y496859D01*
X935898Y497858D01*
X933898D01*
X932899Y498858D01*
X933898Y499858D01*
X936897D01*
X939896Y500857D02*
Y499858D01*
X938897D01*
X940896D01*
X939896D01*
Y496859D01*
X940896Y495859D01*
X944895Y499858D02*
X946894D01*
X947894Y498858D01*
Y495859D01*
X944895D01*
X943895Y496859D01*
X944895Y497858D01*
X947894D01*
X949893Y495859D02*
Y499858D01*
X952892D01*
X953892Y498858D01*
Y495859D01*
X956891Y500857D02*
Y499858D01*
X955891D01*
X957891D01*
X956891D01*
Y496859D01*
X957891Y495859D01*
X914905Y428857D02*
X915904Y429857D01*
X917904D01*
X918903Y428857D01*
Y427858D01*
X917904Y426858D01*
X916904D01*
X917904D01*
X918903Y425858D01*
Y424859D01*
X917904Y423859D01*
X915904D01*
X914905Y424859D01*
X920903Y423859D02*
Y424859D01*
X921902D01*
Y423859D01*
X920903D01*
X929900Y429857D02*
X925901D01*
Y426858D01*
X927900Y427858D01*
X928900D01*
X929900Y426858D01*
Y424859D01*
X928900Y423859D01*
X926901D01*
X925901Y424859D01*
X917904Y447859D02*
Y453857D01*
X914905Y450858D01*
X918903D01*
X920903Y447859D02*
Y448859D01*
X921902D01*
Y447859D01*
X920903D01*
X925901Y452857D02*
X926901Y453857D01*
X928900D01*
X929900Y452857D01*
Y451858D01*
X928900Y450858D01*
X929900Y449858D01*
Y448859D01*
X928900Y447859D01*
X926901D01*
X925901Y448859D01*
Y449858D01*
X926901Y450858D01*
X925901Y451858D01*
Y452857D01*
X926901Y450858D02*
X928900D01*
X914905Y476857D02*
X915904Y477857D01*
X917904D01*
X918903Y476857D01*
Y475858D01*
X917904Y474858D01*
X916904D01*
X917904D01*
X918903Y473858D01*
Y472859D01*
X917904Y471859D01*
X915904D01*
X914905Y472859D01*
X920903Y471859D02*
Y472859D01*
X921902D01*
Y471859D01*
X920903D01*
X929900Y477857D02*
X925901D01*
Y474858D01*
X927900Y475858D01*
X928900D01*
X929900Y474858D01*
Y472859D01*
X928900Y471859D01*
X926901D01*
X925901Y472859D01*
X971891Y501857D02*
Y495859D01*
X974890D01*
X975889Y496859D01*
Y497858D01*
X974890Y498858D01*
X971891D01*
X974890D01*
X975889Y499858D01*
Y500857D01*
X974890Y501857D01*
X971891D01*
X978888Y495859D02*
X980888D01*
X981887Y496859D01*
Y498858D01*
X980888Y499858D01*
X978888D01*
X977889Y498858D01*
Y496859D01*
X978888Y495859D01*
X984886Y499858D02*
X986886D01*
X987885Y498858D01*
Y495859D01*
X984886D01*
X983887Y496859D01*
X984886Y497858D01*
X987885D01*
X989885Y499858D02*
Y495859D01*
Y497858D01*
X990884Y498858D01*
X991884Y499858D01*
X992884D01*
X999882Y501857D02*
Y495859D01*
X996883D01*
X995883Y496859D01*
Y498858D01*
X996883Y499858D01*
X999882D01*
X1007879Y501857D02*
Y495859D01*
X1011878D01*
X1014877Y499858D02*
X1016876D01*
X1017876Y498858D01*
Y495859D01*
X1014877D01*
X1013877Y496859D01*
X1014877Y497858D01*
X1017876D01*
X1019875Y499858D02*
Y496859D01*
X1020875Y495859D01*
X1023874D01*
Y494859D01*
X1022874Y493860D01*
X1021875D01*
X1023874Y495859D02*
Y499858D01*
X1028872Y495859D02*
X1026873D01*
X1025873Y496859D01*
Y498858D01*
X1026873Y499858D01*
X1028872D01*
X1029872Y498858D01*
Y497858D01*
X1025873D01*
X1031871Y499858D02*
Y495859D01*
Y497858D01*
X1032871Y498858D01*
X1033871Y499858D01*
X1034870D01*
X1047866Y500857D02*
X1046866Y501857D01*
X1044867D01*
X1043867Y500857D01*
Y499858D01*
X1044867Y498858D01*
X1046866D01*
X1047866Y497858D01*
Y496859D01*
X1046866Y495859D01*
X1044867D01*
X1043867Y496859D01*
X1050865Y500857D02*
Y499858D01*
X1049866D01*
X1051865D01*
X1050865D01*
Y496859D01*
X1051865Y495859D01*
X1055863Y499858D02*
X1057863D01*
X1058862Y498858D01*
Y495859D01*
X1055863D01*
X1054864Y496859D01*
X1055863Y497858D01*
X1058862D01*
X1064861Y499858D02*
X1061862D01*
X1060862Y498858D01*
Y496859D01*
X1061862Y495859D01*
X1064861D01*
X1066860D02*
Y501857D01*
Y497858D02*
X1069859Y499858D01*
X1066860Y497858D02*
X1069859Y495859D01*
D51*
X625631Y275500D02*
X1013528D01*
X625631Y170500D02*
X1013528D01*
X625631Y155500D02*
X1013528D01*
Y290500D01*
X625631D02*
X1013528D01*
X625631Y155500D02*
Y290500D01*
X935648Y155500D02*
Y290500D01*
X885060Y155500D02*
Y290500D01*
X750500Y155500D02*
Y290500D01*
X680719Y155500D02*
Y290500D01*
X623979Y492859D02*
X1077859D01*
X623979Y504859D02*
X1077859D01*
X623979Y408859D02*
Y504859D01*
Y408859D02*
X664970D01*
X623979Y420859D02*
X664970D01*
X623979Y432859D02*
X664970D01*
X623979Y444859D02*
X664970D01*
X623979Y456859D02*
X664970D01*
X623979Y468859D02*
X664970D01*
X623979Y480859D02*
X664970D01*
Y408859D02*
Y504859D01*
Y408859D02*
X757944D01*
X664970Y420859D02*
X757944D01*
X664970Y432859D02*
X757944D01*
X664970Y444859D02*
X757944D01*
X664970Y456859D02*
X757944D01*
X664970Y468859D02*
X757944D01*
X664970Y480859D02*
X757944D01*
Y408859D02*
Y504859D01*
Y408859D02*
X843921D01*
X757944Y420859D02*
X843921D01*
X757944Y432859D02*
X843921D01*
X757944Y444859D02*
X843921D01*
X757944Y456859D02*
X843921D01*
X757944Y468859D02*
X843921D01*
X757944Y480859D02*
X843921D01*
Y408859D02*
Y504859D01*
Y408859D02*
X908905D01*
X843921Y420859D02*
X908905D01*
X843921Y432859D02*
X908905D01*
X843921Y444859D02*
X908905D01*
X843921Y456859D02*
X908905D01*
X843921Y468859D02*
X908905D01*
X843921Y480859D02*
X908905D01*
Y408859D02*
Y504859D01*
Y408859D02*
X965891D01*
X908905Y420859D02*
X965891D01*
X908905Y432859D02*
X965891D01*
X908905Y444859D02*
X965891D01*
X908905Y456859D02*
X965891D01*
X908905Y468859D02*
X965891D01*
X908905Y480859D02*
X965891D01*
Y408859D02*
Y504859D01*
Y408859D02*
X1077859D01*
X965891Y420859D02*
X1077859D01*
X965891Y432859D02*
X1077859D01*
X965891Y444859D02*
X1077859D01*
X965891Y456859D02*
X1077859D01*
X965891Y468859D02*
X1077859D01*
X965891Y480859D02*
X1077859D01*
Y408859D02*
Y504859D01*
D65*
X237500Y15000D02*
G03*
X237500Y15000I-1000J0D01*
G01*
X227500D02*
G03*
X227500Y15000I-1000J0D01*
G01*
X217500D02*
G03*
X217500Y15000I-1000J0D01*
G01*
X207500D02*
G03*
X207500Y15000I-1000J0D01*
G01*
X197500D02*
G03*
X197500Y15000I-1000J0D01*
G01*
X187500D02*
G03*
X187500Y15000I-1000J0D01*
G01*
X26000Y72000D02*
G03*
X26000Y72000I-1000J0D01*
G01*
Y82000D02*
G03*
X26000Y82000I-1000J0D01*
G01*
X36000Y72000D02*
G03*
X36000Y72000I-1000J0D01*
G01*
Y82000D02*
G03*
X36000Y82000I-1000J0D01*
G01*
X46000Y72000D02*
G03*
X46000Y72000I-1000J0D01*
G01*
Y82000D02*
G03*
X46000Y82000I-1000J0D01*
G01*
X56000Y72000D02*
G03*
X56000Y72000I-1000J0D01*
G01*
Y82000D02*
G03*
X56000Y82000I-1000J0D01*
G01*
X66000Y72000D02*
G03*
X66000Y72000I-1000J0D01*
G01*
Y82000D02*
G03*
X66000Y82000I-1000J0D01*
G01*
X76000Y72000D02*
G03*
X76000Y72000I-1000J0D01*
G01*
Y82000D02*
G03*
X76000Y82000I-1000J0D01*
G01*
X86000Y72000D02*
G03*
X86000Y72000I-1000J0D01*
G01*
Y82000D02*
G03*
X86000Y82000I-1000J0D01*
G01*
X96000Y72000D02*
G03*
X96000Y72000I-1000J0D01*
G01*
Y82000D02*
G03*
X96000Y82000I-1000J0D01*
G01*
X106000Y72000D02*
G03*
X106000Y72000I-1000J0D01*
G01*
Y82000D02*
G03*
X106000Y82000I-1000J0D01*
G01*
X116000Y72000D02*
G03*
X116000Y72000I-1000J0D01*
G01*
Y82000D02*
G03*
X116000Y82000I-1000J0D01*
G01*
X126000Y72000D02*
G03*
X126000Y72000I-1000J0D01*
G01*
Y82000D02*
G03*
X126000Y82000I-1000J0D01*
G01*
X136000Y72000D02*
G03*
X136000Y72000I-1000J0D01*
G01*
Y82000D02*
G03*
X136000Y82000I-1000J0D01*
G01*
X146000Y72000D02*
G03*
X146000Y72000I-1000J0D01*
G01*
Y82000D02*
G03*
X146000Y82000I-1000J0D01*
G01*
X156000Y72000D02*
G03*
X156000Y72000I-1000J0D01*
G01*
Y82000D02*
G03*
X156000Y82000I-1000J0D01*
G01*
X166000Y72000D02*
G03*
X166000Y72000I-1000J0D01*
G01*
Y82000D02*
G03*
X166000Y82000I-1000J0D01*
G01*
X176000Y72000D02*
G03*
X176000Y72000I-1000J0D01*
G01*
Y82000D02*
G03*
X176000Y82000I-1000J0D01*
G01*
X186000Y72000D02*
G03*
X186000Y72000I-1000J0D01*
G01*
Y82000D02*
G03*
X186000Y82000I-1000J0D01*
G01*
X196000Y72000D02*
G03*
X196000Y72000I-1000J0D01*
G01*
Y82000D02*
G03*
X196000Y82000I-1000J0D01*
G01*
X206000Y72000D02*
G03*
X206000Y72000I-1000J0D01*
G01*
Y82000D02*
G03*
X206000Y82000I-1000J0D01*
G01*
X26000Y312000D02*
G03*
X26000Y312000I-1000J0D01*
G01*
Y322000D02*
G03*
X26000Y322000I-1000J0D01*
G01*
X36000Y312000D02*
G03*
X36000Y312000I-1000J0D01*
G01*
Y322000D02*
G03*
X36000Y322000I-1000J0D01*
G01*
X46000Y312000D02*
G03*
X46000Y312000I-1000J0D01*
G01*
Y322000D02*
G03*
X46000Y322000I-1000J0D01*
G01*
X56000Y312000D02*
G03*
X56000Y312000I-1000J0D01*
G01*
Y322000D02*
G03*
X56000Y322000I-1000J0D01*
G01*
X66000Y312000D02*
G03*
X66000Y312000I-1000J0D01*
G01*
Y322000D02*
G03*
X66000Y322000I-1000J0D01*
G01*
X76000Y312000D02*
G03*
X76000Y312000I-1000J0D01*
G01*
Y322000D02*
G03*
X76000Y322000I-1000J0D01*
G01*
X86000Y312000D02*
G03*
X86000Y312000I-1000J0D01*
G01*
Y322000D02*
G03*
X86000Y322000I-1000J0D01*
G01*
X96000Y312000D02*
G03*
X96000Y312000I-1000J0D01*
G01*
Y322000D02*
G03*
X96000Y322000I-1000J0D01*
G01*
X106000Y312000D02*
G03*
X106000Y312000I-1000J0D01*
G01*
Y322000D02*
G03*
X106000Y322000I-1000J0D01*
G01*
X116000Y312000D02*
G03*
X116000Y312000I-1000J0D01*
G01*
Y322000D02*
G03*
X116000Y322000I-1000J0D01*
G01*
X126000Y312000D02*
G03*
X126000Y312000I-1000J0D01*
G01*
Y322000D02*
G03*
X126000Y322000I-1000J0D01*
G01*
X136000Y312000D02*
G03*
X136000Y312000I-1000J0D01*
G01*
Y322000D02*
G03*
X136000Y322000I-1000J0D01*
G01*
X146000Y312000D02*
G03*
X146000Y312000I-1000J0D01*
G01*
Y322000D02*
G03*
X146000Y322000I-1000J0D01*
G01*
X156000Y312000D02*
G03*
X156000Y312000I-1000J0D01*
G01*
Y322000D02*
G03*
X156000Y322000I-1000J0D01*
G01*
X166000Y312000D02*
G03*
X166000Y312000I-1000J0D01*
G01*
Y322000D02*
G03*
X166000Y322000I-1000J0D01*
G01*
X176000Y312000D02*
G03*
X176000Y312000I-1000J0D01*
G01*
Y322000D02*
G03*
X176000Y322000I-1000J0D01*
G01*
X186000Y312000D02*
G03*
X186000Y312000I-1000J0D01*
G01*
Y322000D02*
G03*
X186000Y322000I-1000J0D01*
G01*
X196000Y312000D02*
G03*
X196000Y312000I-1000J0D01*
G01*
Y322000D02*
G03*
X196000Y322000I-1000J0D01*
G01*
X206000Y312000D02*
G03*
X206000Y312000I-1000J0D01*
G01*
Y322000D02*
G03*
X206000Y322000I-1000J0D01*
G01*
X283500Y22500D02*
G03*
X283500Y22500I-1000J0D01*
G01*
X293500D02*
G03*
X293500Y22500I-1000J0D01*
G01*
X303500D02*
G03*
X303500Y22500I-1000J0D01*
G01*
X313500D02*
G03*
X313500Y22500I-1000J0D01*
G01*
X323500D02*
G03*
X323500Y22500I-1000J0D01*
G01*
X333500D02*
G03*
X333500Y22500I-1000J0D01*
G01*
X576000Y58500D02*
G03*
X576000Y58500I-1000J0D01*
G01*
Y68500D02*
G03*
X576000Y68500I-1000J0D01*
G01*
Y78500D02*
G03*
X576000Y78500I-1000J0D01*
G01*
Y88500D02*
G03*
X576000Y88500I-1000J0D01*
G01*
X424000Y377500D02*
G03*
X424000Y377500I-1000J0D01*
G01*
X414000D02*
G03*
X414000Y377500I-1000J0D01*
G01*
X404000D02*
G03*
X404000Y377500I-1000J0D01*
G01*
X394000D02*
G03*
X394000Y377500I-1000J0D01*
G01*
X384000D02*
G03*
X384000Y377500I-1000J0D01*
G01*
X374000D02*
G03*
X374000Y377500I-1000J0D01*
G01*
X364000D02*
G03*
X364000Y377500I-1000J0D01*
G01*
X354000D02*
G03*
X354000Y377500I-1000J0D01*
G01*
X344000D02*
G03*
X344000Y377500I-1000J0D01*
G01*
X334000D02*
G03*
X334000Y377500I-1000J0D01*
G01*
X324000D02*
G03*
X324000Y377500I-1000J0D01*
G01*
X314000D02*
G03*
X314000Y377500I-1000J0D01*
G01*
X304000D02*
G03*
X304000Y377500I-1000J0D01*
G01*
X294000D02*
G03*
X294000Y377500I-1000J0D01*
G01*
X284000D02*
G03*
X284000Y377500I-1000J0D01*
G01*
X274000D02*
G03*
X274000Y377500I-1000J0D01*
G01*
X409000Y23000D02*
G03*
X409000Y23000I-1000J0D01*
G01*
X399000D02*
G03*
X399000Y23000I-1000J0D01*
G01*
X389000D02*
G03*
X389000Y23000I-1000J0D01*
G01*
X379000D02*
G03*
X379000Y23000I-1000J0D01*
G01*
X369000D02*
G03*
X369000Y23000I-1000J0D01*
G01*
X359000D02*
G03*
X359000Y23000I-1000J0D01*
G01*
X24000Y23500D02*
X26000D01*
Y25500D01*
X24000D02*
X26000D01*
X24000Y23500D02*
Y25500D01*
Y373500D02*
X26000D01*
Y375500D01*
X24000D02*
X26000D01*
X24000Y373500D02*
Y375500D01*
X574000Y23500D02*
X576000D01*
Y25500D01*
X574000D02*
X576000D01*
X574000Y23500D02*
Y25500D01*
Y373500D02*
X576000D01*
Y375500D01*
X574000D02*
X576000D01*
X574000Y373500D02*
Y375500D01*
X250346Y377000D02*
X250847D01*
X250346D02*
Y378000D01*
X250847D01*
Y378500D01*
X251847D01*
Y378000D02*
Y378500D01*
Y378000D02*
X252346D01*
Y377000D02*
Y378000D01*
X251847Y377000D02*
X252346D01*
X251847Y376500D02*
Y377000D01*
X250847Y376500D02*
X251847D01*
X250847D02*
Y377000D01*
X250346Y254953D02*
X250847D01*
X250346D02*
Y255953D01*
X250847D01*
Y256453D01*
X251847D01*
Y255953D02*
Y256453D01*
Y255953D02*
X252346D01*
Y254953D02*
Y255953D01*
X251847Y254953D02*
X252346D01*
X251847Y254453D02*
Y254953D01*
X250847Y254453D02*
X251847D01*
X250847D02*
Y254953D01*
X545622D02*
X546122D01*
X545622D02*
Y255953D01*
X546122D01*
Y256453D01*
X547122D01*
Y255953D02*
Y256453D01*
Y255953D02*
X547622D01*
Y254953D02*
Y255953D01*
X547122Y254953D02*
X547622D01*
X547122Y254453D02*
Y254953D01*
X546122Y254453D02*
X547122D01*
X546122D02*
Y254953D01*
X545622Y377000D02*
X546122D01*
X545622D02*
Y378000D01*
X546122D01*
Y378500D01*
X547122D01*
Y378000D02*
Y378500D01*
Y378000D02*
X547622D01*
Y377000D02*
Y378000D01*
X547122Y377000D02*
X547622D01*
X547122Y376500D02*
Y377000D01*
X546122Y376500D02*
X547122D01*
X546122D02*
Y377000D01*
X17000Y292500D02*
Y293000D01*
X17500Y293500D01*
X17000Y294000D02*
X17500Y293500D01*
X17000Y294000D02*
Y294500D01*
X17500D01*
X18000Y294000D01*
X18500Y294500D01*
X19000D01*
Y294000D02*
Y294500D01*
X18500Y293500D02*
X19000Y294000D01*
X18500Y293500D02*
X19000Y293000D01*
Y292500D02*
Y293000D01*
X18500Y292500D02*
X19000D01*
X18000Y293000D02*
X18500Y292500D01*
X17500D02*
X18000Y293000D01*
X17000Y292500D02*
X17500D01*
X200500Y50000D02*
Y50500D01*
X201000Y51000D01*
X200500Y51500D02*
X201000Y51000D01*
X200500Y51500D02*
Y52000D01*
X201000D01*
X201500Y51500D01*
X202000Y52000D01*
X202500D01*
Y51500D02*
Y52000D01*
X202000Y51000D02*
X202500Y51500D01*
X202000Y51000D02*
X202500Y50500D01*
Y50000D02*
Y50500D01*
X202000Y50000D02*
X202500D01*
X201500Y50500D02*
X202000Y50000D01*
X201000D02*
X201500Y50500D01*
X200500Y50000D02*
X201000D01*
X219000Y54000D02*
Y54500D01*
X219500Y55000D01*
X219000Y55500D02*
X219500Y55000D01*
X219000Y55500D02*
Y56000D01*
X219500D01*
X220000Y55500D01*
X220500Y56000D01*
X221000D01*
Y55500D02*
Y56000D01*
X220500Y55000D02*
X221000Y55500D01*
X220500Y55000D02*
X221000Y54500D01*
Y54000D02*
Y54500D01*
X220500Y54000D02*
X221000D01*
X220000Y54500D02*
X220500Y54000D01*
X219500D02*
X220000Y54500D01*
X219000Y54000D02*
X219500D01*
X215500Y89000D02*
Y89500D01*
X216000Y90000D01*
X215500Y90500D02*
X216000Y90000D01*
X215500Y90500D02*
Y91000D01*
X216000D01*
X216500Y90500D01*
X217000Y91000D01*
X217500D01*
Y90500D02*
Y91000D01*
X217000Y90000D02*
X217500Y90500D01*
X217000Y90000D02*
X217500Y89500D01*
Y89000D02*
Y89500D01*
X217000Y89000D02*
X217500D01*
X216500Y89500D02*
X217000Y89000D01*
X216000D02*
X216500Y89500D01*
X215500Y89000D02*
X216000D01*
X232475Y79025D02*
Y79525D01*
X232975Y80025D01*
X232475Y80525D02*
X232975Y80025D01*
X232475Y80525D02*
Y81025D01*
X232975D01*
X233475Y80525D01*
X233975Y81025D01*
X234475D01*
Y80525D02*
Y81025D01*
X233975Y80025D02*
X234475Y80525D01*
X233975Y80025D02*
X234475Y79525D01*
Y79025D02*
Y79525D01*
X233975Y79025D02*
X234475D01*
X233475Y79525D02*
X233975Y79025D01*
X232975D02*
X233475Y79525D01*
X232475Y79025D02*
X232975D01*
X233500Y337500D02*
Y338000D01*
X234000Y338500D01*
X233500Y339000D02*
X234000Y338500D01*
X233500Y339000D02*
Y339500D01*
X234000D01*
X234500Y339000D01*
X235000Y339500D01*
X235500D01*
Y339000D02*
Y339500D01*
X235000Y338500D02*
X235500Y339000D01*
X235000Y338500D02*
X235500Y338000D01*
Y337500D02*
Y338000D01*
X235000Y337500D02*
X235500D01*
X234500Y338000D02*
X235000Y337500D01*
X234000D02*
X234500Y338000D01*
X233500Y337500D02*
X234000D01*
X285500Y84500D02*
Y85000D01*
X286000Y85500D01*
X285500Y86000D02*
X286000Y85500D01*
X285500Y86000D02*
Y86500D01*
X286000D01*
X286500Y86000D01*
X287000Y86500D01*
X287500D01*
Y86000D02*
Y86500D01*
X287000Y85500D02*
X287500Y86000D01*
X287000Y85500D02*
X287500Y85000D01*
Y84500D02*
Y85000D01*
X287000Y84500D02*
X287500D01*
X286500Y85000D02*
X287000Y84500D01*
X286000D02*
X286500Y85000D01*
X285500Y84500D02*
X286000D01*
X333000D02*
Y85000D01*
X333500Y85500D01*
X333000Y86000D02*
X333500Y85500D01*
X333000Y86000D02*
Y86500D01*
X333500D01*
X334000Y86000D01*
X334500Y86500D01*
X335000D01*
Y86000D02*
Y86500D01*
X334500Y85500D02*
X335000Y86000D01*
X334500Y85500D02*
X335000Y85000D01*
Y84500D02*
Y85000D01*
X334500Y84500D02*
X335000D01*
X334000Y85000D02*
X334500Y84500D01*
X333500D02*
X334000Y85000D01*
X333000Y84500D02*
X333500D01*
X9000Y328500D02*
Y329000D01*
X9500Y329500D01*
X9000Y330000D02*
X9500Y329500D01*
X9000Y330000D02*
Y330500D01*
X9500D01*
X10000Y330000D01*
X10500Y330500D01*
X11000D01*
Y330000D02*
Y330500D01*
X10500Y329500D02*
X11000Y330000D01*
X10500Y329500D02*
X11000Y329000D01*
Y328500D02*
Y329000D01*
X10500Y328500D02*
X11000D01*
X10000Y329000D02*
X10500Y328500D01*
X9500D02*
X10000Y329000D01*
X9000Y328500D02*
X9500D01*
X12500Y5500D02*
Y6000D01*
X13000Y6500D01*
X12500Y7000D02*
X13000Y6500D01*
X12500Y7000D02*
Y7500D01*
X13000D01*
X13500Y7000D01*
X14000Y7500D01*
X14500D01*
Y7000D02*
Y7500D01*
X14000Y6500D02*
X14500Y7000D01*
X14000Y6500D02*
X14500Y6000D01*
Y5500D02*
Y6000D01*
X14000Y5500D02*
X14500D01*
X13500Y6000D02*
X14000Y5500D01*
X13000D02*
X13500Y6000D01*
X12500Y5500D02*
X13000D01*
X5500Y334500D02*
Y335000D01*
X6000Y335500D01*
X5500Y336000D02*
X6000Y335500D01*
X5500Y336000D02*
Y336500D01*
X6000D01*
X6500Y336000D01*
X7000Y336500D01*
X7500D01*
Y336000D02*
Y336500D01*
X7000Y335500D02*
X7500Y336000D01*
X7000Y335500D02*
X7500Y335000D01*
Y334500D02*
Y335000D01*
X7000Y334500D02*
X7500D01*
X6500Y335000D02*
X7000Y334500D01*
X6000D02*
X6500Y335000D01*
X5500Y334500D02*
X6000D01*
X73500D02*
Y335000D01*
X74000Y335500D01*
X73500Y336000D02*
X74000Y335500D01*
X73500Y336000D02*
Y336500D01*
X74000D01*
X74500Y336000D01*
X75000Y336500D01*
X75500D01*
Y336000D02*
Y336500D01*
X75000Y335500D02*
X75500Y336000D01*
X75000Y335500D02*
X75500Y335000D01*
Y334500D02*
Y335000D01*
X75000Y334500D02*
X75500D01*
X74500Y335000D02*
X75000Y334500D01*
X74000D02*
X74500Y335000D01*
X73500Y334500D02*
X74000D01*
X372500Y152500D02*
Y153000D01*
X373000Y153500D01*
X372500Y154000D02*
X373000Y153500D01*
X372500Y154000D02*
Y154500D01*
X373000D01*
X373500Y154000D01*
X374000Y154500D01*
X374500D01*
Y154000D02*
Y154500D01*
X374000Y153500D02*
X374500Y154000D01*
X374000Y153500D02*
X374500Y153000D01*
Y152500D02*
Y153000D01*
X374000Y152500D02*
X374500D01*
X373500Y153000D02*
X374000Y152500D01*
X373000D02*
X373500Y153000D01*
X372500Y152500D02*
X373000D01*
X84500Y153000D02*
Y153500D01*
X85000Y154000D01*
X84500Y154500D02*
X85000Y154000D01*
X84500Y154500D02*
Y155000D01*
X85000D01*
X85500Y154500D01*
X86000Y155000D01*
X86500D01*
Y154500D02*
Y155000D01*
X86000Y154000D02*
X86500Y154500D01*
X86000Y154000D02*
X86500Y153500D01*
Y153000D02*
Y153500D01*
X86000Y153000D02*
X86500D01*
X85500Y153500D02*
X86000Y153000D01*
X85000D02*
X85500Y153500D01*
X84500Y153000D02*
X85000D01*
X378500Y163500D02*
Y164000D01*
X379000Y164500D01*
X378500Y165000D02*
X379000Y164500D01*
X378500Y165000D02*
Y165500D01*
X379000D01*
X379500Y165000D01*
X380000Y165500D01*
X380500D01*
Y165000D02*
Y165500D01*
X380000Y164500D02*
X380500Y165000D01*
X380000Y164500D02*
X380500Y164000D01*
Y163500D02*
Y164000D01*
X380000Y163500D02*
X380500D01*
X379500Y164000D02*
X380000Y163500D01*
X379000D02*
X379500Y164000D01*
X378500Y163500D02*
X379000D01*
X94000D02*
Y164000D01*
X94500Y164500D01*
X94000Y165000D02*
X94500Y164500D01*
X94000Y165000D02*
Y165500D01*
X94500D01*
X95000Y165000D01*
X95500Y165500D01*
X96000D01*
Y165000D02*
Y165500D01*
X95500Y164500D02*
X96000Y165000D01*
X95500Y164500D02*
X96000Y164000D01*
Y163500D02*
Y164000D01*
X95500Y163500D02*
X96000D01*
X95000Y164000D02*
X95500Y163500D01*
X94500D02*
X95000Y164000D01*
X94000Y163500D02*
X94500D01*
X497000Y70500D02*
Y71000D01*
X497500Y71500D01*
X497000Y72000D02*
X497500Y71500D01*
X497000Y72000D02*
Y72500D01*
X497500D01*
X498000Y72000D01*
X498500Y72500D01*
X499000D01*
Y72000D02*
Y72500D01*
X498500Y71500D02*
X499000Y72000D01*
X498500Y71500D02*
X499000Y71000D01*
Y70500D02*
Y71000D01*
X498500Y70500D02*
X499000D01*
X498000Y71000D02*
X498500Y70500D01*
X497500D02*
X498000Y71000D01*
X497000Y70500D02*
X497500D01*
X462000Y129000D02*
Y129500D01*
X462500Y130000D01*
X462000Y130500D02*
X462500Y130000D01*
X462000Y130500D02*
Y131000D01*
X462500D01*
X463000Y130500D01*
X463500Y131000D01*
X464000D01*
Y130500D02*
Y131000D01*
X463500Y130000D02*
X464000Y130500D01*
X463500Y130000D02*
X464000Y129500D01*
Y129000D02*
Y129500D01*
X463500Y129000D02*
X464000D01*
X463000Y129500D02*
X463500Y129000D01*
X462500D02*
X463000Y129500D01*
X462000Y129000D02*
X462500D01*
X491500Y79000D02*
Y79500D01*
X492000Y80000D01*
X491500Y80500D02*
X492000Y80000D01*
X491500Y80500D02*
Y81000D01*
X492000D01*
X492500Y80500D01*
X493000Y81000D01*
X493500D01*
Y80500D02*
Y81000D01*
X493000Y80000D02*
X493500Y80500D01*
X493000Y80000D02*
X493500Y79500D01*
Y79000D02*
Y79500D01*
X493000Y79000D02*
X493500D01*
X492500Y79500D02*
X493000Y79000D01*
X492000D02*
X492500Y79500D01*
X491500Y79000D02*
X492000D01*
X342500Y172000D02*
Y172500D01*
X343000Y173000D01*
X342500Y173500D02*
X343000Y173000D01*
X342500Y173500D02*
Y174000D01*
X343000D01*
X343500Y173500D01*
X344000Y174000D01*
X344500D01*
Y173500D02*
Y174000D01*
X344000Y173000D02*
X344500Y173500D01*
X344000Y173000D02*
X344500Y172500D01*
Y172000D02*
Y172500D01*
X344000Y172000D02*
X344500D01*
X343500Y172500D02*
X344000Y172000D01*
X343000D02*
X343500Y172500D01*
X342500Y172000D02*
X343000D01*
X337000Y180000D02*
Y180500D01*
X337500Y181000D01*
X337000Y181500D02*
X337500Y181000D01*
X337000Y181500D02*
Y182000D01*
X337500D01*
X338000Y181500D01*
X338500Y182000D01*
X339000D01*
Y181500D02*
Y182000D01*
X338500Y181000D02*
X339000Y181500D01*
X338500Y181000D02*
X339000Y180500D01*
Y180000D02*
Y180500D01*
X338500Y180000D02*
X339000D01*
X338000Y180500D02*
X338500Y180000D01*
X337500D02*
X338000Y180500D01*
X337000Y180000D02*
X337500D01*
X418000Y325740D02*
Y326240D01*
X418500Y326740D01*
X418000Y327240D02*
X418500Y326740D01*
X418000Y327240D02*
Y327740D01*
X418500D01*
X419000Y327240D01*
X419500Y327740D01*
X420000D01*
Y327240D02*
Y327740D01*
X419500Y326740D02*
X420000Y327240D01*
X419500Y326740D02*
X420000Y326240D01*
Y325740D02*
Y326240D01*
X419500Y325740D02*
X420000D01*
X419000Y326240D02*
X419500Y325740D01*
X418500D02*
X419000Y326240D01*
X418000Y325740D02*
X418500D01*
X289740Y325000D02*
Y325500D01*
X290240Y326000D01*
X289740Y326500D02*
X290240Y326000D01*
X289740Y326500D02*
Y327000D01*
X290240D01*
X290740Y326500D01*
X291240Y327000D01*
X291740D01*
Y326500D02*
Y327000D01*
X291240Y326000D02*
X291740Y326500D01*
X291240Y326000D02*
X291740Y325500D01*
Y325000D02*
Y325500D01*
X291240Y325000D02*
X291740D01*
X290740Y325500D02*
X291240Y325000D01*
X290240D02*
X290740Y325500D01*
X289740Y325000D02*
X290240D01*
X404000Y210500D02*
Y211000D01*
X404500Y211500D01*
X404000Y212000D02*
X404500Y211500D01*
X404000Y212000D02*
Y212500D01*
X404500D01*
X405000Y212000D01*
X405500Y212500D01*
X406000D01*
Y212000D02*
Y212500D01*
X405500Y211500D02*
X406000Y212000D01*
X405500Y211500D02*
X406000Y211000D01*
Y210500D02*
Y211000D01*
X405500Y210500D02*
X406000D01*
X405000Y211000D02*
X405500Y210500D01*
X404500D02*
X405000Y211000D01*
X404000Y210500D02*
X404500D01*
X358500Y212500D02*
Y213000D01*
X359000Y213500D01*
X358500Y214000D02*
X359000Y213500D01*
X358500Y214000D02*
Y214500D01*
X359000D01*
X359500Y214000D01*
X360000Y214500D01*
X360500D01*
Y214000D02*
Y214500D01*
X360000Y213500D02*
X360500Y214000D01*
X360000Y213500D02*
X360500Y213000D01*
Y212500D02*
Y213000D01*
X360000Y212500D02*
X360500D01*
X359500Y213000D02*
X360000Y212500D01*
X359000D02*
X359500Y213000D01*
X358500Y212500D02*
X359000D01*
X260500Y382500D02*
Y383000D01*
X261000Y383500D01*
X260500Y384000D02*
X261000Y383500D01*
X260500Y384000D02*
Y384500D01*
X261000D01*
X261500Y384000D01*
X262000Y384500D01*
X262500D01*
Y384000D02*
Y384500D01*
X262000Y383500D02*
X262500Y384000D01*
X262000Y383500D02*
X262500Y383000D01*
Y382500D02*
Y383000D01*
X262000Y382500D02*
X262500D01*
X261500Y383000D02*
X262000Y382500D01*
X261000D02*
X261500Y383000D01*
X260500Y382500D02*
X261000D01*
X256500Y61000D02*
Y61500D01*
X257000Y62000D01*
X256500Y62500D02*
X257000Y62000D01*
X256500Y62500D02*
Y63000D01*
X257000D01*
X257500Y62500D01*
X258000Y63000D01*
X258500D01*
Y62500D02*
Y63000D01*
X258000Y62000D02*
X258500Y62500D01*
X258000Y62000D02*
X258500Y61500D01*
Y61000D02*
Y61500D01*
X258000Y61000D02*
X258500D01*
X257500Y61500D02*
X258000Y61000D01*
X257000D02*
X257500Y61500D01*
X256500Y61000D02*
X257000D01*
X224500Y362000D02*
Y362500D01*
X225000Y363000D01*
X224500Y363500D02*
X225000Y363000D01*
X224500Y363500D02*
Y364000D01*
X225000D01*
X225500Y363500D01*
X226000Y364000D01*
X226500D01*
Y363500D02*
Y364000D01*
X226000Y363000D02*
X226500Y363500D01*
X226000Y363000D02*
X226500Y362500D01*
Y362000D02*
Y362500D01*
X226000Y362000D02*
X226500D01*
X225500Y362500D02*
X226000Y362000D01*
X225000D02*
X225500Y362500D01*
X224500Y362000D02*
X225000D01*
X220500Y300500D02*
Y301000D01*
X221000Y301500D01*
X220500Y302000D02*
X221000Y301500D01*
X220500Y302000D02*
Y302500D01*
X221000D01*
X221500Y302000D01*
X222000Y302500D01*
X222500D01*
Y302000D02*
Y302500D01*
X222000Y301500D02*
X222500Y302000D01*
X222000Y301500D02*
X222500Y301000D01*
Y300500D02*
Y301000D01*
X222000Y300500D02*
X222500D01*
X221500Y301000D02*
X222000Y300500D01*
X221000D02*
X221500Y301000D01*
X220500Y300500D02*
X221000D01*
X267000Y203500D02*
Y204000D01*
X267500Y204500D01*
X267000Y205000D02*
X267500Y204500D01*
X267000Y205000D02*
Y205500D01*
X267500D01*
X268000Y205000D01*
X268500Y205500D01*
X269000D01*
Y205000D02*
Y205500D01*
X268500Y204500D02*
X269000Y205000D01*
X268500Y204500D02*
X269000Y204000D01*
Y203500D02*
Y204000D01*
X268500Y203500D02*
X269000D01*
X268000Y204000D02*
X268500Y203500D01*
X267500D02*
X268000Y204000D01*
X267000Y203500D02*
X267500D01*
X326500Y203000D02*
Y203500D01*
X327000Y204000D01*
X326500Y204500D02*
X327000Y204000D01*
X326500Y204500D02*
Y205000D01*
X327000D01*
X327500Y204500D01*
X328000Y205000D01*
X328500D01*
Y204500D02*
Y205000D01*
X328000Y204000D02*
X328500Y204500D01*
X328000Y204000D02*
X328500Y203500D01*
Y203000D02*
Y203500D01*
X328000Y203000D02*
X328500D01*
X327500Y203500D02*
X328000Y203000D01*
X327000D02*
X327500Y203500D01*
X326500Y203000D02*
X327000D01*
X329000Y303500D02*
Y304000D01*
X329500Y304500D01*
X329000Y305000D02*
X329500Y304500D01*
X329000Y305000D02*
Y305500D01*
X329500D01*
X330000Y305000D01*
X330500Y305500D01*
X331000D01*
Y305000D02*
Y305500D01*
X330500Y304500D02*
X331000Y305000D01*
X330500Y304500D02*
X331000Y304000D01*
Y303500D02*
Y304000D01*
X330500Y303500D02*
X331000D01*
X330000Y304000D02*
X330500Y303500D01*
X329500D02*
X330000Y304000D01*
X329000Y303500D02*
X329500D01*
X387500Y275500D02*
Y276000D01*
X388000Y276500D01*
X387500Y277000D02*
X388000Y276500D01*
X387500Y277000D02*
Y277500D01*
X388000D01*
X388500Y277000D01*
X389000Y277500D01*
X389500D01*
Y277000D02*
Y277500D01*
X389000Y276500D02*
X389500Y277000D01*
X389000Y276500D02*
X389500Y276000D01*
Y275500D02*
Y276000D01*
X389000Y275500D02*
X389500D01*
X388500Y276000D02*
X389000Y275500D01*
X388000D02*
X388500Y276000D01*
X387500Y275500D02*
X388000D01*
X163500Y279000D02*
Y279500D01*
X164000Y280000D01*
X163500Y280500D02*
X164000Y280000D01*
X163500Y280500D02*
Y281000D01*
X164000D01*
X164500Y280500D01*
X165000Y281000D01*
X165500D01*
Y280500D02*
Y281000D01*
X165000Y280000D02*
X165500Y280500D01*
X165000Y280000D02*
X165500Y279500D01*
Y279000D02*
Y279500D01*
X165000Y279000D02*
X165500D01*
X164500Y279500D02*
X165000Y279000D01*
X164000D02*
X164500Y279500D01*
X163500Y279000D02*
X164000D01*
X153000Y278000D02*
Y278500D01*
X153500Y279000D01*
X153000Y279500D02*
X153500Y279000D01*
X153000Y279500D02*
Y280000D01*
X153500D01*
X154000Y279500D01*
X154500Y280000D01*
X155000D01*
Y279500D02*
Y280000D01*
X154500Y279000D02*
X155000Y279500D01*
X154500Y279000D02*
X155000Y278500D01*
Y278000D02*
Y278500D01*
X154500Y278000D02*
X155000D01*
X154000Y278500D02*
X154500Y278000D01*
X153500D02*
X154000Y278500D01*
X153000Y278000D02*
X153500D01*
X291929Y229500D02*
Y230000D01*
X292429Y230500D01*
X291929Y231000D02*
X292429Y230500D01*
X291929Y231000D02*
Y231500D01*
X292429D01*
X292929Y231000D01*
X293429Y231500D01*
X293929D01*
Y231000D02*
Y231500D01*
X293429Y230500D02*
X293929Y231000D01*
X293429Y230500D02*
X293929Y230000D01*
Y229500D02*
Y230000D01*
X293429Y229500D02*
X293929D01*
X292929Y230000D02*
X293429Y229500D01*
X292429D02*
X292929Y230000D01*
X291929Y229500D02*
X292429D01*
X353000Y230000D02*
Y230500D01*
X353500Y231000D01*
X353000Y231500D02*
X353500Y231000D01*
X353000Y231500D02*
Y232000D01*
X353500D01*
X354000Y231500D01*
X354500Y232000D01*
X355000D01*
Y231500D02*
Y232000D01*
X354500Y231000D02*
X355000Y231500D01*
X354500Y231000D02*
X355000Y230500D01*
Y230000D02*
Y230500D01*
X354500Y230000D02*
X355000D01*
X354000Y230500D02*
X354500Y230000D01*
X353500D02*
X354000Y230500D01*
X353000Y230000D02*
X353500D01*
X393500Y122000D02*
Y122500D01*
X394000Y123000D01*
X393500Y123500D02*
X394000Y123000D01*
X393500Y123500D02*
Y124000D01*
X394000D01*
X394500Y123500D01*
X395000Y124000D01*
X395500D01*
Y123500D02*
Y124000D01*
X395000Y123000D02*
X395500Y123500D01*
X395000Y123000D02*
X395500Y122500D01*
Y122000D02*
Y122500D01*
X395000Y122000D02*
X395500D01*
X394500Y122500D02*
X395000Y122000D01*
X394000D02*
X394500Y122500D01*
X393500Y122000D02*
X394000D01*
X370500D02*
Y122500D01*
X371000Y123000D01*
X370500Y123500D02*
X371000Y123000D01*
X370500Y123500D02*
Y124000D01*
X371000D01*
X371500Y123500D01*
X372000Y124000D01*
X372500D01*
Y123500D02*
Y124000D01*
X372000Y123000D02*
X372500Y123500D01*
X372000Y123000D02*
X372500Y122500D01*
Y122000D02*
Y122500D01*
X372000Y122000D02*
X372500D01*
X371500Y122500D02*
X372000Y122000D01*
X371000D02*
X371500Y122500D01*
X370500Y122000D02*
X371000D01*
X324000Y148000D02*
Y148500D01*
X324500Y149000D01*
X324000Y149500D02*
X324500Y149000D01*
X324000Y149500D02*
Y150000D01*
X324500D01*
X325000Y149500D01*
X325500Y150000D01*
X326000D01*
Y149500D02*
Y150000D01*
X325500Y149000D02*
X326000Y149500D01*
X325500Y149000D02*
X326000Y148500D01*
Y148000D02*
Y148500D01*
X325500Y148000D02*
X326000D01*
X325000Y148500D02*
X325500Y148000D01*
X324500D02*
X325000Y148500D01*
X324000Y148000D02*
X324500D01*
X105500Y144500D02*
Y145000D01*
X106000Y145500D01*
X105500Y146000D02*
X106000Y145500D01*
X105500Y146000D02*
Y146500D01*
X106000D01*
X106500Y146000D01*
X107000Y146500D01*
X107500D01*
Y146000D02*
Y146500D01*
X107000Y145500D02*
X107500Y146000D01*
X107000Y145500D02*
X107500Y145000D01*
Y144500D02*
Y145000D01*
X107000Y144500D02*
X107500D01*
X106500Y145000D02*
X107000Y144500D01*
X106000D02*
X106500Y145000D01*
X105500Y144500D02*
X106000D01*
X313000Y369000D02*
Y369500D01*
X313500Y370000D01*
X313000Y370500D02*
X313500Y370000D01*
X313000Y370500D02*
Y371000D01*
X313500D01*
X314000Y370500D01*
X314500Y371000D01*
X315000D01*
Y370500D02*
Y371000D01*
X314500Y370000D02*
X315000Y370500D01*
X314500Y370000D02*
X315000Y369500D01*
Y369000D02*
Y369500D01*
X314500Y369000D02*
X315000D01*
X314000Y369500D02*
X314500Y369000D01*
X313500D02*
X314000Y369500D01*
X313000Y369000D02*
X313500D01*
X280500Y368500D02*
Y369000D01*
X281000Y369500D01*
X280500Y370000D02*
X281000Y369500D01*
X280500Y370000D02*
Y370500D01*
X281000D01*
X281500Y370000D01*
X282000Y370500D01*
X282500D01*
Y370000D02*
Y370500D01*
X282000Y369500D02*
X282500Y370000D01*
X282000Y369500D02*
X282500Y369000D01*
Y368500D02*
Y369000D01*
X282000Y368500D02*
X282500D01*
X281500Y369000D02*
X282000Y368500D01*
X281000D02*
X281500Y369000D01*
X280500Y368500D02*
X281000D01*
X281114Y311500D02*
Y312000D01*
X281614Y312500D01*
X281114Y313000D02*
X281614Y312500D01*
X281114Y313000D02*
Y313500D01*
X281614D01*
X282114Y313000D01*
X282614Y313500D01*
X283114D01*
Y313000D02*
Y313500D01*
X282614Y312500D02*
X283114Y313000D01*
X282614Y312500D02*
X283114Y312000D01*
Y311500D02*
Y312000D01*
X282614Y311500D02*
X283114D01*
X282114Y312000D02*
X282614Y311500D01*
X281614D02*
X282114Y312000D01*
X281114Y311500D02*
X281614D01*
X280500Y337000D02*
Y337500D01*
X281000Y338000D01*
X280500Y338500D02*
X281000Y338000D01*
X280500Y338500D02*
Y339000D01*
X281000D01*
X281500Y338500D01*
X282000Y339000D01*
X282500D01*
Y338500D02*
Y339000D01*
X282000Y338000D02*
X282500Y338500D01*
X282000Y338000D02*
X282500Y337500D01*
Y337000D02*
Y337500D01*
X282000Y337000D02*
X282500D01*
X281500Y337500D02*
X282000Y337000D01*
X281000D02*
X281500Y337500D01*
X280500Y337000D02*
X281000D01*
X285000Y194000D02*
Y194500D01*
X285500Y195000D01*
X285000Y195500D02*
X285500Y195000D01*
X285000Y195500D02*
Y196000D01*
X285500D01*
X286000Y195500D01*
X286500Y196000D01*
X287000D01*
Y195500D02*
Y196000D01*
X286500Y195000D02*
X287000Y195500D01*
X286500Y195000D02*
X287000Y194500D01*
Y194000D02*
Y194500D01*
X286500Y194000D02*
X287000D01*
X286000Y194500D02*
X286500Y194000D01*
X285500D02*
X286000Y194500D01*
X285000Y194000D02*
X285500D01*
X374000Y198500D02*
Y199000D01*
X374500Y199500D01*
X374000Y200000D02*
X374500Y199500D01*
X374000Y200000D02*
Y200500D01*
X374500D01*
X375000Y200000D01*
X375500Y200500D01*
X376000D01*
Y200000D02*
Y200500D01*
X375500Y199500D02*
X376000Y200000D01*
X375500Y199500D02*
X376000Y199000D01*
Y198500D02*
Y199000D01*
X375500Y198500D02*
X376000D01*
X375000Y199000D02*
X375500Y198500D01*
X374500D02*
X375000Y199000D01*
X374000Y198500D02*
X374500D01*
X316000Y391000D02*
Y391500D01*
X316500Y392000D01*
X316000Y392500D02*
X316500Y392000D01*
X316000Y392500D02*
Y393000D01*
X316500D01*
X317000Y392500D01*
X317500Y393000D01*
X318000D01*
Y392500D02*
Y393000D01*
X317500Y392000D02*
X318000Y392500D01*
X317500Y392000D02*
X318000Y391500D01*
Y391000D02*
Y391500D01*
X317500Y391000D02*
X318000D01*
X317000Y391500D02*
X317500Y391000D01*
X316500D02*
X317000Y391500D01*
X316000Y391000D02*
X316500D01*
X94000Y386500D02*
Y387000D01*
X94500Y387500D01*
X94000Y388000D02*
X94500Y387500D01*
X94000Y388000D02*
Y388500D01*
X94500D01*
X95000Y388000D01*
X95500Y388500D01*
X96000D01*
Y388000D02*
Y388500D01*
X95500Y387500D02*
X96000Y388000D01*
X95500Y387500D02*
X96000Y387000D01*
Y386500D02*
Y387000D01*
X95500Y386500D02*
X96000D01*
X95000Y387000D02*
X95500Y386500D01*
X94500D02*
X95000Y387000D01*
X94000Y386500D02*
X94500D01*
X398500Y357000D02*
Y357500D01*
X399000Y358000D01*
X398500Y358500D02*
X399000Y358000D01*
X398500Y358500D02*
Y359000D01*
X399000D01*
X399500Y358500D01*
X400000Y359000D01*
X400500D01*
Y358500D02*
Y359000D01*
X400000Y358000D02*
X400500Y358500D01*
X400000Y358000D02*
X400500Y357500D01*
Y357000D02*
Y357500D01*
X400000Y357000D02*
X400500D01*
X399500Y357500D02*
X400000Y357000D01*
X399000D02*
X399500Y357500D01*
X398500Y357000D02*
X399000D01*
X420500Y237500D02*
Y238000D01*
X421000Y238500D01*
X420500Y239000D02*
X421000Y238500D01*
X420500Y239000D02*
Y239500D01*
X421000D01*
X421500Y239000D01*
X422000Y239500D01*
X422500D01*
Y239000D02*
Y239500D01*
X422000Y238500D02*
X422500Y239000D01*
X422000Y238500D02*
X422500Y238000D01*
Y237500D02*
Y238000D01*
X422000Y237500D02*
X422500D01*
X421500Y238000D02*
X422000Y237500D01*
X421000D02*
X421500Y238000D01*
X420500Y237500D02*
X421000D01*
X24000Y158500D02*
Y159000D01*
X24500Y159500D01*
X24000Y160000D02*
X24500Y159500D01*
X24000Y160000D02*
Y160500D01*
X24500D01*
X25000Y160000D01*
X25500Y160500D01*
X26000D01*
Y160000D02*
Y160500D01*
X25500Y159500D02*
X26000Y160000D01*
X25500Y159500D02*
X26000Y159000D01*
Y158500D02*
Y159000D01*
X25500Y158500D02*
X26000D01*
X25000Y159000D02*
X25500Y158500D01*
X24500D02*
X25000Y159000D01*
X24000Y158500D02*
X24500D01*
X422000Y158000D02*
Y158500D01*
X422500Y159000D01*
X422000Y159500D02*
X422500Y159000D01*
X422000Y159500D02*
Y160000D01*
X422500D01*
X423000Y159500D01*
X423500Y160000D01*
X424000D01*
Y159500D02*
Y160000D01*
X423500Y159000D02*
X424000Y159500D01*
X423500Y159000D02*
X424000Y158500D01*
Y158000D02*
Y158500D01*
X423500Y158000D02*
X424000D01*
X423000Y158500D02*
X423500Y158000D01*
X422500D02*
X423000Y158500D01*
X422000Y158000D02*
X422500D01*
X44500Y343000D02*
Y343500D01*
X45000Y344000D01*
X44500Y344500D02*
X45000Y344000D01*
X44500Y344500D02*
Y345000D01*
X45000D01*
X45500Y344500D01*
X46000Y345000D01*
X46500D01*
Y344500D02*
Y345000D01*
X46000Y344000D02*
X46500Y344500D01*
X46000Y344000D02*
X46500Y343500D01*
Y343000D02*
Y343500D01*
X46000Y343000D02*
X46500D01*
X45500Y343500D02*
X46000Y343000D01*
X45000D02*
X45500Y343500D01*
X44500Y343000D02*
X45000D01*
X478500Y342500D02*
Y343000D01*
X479000Y343500D01*
X478500Y344000D02*
X479000Y343500D01*
X478500Y344000D02*
Y344500D01*
X479000D01*
X479500Y344000D01*
X480000Y344500D01*
X480500D01*
Y344000D02*
Y344500D01*
X480000Y343500D02*
X480500Y344000D01*
X480000Y343500D02*
X480500Y343000D01*
Y342500D02*
Y343000D01*
X480000Y342500D02*
X480500D01*
X479500Y343000D02*
X480000Y342500D01*
X479000D02*
X479500Y343000D01*
X478500Y342500D02*
X479000D01*
X108500Y168000D02*
Y168500D01*
X109000Y169000D01*
X108500Y169500D02*
X109000Y169000D01*
X108500Y169500D02*
Y170000D01*
X109000D01*
X109500Y169500D01*
X110000Y170000D01*
X110500D01*
Y169500D02*
Y170000D01*
X110000Y169000D02*
X110500Y169500D01*
X110000Y169000D02*
X110500Y168500D01*
Y168000D02*
Y168500D01*
X110000Y168000D02*
X110500D01*
X109500Y168500D02*
X110000Y168000D01*
X109000D02*
X109500Y168500D01*
X108500Y168000D02*
X109000D01*
X310000D02*
Y168500D01*
X310500Y169000D01*
X310000Y169500D02*
X310500Y169000D01*
X310000Y169500D02*
Y170000D01*
X310500D01*
X311000Y169500D01*
X311500Y170000D01*
X312000D01*
Y169500D02*
Y170000D01*
X311500Y169000D02*
X312000Y169500D01*
X311500Y169000D02*
X312000Y168500D01*
Y168000D02*
Y168500D01*
X311500Y168000D02*
X312000D01*
X311000Y168500D02*
X311500Y168000D01*
X310500D02*
X311000Y168500D01*
X310000Y168000D02*
X310500D01*
X270500Y291500D02*
Y292000D01*
X271000Y292500D01*
X270500Y293000D02*
X271000Y292500D01*
X270500Y293000D02*
Y293500D01*
X271000D01*
X271500Y293000D01*
X272000Y293500D01*
X272500D01*
Y293000D02*
Y293500D01*
X272000Y292500D02*
X272500Y293000D01*
X272000Y292500D02*
X272500Y292000D01*
Y291500D02*
Y292000D01*
X272000Y291500D02*
X272500D01*
X271500Y292000D02*
X272000Y291500D01*
X271000D02*
X271500Y292000D01*
X270500Y291500D02*
X271000D01*
X285500Y332000D02*
Y332500D01*
X286000Y333000D01*
X285500Y333500D02*
X286000Y333000D01*
X285500Y333500D02*
Y334000D01*
X286000D01*
X286500Y333500D01*
X287000Y334000D01*
X287500D01*
Y333500D02*
Y334000D01*
X287000Y333000D02*
X287500Y333500D01*
X287000Y333000D02*
X287500Y332500D01*
Y332000D02*
Y332500D01*
X287000Y332000D02*
X287500D01*
X286500Y332500D02*
X287000Y332000D01*
X286000D02*
X286500Y332500D01*
X285500Y332000D02*
X286000D01*
X326000D02*
Y332500D01*
X326500Y333000D01*
X326000Y333500D02*
X326500Y333000D01*
X326000Y333500D02*
Y334000D01*
X326500D01*
X327000Y333500D01*
X327500Y334000D01*
X328000D01*
Y333500D02*
Y334000D01*
X327500Y333000D02*
X328000Y333500D01*
X327500Y333000D02*
X328000Y332500D01*
Y332000D02*
Y332500D01*
X327500Y332000D02*
X328000D01*
X327000Y332500D02*
X327500Y332000D01*
X326500D02*
X327000Y332500D01*
X326000Y332000D02*
X326500D01*
X323000Y320000D02*
Y320500D01*
X323500Y321000D01*
X323000Y321500D02*
X323500Y321000D01*
X323000Y321500D02*
Y322000D01*
X323500D01*
X324000Y321500D01*
X324500Y322000D01*
X325000D01*
Y321500D02*
Y322000D01*
X324500Y321000D02*
X325000Y321500D01*
X324500Y321000D02*
X325000Y320500D01*
Y320000D02*
Y320500D01*
X324500Y320000D02*
X325000D01*
X324000Y320500D02*
X324500Y320000D01*
X323500D02*
X324000Y320500D01*
X323000Y320000D02*
X323500D01*
X286500D02*
Y320500D01*
X287000Y321000D01*
X286500Y321500D02*
X287000Y321000D01*
X286500Y321500D02*
Y322000D01*
X287000D01*
X287500Y321500D01*
X288000Y322000D01*
X288500D01*
Y321500D02*
Y322000D01*
X288000Y321000D02*
X288500Y321500D01*
X288000Y321000D02*
X288500Y320500D01*
Y320000D02*
Y320500D01*
X288000Y320000D02*
X288500D01*
X287500Y320500D02*
X288000Y320000D01*
X287000D02*
X287500Y320500D01*
X286500Y320000D02*
X287000D01*
X123500Y97000D02*
Y97500D01*
X124000Y98000D01*
X123500Y98500D02*
X124000Y98000D01*
X123500Y98500D02*
Y99000D01*
X124000D01*
X124500Y98500D01*
X125000Y99000D01*
X125500D01*
Y98500D02*
Y99000D01*
X125000Y98000D02*
X125500Y98500D01*
X125000Y98000D02*
X125500Y97500D01*
Y97000D02*
Y97500D01*
X125000Y97000D02*
X125500D01*
X124500Y97500D02*
X125000Y97000D01*
X124000D02*
X124500Y97500D01*
X123500Y97000D02*
X124000D01*
X314500Y93500D02*
Y94000D01*
X315000Y94500D01*
X314500Y95000D02*
X315000Y94500D01*
X314500Y95000D02*
Y95500D01*
X315000D01*
X315500Y95000D01*
X316000Y95500D01*
X316500D01*
Y95000D02*
Y95500D01*
X316000Y94500D02*
X316500Y95000D01*
X316000Y94500D02*
X316500Y94000D01*
Y93500D02*
Y94000D01*
X316000Y93500D02*
X316500D01*
X315500Y94000D02*
X316000Y93500D01*
X315000D02*
X315500Y94000D01*
X314500Y93500D02*
X315000D01*
X134000Y137500D02*
Y138000D01*
X134500Y138500D01*
X134000Y139000D02*
X134500Y138500D01*
X134000Y139000D02*
Y139500D01*
X134500D01*
X135000Y139000D01*
X135500Y139500D01*
X136000D01*
Y139000D02*
Y139500D01*
X135500Y138500D02*
X136000Y139000D01*
X135500Y138500D02*
X136000Y138000D01*
Y137500D02*
Y138000D01*
X135500Y137500D02*
X136000D01*
X135000Y138000D02*
X135500Y137500D01*
X134500D02*
X135000Y138000D01*
X134000Y137500D02*
X134500D01*
X275000D02*
Y138000D01*
X275500Y138500D01*
X275000Y139000D02*
X275500Y138500D01*
X275000Y139000D02*
Y139500D01*
X275500D01*
X276000Y139000D01*
X276500Y139500D01*
X277000D01*
Y139000D02*
Y139500D01*
X276500Y138500D02*
X277000Y139000D01*
X276500Y138500D02*
X277000Y138000D01*
Y137500D02*
Y138000D01*
X276500Y137500D02*
X277000D01*
X276000Y138000D02*
X276500Y137500D01*
X275500D02*
X276000Y138000D01*
X275000Y137500D02*
X275500D01*
X144000Y108000D02*
Y108500D01*
X144500Y109000D01*
X144000Y109500D02*
X144500Y109000D01*
X144000Y109500D02*
Y110000D01*
X144500D01*
X145000Y109500D01*
X145500Y110000D01*
X146000D01*
Y109500D02*
Y110000D01*
X145500Y109000D02*
X146000Y109500D01*
X145500Y109000D02*
X146000Y108500D01*
Y108000D02*
Y108500D01*
X145500Y108000D02*
X146000D01*
X145000Y108500D02*
X145500Y108000D01*
X144500D02*
X145000Y108500D01*
X144000Y108000D02*
X144500D01*
X315500Y102500D02*
Y103000D01*
X316000Y103500D01*
X315500Y104000D02*
X316000Y103500D01*
X315500Y104000D02*
Y104500D01*
X316000D01*
X316500Y104000D01*
X317000Y104500D01*
X317500D01*
Y104000D02*
Y104500D01*
X317000Y103500D02*
X317500Y104000D01*
X317000Y103500D02*
X317500Y103000D01*
Y102500D02*
Y103000D01*
X317000Y102500D02*
X317500D01*
X316500Y103000D02*
X317000Y102500D01*
X316000D02*
X316500Y103000D01*
X315500Y102500D02*
X316000D01*
X149500Y156000D02*
Y156500D01*
X150000Y157000D01*
X149500Y157500D02*
X150000Y157000D01*
X149500Y157500D02*
Y158000D01*
X150000D01*
X150500Y157500D01*
X151000Y158000D01*
X151500D01*
Y157500D02*
Y158000D01*
X151000Y157000D02*
X151500Y157500D01*
X151000Y157000D02*
X151500Y156500D01*
Y156000D02*
Y156500D01*
X151000Y156000D02*
X151500D01*
X150500Y156500D02*
X151000Y156000D01*
X150000D02*
X150500Y156500D01*
X149500Y156000D02*
X150000D01*
X192000Y190000D02*
Y190500D01*
X192500Y191000D01*
X192000Y191500D02*
X192500Y191000D01*
X192000Y191500D02*
Y192000D01*
X192500D01*
X193000Y191500D01*
X193500Y192000D01*
X194000D01*
Y191500D02*
Y192000D01*
X193500Y191000D02*
X194000Y191500D01*
X193500Y191000D02*
X194000Y190500D01*
Y190000D02*
Y190500D01*
X193500Y190000D02*
X194000D01*
X193000Y190500D02*
X193500Y190000D01*
X192500D02*
X193000Y190500D01*
X192000Y190000D02*
X192500D01*
X436000D02*
Y190500D01*
X436500Y191000D01*
X436000Y191500D02*
X436500Y191000D01*
X436000Y191500D02*
Y192000D01*
X436500D01*
X437000Y191500D01*
X437500Y192000D01*
X438000D01*
Y191500D02*
Y192000D01*
X437500Y191000D02*
X438000Y191500D01*
X437500Y191000D02*
X438000Y190500D01*
Y190000D02*
Y190500D01*
X437500Y190000D02*
X438000D01*
X437000Y190500D02*
X437500Y190000D01*
X436500D02*
X437000Y190500D01*
X436000Y190000D02*
X436500D01*
X533500Y288000D02*
Y288500D01*
X534000Y289000D01*
X533500Y289500D02*
X534000Y289000D01*
X533500Y289500D02*
Y290000D01*
X534000D01*
X534500Y289500D01*
X535000Y290000D01*
X535500D01*
Y289500D02*
Y290000D01*
X535000Y289000D02*
X535500Y289500D01*
X535000Y289000D02*
X535500Y288500D01*
Y288000D02*
Y288500D01*
X535000Y288000D02*
X535500D01*
X534500Y288500D02*
X535000Y288000D01*
X534000D02*
X534500Y288500D01*
X533500Y288000D02*
X534000D01*
X391000Y289000D02*
Y289500D01*
X391500Y290000D01*
X391000Y290500D02*
X391500Y290000D01*
X391000Y290500D02*
Y291000D01*
X391500D01*
X392000Y290500D01*
X392500Y291000D01*
X393000D01*
Y290500D02*
Y291000D01*
X392500Y290000D02*
X393000Y290500D01*
X392500Y290000D02*
X393000Y289500D01*
Y289000D02*
Y289500D01*
X392500Y289000D02*
X393000D01*
X392000Y289500D02*
X392500Y289000D01*
X391500D02*
X392000Y289500D01*
X391000Y289000D02*
X391500D01*
X36500Y241500D02*
Y242000D01*
X37000Y242500D01*
X36500Y243000D02*
X37000Y242500D01*
X36500Y243000D02*
Y243500D01*
X37000D01*
X37500Y243000D01*
X38000Y243500D01*
X38500D01*
Y243000D02*
Y243500D01*
X38000Y242500D02*
X38500Y243000D01*
X38000Y242500D02*
X38500Y242000D01*
Y241500D02*
Y242000D01*
X38000Y241500D02*
X38500D01*
X37500Y242000D02*
X38000Y241500D01*
X37000D02*
X37500Y242000D01*
X36500Y241500D02*
X37000D01*
X379500D02*
Y242000D01*
X380000Y242500D01*
X379500Y243000D02*
X380000Y242500D01*
X379500Y243000D02*
Y243500D01*
X380000D01*
X380500Y243000D01*
X381000Y243500D01*
X381500D01*
Y243000D02*
Y243500D01*
X381000Y242500D02*
X381500Y243000D01*
X381000Y242500D02*
X381500Y242000D01*
Y241500D02*
Y242000D01*
X381000Y241500D02*
X381500D01*
X380500Y242000D02*
X381000Y241500D01*
X380000D02*
X380500Y242000D01*
X379500Y241500D02*
X380000D01*
X154000Y130500D02*
Y131000D01*
X154500Y131500D01*
X154000Y132000D02*
X154500Y131500D01*
X154000Y132000D02*
Y132500D01*
X154500D01*
X155000Y132000D01*
X155500Y132500D01*
X156000D01*
Y132000D02*
Y132500D01*
X155500Y131500D02*
X156000Y132000D01*
X155500Y131500D02*
X156000Y131000D01*
Y130500D02*
Y131000D01*
X155500Y130500D02*
X156000D01*
X155000Y131000D02*
X155500Y130500D01*
X154500D02*
X155000Y131000D01*
X154000Y130500D02*
X154500D01*
X267500D02*
Y131000D01*
X268000Y131500D01*
X267500Y132000D02*
X268000Y131500D01*
X267500Y132000D02*
Y132500D01*
X268000D01*
X268500Y132000D01*
X269000Y132500D01*
X269500D01*
Y132000D02*
Y132500D01*
X269000Y131500D02*
X269500Y132000D01*
X269000Y131500D02*
X269500Y131000D01*
Y130500D02*
Y131000D01*
X269000Y130500D02*
X269500D01*
X268500Y131000D02*
X269000Y130500D01*
X268000D02*
X268500Y131000D01*
X267500Y130500D02*
X268000D01*
X164000Y104000D02*
Y104500D01*
X164500Y105000D01*
X164000Y105500D02*
X164500Y105000D01*
X164000Y105500D02*
Y106000D01*
X164500D01*
X165000Y105500D01*
X165500Y106000D01*
X166000D01*
Y105500D02*
Y106000D01*
X165500Y105000D02*
X166000Y105500D01*
X165500Y105000D02*
X166000Y104500D01*
Y104000D02*
Y104500D01*
X165500Y104000D02*
X166000D01*
X165000Y104500D02*
X165500Y104000D01*
X164500D02*
X165000Y104500D01*
X164000Y104000D02*
X164500D01*
X278500D02*
Y104500D01*
X279000Y105000D01*
X278500Y105500D02*
X279000Y105000D01*
X278500Y105500D02*
Y106000D01*
X279000D01*
X279500Y105500D01*
X280000Y106000D01*
X280500D01*
Y105500D02*
Y106000D01*
X280000Y105000D02*
X280500Y105500D01*
X280000Y105000D02*
X280500Y104500D01*
Y104000D02*
Y104500D01*
X280000Y104000D02*
X280500D01*
X279500Y104500D02*
X280000Y104000D01*
X279000D02*
X279500Y104500D01*
X278500Y104000D02*
X279000D01*
X209500Y66000D02*
Y66500D01*
X210000Y67000D01*
X209500Y67500D02*
X210000Y67000D01*
X209500Y67500D02*
Y68000D01*
X210000D01*
X210500Y67500D01*
X211000Y68000D01*
X211500D01*
Y67500D02*
Y68000D01*
X211000Y67000D02*
X211500Y67500D01*
X211000Y67000D02*
X211500Y66500D01*
Y66000D02*
Y66500D01*
X211000Y66000D02*
X211500D01*
X210500Y66500D02*
X211000Y66000D01*
X210000D02*
X210500Y66500D01*
X209500Y66000D02*
X210000D01*
X558000Y140500D02*
Y141000D01*
X558500Y141500D01*
X558000Y142000D02*
X558500Y141500D01*
X558000Y142000D02*
Y142500D01*
X558500D01*
X559000Y142000D01*
X559500Y142500D01*
X560000D01*
Y142000D02*
Y142500D01*
X559500Y141500D02*
X560000Y142000D01*
X559500Y141500D02*
X560000Y141000D01*
Y140500D02*
Y141000D01*
X559500Y140500D02*
X560000D01*
X559000Y141000D02*
X559500Y140500D01*
X558500D02*
X559000Y141000D01*
X558000Y140500D02*
X558500D01*
X532500D02*
Y141000D01*
X533000Y141500D01*
X532500Y142000D02*
X533000Y141500D01*
X532500Y142000D02*
Y142500D01*
X533000D01*
X533500Y142000D01*
X534000Y142500D01*
X534500D01*
Y142000D02*
Y142500D01*
X534000Y141500D02*
X534500Y142000D01*
X534000Y141500D02*
X534500Y141000D01*
Y140500D02*
Y141000D01*
X534000Y140500D02*
X534500D01*
X533500Y141000D02*
X534000Y140500D01*
X533000D02*
X533500Y141000D01*
X532500Y140500D02*
X533000D01*
X319000Y43500D02*
Y44000D01*
X319500Y44500D01*
X319000Y45000D02*
X319500Y44500D01*
X319000Y45000D02*
Y45500D01*
X319500D01*
X320000Y45000D01*
X320500Y45500D01*
X321000D01*
Y45000D02*
Y45500D01*
X320500Y44500D02*
X321000Y45000D01*
X320500Y44500D02*
X321000Y44000D01*
Y43500D02*
Y44000D01*
X320500Y43500D02*
X321000D01*
X320000Y44000D02*
X320500Y43500D01*
X319500D02*
X320000Y44000D01*
X319000Y43500D02*
X319500D01*
X114000Y47500D02*
Y48000D01*
X114500Y48500D01*
X114000Y49000D02*
X114500Y48500D01*
X114000Y49000D02*
Y49500D01*
X114500D01*
X115000Y49000D01*
X115500Y49500D01*
X116000D01*
Y49000D02*
Y49500D01*
X115500Y48500D02*
X116000Y49000D01*
X115500Y48500D02*
X116000Y48000D01*
Y47500D02*
Y48000D01*
X115500Y47500D02*
X116000D01*
X115000Y48000D02*
X115500Y47500D01*
X114500D02*
X115000Y48000D01*
X114000Y47500D02*
X114500D01*
X395000Y86000D02*
Y86500D01*
X395500Y87000D01*
X395000Y87500D02*
X395500Y87000D01*
X395000Y87500D02*
Y88000D01*
X395500D01*
X396000Y87500D01*
X396500Y88000D01*
X397000D01*
Y87500D02*
Y88000D01*
X396500Y87000D02*
X397000Y87500D01*
X396500Y87000D02*
X397000Y86500D01*
Y86000D02*
Y86500D01*
X396500Y86000D02*
X397000D01*
X396000Y86500D02*
X396500Y86000D01*
X395500D02*
X396000Y86500D01*
X395000Y86000D02*
X395500D01*
X417500Y46500D02*
Y47000D01*
X418000Y47500D01*
X417500Y48000D02*
X418000Y47500D01*
X417500Y48000D02*
Y48500D01*
X418000D01*
X418500Y48000D01*
X419000Y48500D01*
X419500D01*
Y48000D02*
Y48500D01*
X419000Y47500D02*
X419500Y48000D01*
X419000Y47500D02*
X419500Y47000D01*
Y46500D02*
Y47000D01*
X419000Y46500D02*
X419500D01*
X418500Y47000D02*
X419000Y46500D01*
X418000D02*
X418500Y47000D01*
X417500Y46500D02*
X418000D01*
X469500Y101000D02*
Y101500D01*
X470000Y102000D01*
X469500Y102500D02*
X470000Y102000D01*
X469500Y102500D02*
Y103000D01*
X470000D01*
X470500Y102500D01*
X471000Y103000D01*
X471500D01*
Y102500D02*
Y103000D01*
X471000Y102000D02*
X471500Y102500D01*
X471000Y102000D02*
X471500Y101500D01*
Y101000D02*
Y101500D01*
X471000Y101000D02*
X471500D01*
X470500Y101500D02*
X471000Y101000D01*
X470000D02*
X470500Y101500D01*
X469500Y101000D02*
X470000D01*
X361000Y98500D02*
Y99000D01*
X361500Y99500D01*
X361000Y100000D02*
X361500Y99500D01*
X361000Y100000D02*
Y100500D01*
X361500D01*
X362000Y100000D01*
X362500Y100500D01*
X363000D01*
Y100000D02*
Y100500D01*
X362500Y99500D02*
X363000Y100000D01*
X362500Y99500D02*
X363000Y99000D01*
Y98500D02*
Y99000D01*
X362500Y98500D02*
X363000D01*
X362000Y99000D02*
X362500Y98500D01*
X361500D02*
X362000Y99000D01*
X361000Y98500D02*
X361500D01*
X359500Y56000D02*
Y56500D01*
X360000Y57000D01*
X359500Y57500D02*
X360000Y57000D01*
X359500Y57500D02*
Y58000D01*
X360000D01*
X360500Y57500D01*
X361000Y58000D01*
X361500D01*
Y57500D02*
Y58000D01*
X361000Y57000D02*
X361500Y57500D01*
X361000Y57000D02*
X361500Y56500D01*
Y56000D02*
Y56500D01*
X361000Y56000D02*
X361500D01*
X360500Y56500D02*
X361000Y56000D01*
X360000D02*
X360500Y56500D01*
X359500Y56000D02*
X360000D01*
X290000Y59000D02*
Y59500D01*
X290500Y60000D01*
X290000Y60500D02*
X290500Y60000D01*
X290000Y60500D02*
Y61000D01*
X290500D01*
X291000Y60500D01*
X291500Y61000D01*
X292000D01*
Y60500D02*
Y61000D01*
X291500Y60000D02*
X292000Y60500D01*
X291500Y60000D02*
X292000Y59500D01*
Y59000D02*
Y59500D01*
X291500Y59000D02*
X292000D01*
X291000Y59500D02*
X291500Y59000D01*
X290500D02*
X291000Y59500D01*
X290000Y59000D02*
X290500D01*
X466606Y141555D02*
Y142055D01*
X467106Y142555D01*
X466606Y143055D02*
X467106Y142555D01*
X466606Y143055D02*
Y143555D01*
X467106D01*
X467606Y143055D01*
X468106Y143555D01*
X468606D01*
Y143055D02*
Y143555D01*
X468106Y142555D02*
X468606Y143055D01*
X468106Y142555D02*
X468606Y142055D01*
Y141555D02*
Y142055D01*
X468106Y141555D02*
X468606D01*
X467606Y142055D02*
X468106Y141555D01*
X467106D02*
X467606Y142055D01*
X466606Y141555D02*
X467106D01*
X435500Y134500D02*
Y135000D01*
X436000Y135500D01*
X435500Y136000D02*
X436000Y135500D01*
X435500Y136000D02*
Y136500D01*
X436000D01*
X436500Y136000D01*
X437000Y136500D01*
X437500D01*
Y136000D02*
Y136500D01*
X437000Y135500D02*
X437500Y136000D01*
X437000Y135500D02*
X437500Y135000D01*
Y134500D02*
Y135000D01*
X437000Y134500D02*
X437500D01*
X436500Y135000D02*
X437000Y134500D01*
X436000D02*
X436500Y135000D01*
X435500Y134500D02*
X436000D01*
X423500Y122000D02*
Y122500D01*
X424000Y123000D01*
X423500Y123500D02*
X424000Y123000D01*
X423500Y123500D02*
Y124000D01*
X424000D01*
X424500Y123500D01*
X425000Y124000D01*
X425500D01*
Y123500D02*
Y124000D01*
X425000Y123000D02*
X425500Y123500D01*
X425000Y123000D02*
X425500Y122500D01*
Y122000D02*
Y122500D01*
X425000Y122000D02*
X425500D01*
X424500Y122500D02*
X425000Y122000D01*
X424000D02*
X424500Y122500D01*
X423500Y122000D02*
X424000D01*
X347677Y112323D02*
Y112823D01*
X348177Y113323D01*
X347677Y113823D02*
X348177Y113323D01*
X347677Y113823D02*
Y114323D01*
X348177D01*
X348677Y113823D01*
X349177Y114323D01*
X349677D01*
Y113823D02*
Y114323D01*
X349177Y113323D02*
X349677Y113823D01*
X349177Y113323D02*
X349677Y112823D01*
Y112323D02*
Y112823D01*
X349177Y112323D02*
X349677D01*
X348677Y112823D02*
X349177Y112323D01*
X348177D02*
X348677Y112823D01*
X347677Y112323D02*
X348177D01*
X336500Y44000D02*
Y44500D01*
X337000Y45000D01*
X336500Y45500D02*
X337000Y45000D01*
X336500Y45500D02*
Y46000D01*
X337000D01*
X337500Y45500D01*
X338000Y46000D01*
X338500D01*
Y45500D02*
Y46000D01*
X338000Y45000D02*
X338500Y45500D01*
X338000Y45000D02*
X338500Y44500D01*
Y44000D02*
Y44500D01*
X338000Y44000D02*
X338500D01*
X337500Y44500D02*
X338000Y44000D01*
X337000D02*
X337500Y44500D01*
X336500Y44000D02*
X337000D01*
X325500Y314000D02*
Y314500D01*
X326000Y315000D01*
X325500Y315500D02*
X326000Y315000D01*
X325500Y315500D02*
Y316000D01*
X326000D01*
X326500Y315500D01*
X327000Y316000D01*
X327500D01*
Y315500D02*
Y316000D01*
X327000Y315000D02*
X327500Y315500D01*
X327000Y315000D02*
X327500Y314500D01*
Y314000D02*
Y314500D01*
X327000Y314000D02*
X327500D01*
X326500Y314500D02*
X327000Y314000D01*
X326000D02*
X326500Y314500D01*
X325500Y314000D02*
X326000D01*
X351000Y318500D02*
Y319000D01*
X351500Y319500D01*
X351000Y320000D02*
X351500Y319500D01*
X351000Y320000D02*
Y320500D01*
X351500D01*
X352000Y320000D01*
X352500Y320500D01*
X353000D01*
Y320000D02*
Y320500D01*
X352500Y319500D02*
X353000Y320000D01*
X352500Y319500D02*
X353000Y319000D01*
Y318500D02*
Y319000D01*
X352500Y318500D02*
X353000D01*
X352000Y319000D02*
X352500Y318500D01*
X351500D02*
X352000Y319000D01*
X351000Y318500D02*
X351500D01*
X352000Y308500D02*
Y309000D01*
X352500Y309500D01*
X352000Y310000D02*
X352500Y309500D01*
X352000Y310000D02*
Y310500D01*
X352500D01*
X353000Y310000D01*
X353500Y310500D01*
X354000D01*
Y310000D02*
Y310500D01*
X353500Y309500D02*
X354000Y310000D01*
X353500Y309500D02*
X354000Y309000D01*
Y308500D02*
Y309000D01*
X353500Y308500D02*
X354000D01*
X353000Y309000D02*
X353500Y308500D01*
X352500D02*
X353000Y309000D01*
X352000Y308500D02*
X352500D01*
X310161Y308161D02*
Y308661D01*
X310661Y309161D01*
X310161Y309661D02*
X310661Y309161D01*
X310161Y309661D02*
Y310161D01*
X310661D01*
X311161Y309661D01*
X311661Y310161D01*
X312161D01*
Y309661D02*
Y310161D01*
X311661Y309161D02*
X312161Y309661D01*
X311661Y309161D02*
X312161Y308661D01*
Y308161D02*
Y308661D01*
X311661Y308161D02*
X312161D01*
X311161Y308661D02*
X311661Y308161D01*
X310661D02*
X311161Y308661D01*
X310161Y308161D02*
X310661D01*
X309500Y291000D02*
Y291500D01*
X310000Y292000D01*
X309500Y292500D02*
X310000Y292000D01*
X309500Y292500D02*
Y293000D01*
X310000D01*
X310500Y292500D01*
X311000Y293000D01*
X311500D01*
Y292500D02*
Y293000D01*
X311000Y292000D02*
X311500Y292500D01*
X311000Y292000D02*
X311500Y291500D01*
Y291000D02*
Y291500D01*
X311000Y291000D02*
X311500D01*
X310500Y291500D02*
X311000Y291000D01*
X310000D02*
X310500Y291500D01*
X309500Y291000D02*
X310000D01*
X415500Y296500D02*
Y297000D01*
X416000Y297500D01*
X415500Y298000D02*
X416000Y297500D01*
X415500Y298000D02*
Y298500D01*
X416000D01*
X416500Y298000D01*
X417000Y298500D01*
X417500D01*
Y298000D02*
Y298500D01*
X417000Y297500D02*
X417500Y298000D01*
X417000Y297500D02*
X417500Y297000D01*
Y296500D02*
Y297000D01*
X417000Y296500D02*
X417500D01*
X416500Y297000D02*
X417000Y296500D01*
X416000D02*
X416500Y297000D01*
X415500Y296500D02*
X416000D01*
X387000Y312000D02*
Y312500D01*
X387500Y313000D01*
X387000Y313500D02*
X387500Y313000D01*
X387000Y313500D02*
Y314000D01*
X387500D01*
X388000Y313500D01*
X388500Y314000D01*
X389000D01*
Y313500D02*
Y314000D01*
X388500Y313000D02*
X389000Y313500D01*
X388500Y313000D02*
X389000Y312500D01*
Y312000D02*
Y312500D01*
X388500Y312000D02*
X389000D01*
X388000Y312500D02*
X388500Y312000D01*
X387500D02*
X388000Y312500D01*
X387000Y312000D02*
X387500D01*
X411000Y311500D02*
Y312000D01*
X411500Y312500D01*
X411000Y313000D02*
X411500Y312500D01*
X411000Y313000D02*
Y313500D01*
X411500D01*
X412000Y313000D01*
X412500Y313500D01*
X413000D01*
Y313000D02*
Y313500D01*
X412500Y312500D02*
X413000Y313000D01*
X412500Y312500D02*
X413000Y312000D01*
Y311500D02*
Y312000D01*
X412500Y311500D02*
X413000D01*
X412000Y312000D02*
X412500Y311500D01*
X411500D02*
X412000Y312000D01*
X411000Y311500D02*
X411500D01*
X527500Y153000D02*
Y153500D01*
X528000Y154000D01*
X527500Y154500D02*
X528000Y154000D01*
X527500Y154500D02*
Y155000D01*
X528000D01*
X528500Y154500D01*
X529000Y155000D01*
X529500D01*
Y154500D02*
Y155000D01*
X529000Y154000D02*
X529500Y154500D01*
X529000Y154000D02*
X529500Y153500D01*
Y153000D02*
Y153500D01*
X529000Y153000D02*
X529500D01*
X528500Y153500D02*
X529000Y153000D01*
X528000D02*
X528500Y153500D01*
X527500Y153000D02*
X528000D01*
X441000Y141555D02*
Y142055D01*
X441500Y142555D01*
X441000Y143055D02*
X441500Y142555D01*
X441000Y143055D02*
Y143555D01*
X441500D01*
X442000Y143055D01*
X442500Y143555D01*
X443000D01*
Y143055D02*
Y143555D01*
X442500Y142555D02*
X443000Y143055D01*
X442500Y142555D02*
X443000Y142055D01*
Y141555D02*
Y142055D01*
X442500Y141555D02*
X443000D01*
X442000Y142055D02*
X442500Y141555D01*
X441500D02*
X442000Y142055D01*
X441000Y141555D02*
X441500D01*
X430500Y165500D02*
Y166000D01*
X431000Y166500D01*
X430500Y167000D02*
X431000Y166500D01*
X430500Y167000D02*
Y167500D01*
X431000D01*
X431500Y167000D01*
X432000Y167500D01*
X432500D01*
Y167000D02*
Y167500D01*
X432000Y166500D02*
X432500Y167000D01*
X432000Y166500D02*
X432500Y166000D01*
Y165500D02*
Y166000D01*
X432000Y165500D02*
X432500D01*
X431500Y166000D02*
X432000Y165500D01*
X431000D02*
X431500Y166000D01*
X430500Y165500D02*
X431000D01*
X446642Y79500D02*
Y80000D01*
X447142Y80500D01*
X446642Y81000D02*
X447142Y80500D01*
X446642Y81000D02*
Y81500D01*
X447142D01*
X447642Y81000D01*
X448142Y81500D01*
X448642D01*
Y81000D02*
Y81500D01*
X448142Y80500D02*
X448642Y81000D01*
X448142Y80500D02*
X448642Y80000D01*
Y79500D02*
Y80000D01*
X448142Y79500D02*
X448642D01*
X447642Y80000D02*
X448142Y79500D01*
X447142D02*
X447642Y80000D01*
X446642Y79500D02*
X447142D01*
X461000Y121500D02*
Y122000D01*
X461500Y122500D01*
X461000Y123000D02*
X461500Y122500D01*
X461000Y123000D02*
Y123500D01*
X461500D01*
X462000Y123000D01*
X462500Y123500D01*
X463000D01*
Y123000D02*
Y123500D01*
X462500Y122500D02*
X463000Y123000D01*
X462500Y122500D02*
X463000Y122000D01*
Y121500D02*
Y122000D01*
X462500Y121500D02*
X463000D01*
X462000Y122000D02*
X462500Y121500D01*
X461500D02*
X462000Y122000D01*
X461000Y121500D02*
X461500D01*
X504500Y122000D02*
Y122500D01*
X505000Y123000D01*
X504500Y123500D02*
X505000Y123000D01*
X504500Y123500D02*
Y124000D01*
X505000D01*
X505500Y123500D01*
X506000Y124000D01*
X506500D01*
Y123500D02*
Y124000D01*
X506000Y123000D02*
X506500Y123500D01*
X506000Y123000D02*
X506500Y122500D01*
Y122000D02*
Y122500D01*
X506000Y122000D02*
X506500D01*
X505500Y122500D02*
X506000Y122000D01*
X505000D02*
X505500Y122500D01*
X504500Y122000D02*
X505000D01*
X474000Y116500D02*
Y117000D01*
X474500Y117500D01*
X474000Y118000D02*
X474500Y117500D01*
X474000Y118000D02*
Y118500D01*
X474500D01*
X475000Y118000D01*
X475500Y118500D01*
X476000D01*
Y118000D02*
Y118500D01*
X475500Y117500D02*
X476000Y118000D01*
X475500Y117500D02*
X476000Y117000D01*
Y116500D02*
Y117000D01*
X475500Y116500D02*
X476000D01*
X475000Y117000D02*
X475500Y116500D01*
X474500D02*
X475000Y117000D01*
X474000Y116500D02*
X474500D01*
X512000Y114000D02*
Y114500D01*
X512500Y115000D01*
X512000Y115500D02*
X512500Y115000D01*
X512000Y115500D02*
Y116000D01*
X512500D01*
X513000Y115500D01*
X513500Y116000D01*
X514000D01*
Y115500D02*
Y116000D01*
X513500Y115000D02*
X514000Y115500D01*
X513500Y115000D02*
X514000Y114500D01*
Y114000D02*
Y114500D01*
X513500Y114000D02*
X514000D01*
X513000Y114500D02*
X513500Y114000D01*
X512500D02*
X513000Y114500D01*
X512000Y114000D02*
X512500D01*
X465000Y185000D02*
Y185500D01*
X465500Y186000D01*
X465000Y186500D02*
X465500Y186000D01*
X465000Y186500D02*
Y187000D01*
X465500D01*
X466000Y186500D01*
X466500Y187000D01*
X467000D01*
Y186500D02*
Y187000D01*
X466500Y186000D02*
X467000Y186500D01*
X466500Y186000D02*
X467000Y185500D01*
Y185000D02*
Y185500D01*
X466500Y185000D02*
X467000D01*
X466000Y185500D02*
X466500Y185000D01*
X465500D02*
X466000Y185500D01*
X465000Y185000D02*
X465500D01*
X413500Y216000D02*
Y216500D01*
X414000Y217000D01*
X413500Y217500D02*
X414000Y217000D01*
X413500Y217500D02*
Y218000D01*
X414000D01*
X414500Y217500D01*
X415000Y218000D01*
X415500D01*
Y217500D02*
Y218000D01*
X415000Y217000D02*
X415500Y217500D01*
X415000Y217000D02*
X415500Y216500D01*
Y216000D02*
Y216500D01*
X415000Y216000D02*
X415500D01*
X414500Y216500D02*
X415000Y216000D01*
X414000D02*
X414500Y216500D01*
X413500Y216000D02*
X414000D01*
X456500Y218339D02*
Y218839D01*
X457000Y219339D01*
X456500Y219839D02*
X457000Y219339D01*
X456500Y219839D02*
Y220339D01*
X457000D01*
X457500Y219839D01*
X458000Y220339D01*
X458500D01*
Y219839D02*
Y220339D01*
X458000Y219339D02*
X458500Y219839D01*
X458000Y219339D02*
X458500Y218839D01*
Y218339D02*
Y218839D01*
X458000Y218339D02*
X458500D01*
X457500Y218839D02*
X458000Y218339D01*
X457000D02*
X457500Y218839D01*
X456500Y218339D02*
X457000D01*
X504000Y148500D02*
Y149000D01*
X504500Y149500D01*
X504000Y150000D02*
X504500Y149500D01*
X504000Y150000D02*
Y150500D01*
X504500D01*
X505000Y150000D01*
X505500Y150500D01*
X506000D01*
Y150000D02*
Y150500D01*
X505500Y149500D02*
X506000Y150000D01*
X505500Y149500D02*
X506000Y149000D01*
Y148500D02*
Y149000D01*
X505500Y148500D02*
X506000D01*
X505000Y149000D02*
X505500Y148500D01*
X504500D02*
X505000Y149000D01*
X504000Y148500D02*
X504500D01*
X450500Y227500D02*
Y228000D01*
X451000Y228500D01*
X450500Y229000D02*
X451000Y228500D01*
X450500Y229000D02*
Y229500D01*
X451000D01*
X451500Y229000D01*
X452000Y229500D01*
X452500D01*
Y229000D02*
Y229500D01*
X452000Y228500D02*
X452500Y229000D01*
X452000Y228500D02*
X452500Y228000D01*
Y227500D02*
Y228000D01*
X452000Y227500D02*
X452500D01*
X451500Y228000D02*
X452000Y227500D01*
X451000D02*
X451500Y228000D01*
X450500Y227500D02*
X451000D01*
X532500Y226000D02*
Y226500D01*
X533000Y227000D01*
X532500Y227500D02*
X533000Y227000D01*
X532500Y227500D02*
Y228000D01*
X533000D01*
X533500Y227500D01*
X534000Y228000D01*
X534500D01*
Y227500D02*
Y228000D01*
X534000Y227000D02*
X534500Y227500D01*
X534000Y227000D02*
X534500Y226500D01*
Y226000D02*
Y226500D01*
X534000Y226000D02*
X534500D01*
X533500Y226500D02*
X534000Y226000D01*
X533000D02*
X533500Y226500D01*
X532500Y226000D02*
X533000D01*
Y149500D02*
Y150000D01*
X533500Y150500D01*
X533000Y151000D02*
X533500Y150500D01*
X533000Y151000D02*
Y151500D01*
X533500D01*
X534000Y151000D01*
X534500Y151500D01*
X535000D01*
Y151000D02*
Y151500D01*
X534500Y150500D02*
X535000Y151000D01*
X534500Y150500D02*
X535000Y150000D01*
Y149500D02*
Y150000D01*
X534500Y149500D02*
X535000D01*
X534000Y150000D02*
X534500Y149500D01*
X533500D02*
X534000Y150000D01*
X533000Y149500D02*
X533500D01*
X434000Y156000D02*
Y156500D01*
X434500Y157000D01*
X434000Y157500D02*
X434500Y157000D01*
X434000Y157500D02*
Y158000D01*
X434500D01*
X435000Y157500D01*
X435500Y158000D01*
X436000D01*
Y157500D02*
Y158000D01*
X435500Y157000D02*
X436000Y157500D01*
X435500Y157000D02*
X436000Y156500D01*
Y156000D02*
Y156500D01*
X435500Y156000D02*
X436000D01*
X435000Y156500D02*
X435500Y156000D01*
X434500D02*
X435000Y156500D01*
X434000Y156000D02*
X434500D01*
X411000Y277000D02*
Y277500D01*
X411500Y278000D01*
X411000Y278500D02*
X411500Y278000D01*
X411000Y278500D02*
Y279000D01*
X411500D01*
X412000Y278500D01*
X412500Y279000D01*
X413000D01*
Y278500D02*
Y279000D01*
X412500Y278000D02*
X413000Y278500D01*
X412500Y278000D02*
X413000Y277500D01*
Y277000D02*
Y277500D01*
X412500Y277000D02*
X413000D01*
X412000Y277500D02*
X412500Y277000D01*
X411500D02*
X412000Y277500D01*
X411000Y277000D02*
X411500D01*
X431000D02*
Y277500D01*
X431500Y278000D01*
X431000Y278500D02*
X431500Y278000D01*
X431000Y278500D02*
Y279000D01*
X431500D01*
X432000Y278500D01*
X432500Y279000D01*
X433000D01*
Y278500D02*
Y279000D01*
X432500Y278000D02*
X433000Y278500D01*
X432500Y278000D02*
X433000Y277500D01*
Y277000D02*
Y277500D01*
X432500Y277000D02*
X433000D01*
X432000Y277500D02*
X432500Y277000D01*
X431500D02*
X432000Y277500D01*
X431000Y277000D02*
X431500D01*
X413500Y251500D02*
Y252000D01*
X414000Y252500D01*
X413500Y253000D02*
X414000Y252500D01*
X413500Y253000D02*
Y253500D01*
X414000D01*
X414500Y253000D01*
X415000Y253500D01*
X415500D01*
Y253000D02*
Y253500D01*
X415000Y252500D02*
X415500Y253000D01*
X415000Y252500D02*
X415500Y252000D01*
Y251500D02*
Y252000D01*
X415000Y251500D02*
X415500D01*
X414500Y252000D02*
X415000Y251500D01*
X414000D02*
X414500Y252000D01*
X413500Y251500D02*
X414000D01*
X317177Y254630D02*
Y255130D01*
X317677Y255630D01*
X317177Y256130D02*
X317677Y255630D01*
X317177Y256130D02*
Y256630D01*
X317677D01*
X318177Y256130D01*
X318677Y256630D01*
X319177D01*
Y256130D02*
Y256630D01*
X318677Y255630D02*
X319177Y256130D01*
X318677Y255630D02*
X319177Y255130D01*
Y254630D02*
Y255130D01*
X318677Y254630D02*
X319177D01*
X318177Y255130D02*
X318677Y254630D01*
X317677D02*
X318177Y255130D01*
X317177Y254630D02*
X317677D01*
X378449Y331000D02*
Y331500D01*
X378949Y332000D01*
X378449Y332500D02*
X378949Y332000D01*
X378449Y332500D02*
Y333000D01*
X378949D01*
X379449Y332500D01*
X379949Y333000D01*
X380449D01*
Y332500D02*
Y333000D01*
X379949Y332000D02*
X380449Y332500D01*
X379949Y332000D02*
X380449Y331500D01*
Y331000D02*
Y331500D01*
X379949Y331000D02*
X380449D01*
X379449Y331500D02*
X379949Y331000D01*
X378949D02*
X379449Y331500D01*
X378449Y331000D02*
X378949D01*
X319000Y292500D02*
Y293000D01*
X319500Y293500D01*
X319000Y294000D02*
X319500Y293500D01*
X319000Y294000D02*
Y294500D01*
X319500D01*
X320000Y294000D01*
X320500Y294500D01*
X321000D01*
Y294000D02*
Y294500D01*
X320500Y293500D02*
X321000Y294000D01*
X320500Y293500D02*
X321000Y293000D01*
Y292500D02*
Y293000D01*
X320500Y292500D02*
X321000D01*
X320000Y293000D02*
X320500Y292500D01*
X319500D02*
X320000Y293000D01*
X319000Y292500D02*
X319500D01*
X338000Y294500D02*
Y295000D01*
X338500Y295500D01*
X338000Y296000D02*
X338500Y295500D01*
X338000Y296000D02*
Y296500D01*
X338500D01*
X339000Y296000D01*
X339500Y296500D01*
X340000D01*
Y296000D02*
Y296500D01*
X339500Y295500D02*
X340000Y296000D01*
X339500Y295500D02*
X340000Y295000D01*
Y294500D02*
Y295000D01*
X339500Y294500D02*
X340000D01*
X339000Y295000D02*
X339500Y294500D01*
X338500D02*
X339000Y295000D01*
X338000Y294500D02*
X338500D01*
X340500Y331500D02*
Y332000D01*
X341000Y332500D01*
X340500Y333000D02*
X341000Y332500D01*
X340500Y333000D02*
Y333500D01*
X341000D01*
X341500Y333000D01*
X342000Y333500D01*
X342500D01*
Y333000D02*
Y333500D01*
X342000Y332500D02*
X342500Y333000D01*
X342000Y332500D02*
X342500Y332000D01*
Y331500D02*
Y332000D01*
X342000Y331500D02*
X342500D01*
X341500Y332000D02*
X342000Y331500D01*
X341000D02*
X341500Y332000D01*
X340500Y331500D02*
X341000D01*
X344559Y313500D02*
Y314000D01*
X345059Y314500D01*
X344559Y315000D02*
X345059Y314500D01*
X344559Y315000D02*
Y315500D01*
X345059D01*
X345559Y315000D01*
X346059Y315500D01*
X346559D01*
Y315000D02*
Y315500D01*
X346059Y314500D02*
X346559Y315000D01*
X346059Y314500D02*
X346559Y314000D01*
Y313500D02*
Y314000D01*
X346059Y313500D02*
X346559D01*
X345559Y314000D02*
X346059Y313500D01*
X345059D02*
X345559Y314000D01*
X344559Y313500D02*
X345059D01*
X427000Y292500D02*
Y293000D01*
X427500Y293500D01*
X427000Y294000D02*
X427500Y293500D01*
X427000Y294000D02*
Y294500D01*
X427500D01*
X428000Y294000D01*
X428500Y294500D01*
X429000D01*
Y294000D02*
Y294500D01*
X428500Y293500D02*
X429000Y294000D01*
X428500Y293500D02*
X429000Y293000D01*
Y292500D02*
Y293000D01*
X428500Y292500D02*
X429000D01*
X428000Y293000D02*
X428500Y292500D01*
X427500D02*
X428000Y293000D01*
X427000Y292500D02*
X427500D01*
X426500Y312000D02*
Y312500D01*
X427000Y313000D01*
X426500Y313500D02*
X427000Y313000D01*
X426500Y313500D02*
Y314000D01*
X427000D01*
X427500Y313500D01*
X428000Y314000D01*
X428500D01*
Y313500D02*
Y314000D01*
X428000Y313000D02*
X428500Y313500D01*
X428000Y313000D02*
X428500Y312500D01*
Y312000D02*
Y312500D01*
X428000Y312000D02*
X428500D01*
X427500Y312500D02*
X428000Y312000D01*
X427000D02*
X427500Y312500D01*
X426500Y312000D02*
X427000D01*
X423000Y263500D02*
Y264000D01*
X423500Y264500D01*
X423000Y265000D02*
X423500Y264500D01*
X423000Y265000D02*
Y265500D01*
X423500D01*
X424000Y265000D01*
X424500Y265500D01*
X425000D01*
Y265000D02*
Y265500D01*
X424500Y264500D02*
X425000Y265000D01*
X424500Y264500D02*
X425000Y264000D01*
Y263500D02*
Y264000D01*
X424500Y263500D02*
X425000D01*
X424000Y264000D02*
X424500Y263500D01*
X423500D02*
X424000Y264000D01*
X423000Y263500D02*
X423500D01*
X310000Y263000D02*
Y263500D01*
X310500Y264000D01*
X310000Y264500D02*
X310500Y264000D01*
X310000Y264500D02*
Y265000D01*
X310500D01*
X311000Y264500D01*
X311500Y265000D01*
X312000D01*
Y264500D02*
Y265000D01*
X311500Y264000D02*
X312000Y264500D01*
X311500Y264000D02*
X312000Y263500D01*
Y263000D02*
Y263500D01*
X311500Y263000D02*
X312000D01*
X311000Y263500D02*
X311500Y263000D01*
X310500D02*
X311000Y263500D01*
X310000Y263000D02*
X310500D01*
X373000Y271250D02*
Y271750D01*
X373500Y272250D01*
X373000Y272750D02*
X373500Y272250D01*
X373000Y272750D02*
Y273250D01*
X373500D01*
X374000Y272750D01*
X374500Y273250D01*
X375000D01*
Y272750D02*
Y273250D01*
X374500Y272250D02*
X375000Y272750D01*
X374500Y272250D02*
X375000Y271750D01*
Y271250D02*
Y271750D01*
X374500Y271250D02*
X375000D01*
X374000Y271750D02*
X374500Y271250D01*
X373500D02*
X374000Y271750D01*
X373000Y271250D02*
X373500D01*
X353000Y295500D02*
Y296000D01*
X353500Y296500D01*
X353000Y297000D02*
X353500Y296500D01*
X353000Y297000D02*
Y297500D01*
X353500D01*
X354000Y297000D01*
X354500Y297500D01*
X355000D01*
Y297000D02*
Y297500D01*
X354500Y296500D02*
X355000Y297000D01*
X354500Y296500D02*
X355000Y296000D01*
Y295500D02*
Y296000D01*
X354500Y295500D02*
X355000D01*
X354000Y296000D02*
X354500Y295500D01*
X353500D02*
X354000Y296000D01*
X353000Y295500D02*
X353500D01*
X38000Y11000D02*
Y11500D01*
X38500Y12000D01*
X38000Y12500D02*
X38500Y12000D01*
X38000Y12500D02*
Y13000D01*
X38500D01*
X39000Y12500D01*
X39500Y13000D01*
X40000D01*
Y12500D02*
Y13000D01*
X39500Y12000D02*
X40000Y12500D01*
X39500Y12000D02*
X40000Y11500D01*
Y11000D02*
Y11500D01*
X39500Y11000D02*
X40000D01*
X39000Y11500D02*
X39500Y11000D01*
X38500D02*
X39000Y11500D01*
X38000Y11000D02*
X38500D01*
X19000Y42000D02*
Y42500D01*
X19500Y43000D01*
X19000Y43500D02*
X19500Y43000D01*
X19000Y43500D02*
Y44000D01*
X19500D01*
X20000Y43500D01*
X20500Y44000D01*
X21000D01*
Y43500D02*
Y44000D01*
X20500Y43000D02*
X21000Y43500D01*
X20500Y43000D02*
X21000Y42500D01*
Y42000D02*
Y42500D01*
X20500Y42000D02*
X21000D01*
X20000Y42500D02*
X20500Y42000D01*
X19500D02*
X20000Y42500D01*
X19000Y42000D02*
X19500D01*
X484450Y149500D02*
Y150000D01*
X484950Y150500D01*
X484450Y151000D02*
X484950Y150500D01*
X484450Y151000D02*
Y151500D01*
X484950D01*
X485450Y151000D01*
X485950Y151500D01*
X486450D01*
Y151000D02*
Y151500D01*
X485950Y150500D02*
X486450Y151000D01*
X485950Y150500D02*
X486450Y150000D01*
Y149500D02*
Y150000D01*
X485950Y149500D02*
X486450D01*
X485450Y150000D02*
X485950Y149500D01*
X484950D02*
X485450Y150000D01*
X484450Y149500D02*
X484950D01*
X413500Y130161D02*
Y130661D01*
X414000Y131161D01*
X413500Y131661D02*
X414000Y131161D01*
X413500Y131661D02*
Y132161D01*
X414000D01*
X414500Y131661D01*
X415000Y132161D01*
X415500D01*
Y131661D02*
Y132161D01*
X415000Y131161D02*
X415500Y131661D01*
X415000Y131161D02*
X415500Y130661D01*
Y130161D02*
Y130661D01*
X415000Y130161D02*
X415500D01*
X414500Y130661D02*
X415000Y130161D01*
X414000D02*
X414500Y130661D01*
X413500Y130161D02*
X414000D01*
X446642Y64000D02*
Y64500D01*
X447142Y65000D01*
X446642Y65500D02*
X447142Y65000D01*
X446642Y65500D02*
Y66000D01*
X447142D01*
X447642Y65500D01*
X448142Y66000D01*
X448642D01*
Y65500D02*
Y66000D01*
X448142Y65000D02*
X448642Y65500D01*
X448142Y65000D02*
X448642Y64500D01*
Y64000D02*
Y64500D01*
X448142Y64000D02*
X448642D01*
X447642Y64500D02*
X448142Y64000D01*
X447142D02*
X447642Y64500D01*
X446642Y64000D02*
X447142D01*
X439135Y66071D02*
Y66571D01*
X439635Y67071D01*
X439135Y67571D02*
X439635Y67071D01*
X439135Y67571D02*
Y68071D01*
X439635D01*
X440135Y67571D01*
X440635Y68071D01*
X441135D01*
Y67571D02*
Y68071D01*
X440635Y67071D02*
X441135Y67571D01*
X440635Y67071D02*
X441135Y66571D01*
Y66071D02*
Y66571D01*
X440635Y66071D02*
X441135D01*
X440135Y66571D02*
X440635Y66071D01*
X439635D02*
X440135Y66571D01*
X439135Y66071D02*
X439635D01*
X8500Y12553D02*
Y13053D01*
X9000Y13553D01*
X8500Y14053D02*
X9000Y13553D01*
X8500Y14053D02*
Y14553D01*
X9000D01*
X9500Y14053D01*
X10000Y14553D01*
X10500D01*
Y14053D02*
Y14553D01*
X10000Y13553D02*
X10500Y14053D01*
X10000Y13553D02*
X10500Y13053D01*
Y12553D02*
Y13053D01*
X10000Y12553D02*
X10500D01*
X9500Y13053D02*
X10000Y12553D01*
X9000D02*
X9500Y13053D01*
X8500Y12553D02*
X9000D01*
X419000Y114000D02*
Y114500D01*
X419500Y115000D01*
X419000Y115500D02*
X419500Y115000D01*
X419000Y115500D02*
Y116000D01*
X419500D01*
X420000Y115500D01*
X420500Y116000D01*
X421000D01*
Y115500D02*
Y116000D01*
X420500Y115000D02*
X421000Y115500D01*
X420500Y115000D02*
X421000Y114500D01*
Y114000D02*
Y114500D01*
X420500Y114000D02*
X421000D01*
X420000Y114500D02*
X420500Y114000D01*
X419500D02*
X420000Y114500D01*
X419000Y114000D02*
X419500D01*
X474500Y163169D02*
Y163669D01*
X475000Y164169D01*
X474500Y164669D02*
X475000Y164169D01*
X474500Y164669D02*
Y165169D01*
X475000D01*
X475500Y164669D01*
X476000Y165169D01*
X476500D01*
Y164669D02*
Y165169D01*
X476000Y164169D02*
X476500Y164669D01*
X476000Y164169D02*
X476500Y163669D01*
Y163169D02*
Y163669D01*
X476000Y163169D02*
X476500D01*
X475500Y163669D02*
X476000Y163169D01*
X475000D02*
X475500Y163669D01*
X474500Y163169D02*
X475000D01*
X322000Y4500D02*
Y5000D01*
X322500Y5500D01*
X322000Y6000D02*
X322500Y5500D01*
X322000Y6000D02*
Y6500D01*
X322500D01*
X323000Y6000D01*
X323500Y6500D01*
X324000D01*
Y6000D02*
Y6500D01*
X323500Y5500D02*
X324000Y6000D01*
X323500Y5500D02*
X324000Y5000D01*
Y4500D02*
Y5000D01*
X323500Y4500D02*
X324000D01*
X323000Y5000D02*
X323500Y4500D01*
X322500D02*
X323000Y5000D01*
X322000Y4500D02*
X322500D01*
X271000Y12000D02*
Y12500D01*
X271500Y13000D01*
X271000Y13500D02*
X271500Y13000D01*
X271000Y13500D02*
Y14000D01*
X271500D01*
X272000Y13500D01*
X272500Y14000D01*
X273000D01*
Y13500D02*
Y14000D01*
X272500Y13000D02*
X273000Y13500D01*
X272500Y13000D02*
X273000Y12500D01*
Y12000D02*
Y12500D01*
X272500Y12000D02*
X273000D01*
X272000Y12500D02*
X272500Y12000D01*
X271500D02*
X272000Y12500D01*
X271000Y12000D02*
X271500D01*
X456500Y49500D02*
Y50000D01*
X457000Y50500D01*
X456500Y51000D02*
X457000Y50500D01*
X456500Y51000D02*
Y51500D01*
X457000D01*
X457500Y51000D01*
X458000Y51500D01*
X458500D01*
Y51000D02*
Y51500D01*
X458000Y50500D02*
X458500Y51000D01*
X458000Y50500D02*
X458500Y50000D01*
Y49500D02*
Y50000D01*
X458000Y49500D02*
X458500D01*
X457500Y50000D02*
X458000Y49500D01*
X457000D02*
X457500Y50000D01*
X456500Y49500D02*
X457000D01*
X539000Y6000D02*
Y6500D01*
X539500Y7000D01*
X539000Y7500D02*
X539500Y7000D01*
X539000Y7500D02*
Y8000D01*
X539500D01*
X540000Y7500D01*
X540500Y8000D01*
X541000D01*
Y7500D02*
Y8000D01*
X540500Y7000D02*
X541000Y7500D01*
X540500Y7000D02*
X541000Y6500D01*
Y6000D02*
Y6500D01*
X540500Y6000D02*
X541000D01*
X540000Y6500D02*
X540500Y6000D01*
X539500D02*
X540000Y6500D01*
X539000Y6000D02*
X539500D01*
X270500Y26500D02*
Y27000D01*
X271000Y27500D01*
X270500Y28000D02*
X271000Y27500D01*
X270500Y28000D02*
Y28500D01*
X271000D01*
X271500Y28000D01*
X272000Y28500D01*
X272500D01*
Y28000D02*
Y28500D01*
X272000Y27500D02*
X272500Y28000D01*
X272000Y27500D02*
X272500Y27000D01*
Y26500D02*
Y27000D01*
X272000Y26500D02*
X272500D01*
X271500Y27000D02*
X272000Y26500D01*
X271000D02*
X271500Y27000D01*
X270500Y26500D02*
X271000D01*
X289740Y39000D02*
Y39500D01*
X290240Y40000D01*
X289740Y40500D02*
X290240Y40000D01*
X289740Y40500D02*
Y41000D01*
X290240D01*
X290740Y40500D01*
X291240Y41000D01*
X291740D01*
Y40500D02*
Y41000D01*
X291240Y40000D02*
X291740Y40500D01*
X291240Y40000D02*
X291740Y39500D01*
Y39000D02*
Y39500D01*
X291240Y39000D02*
X291740D01*
X290740Y39500D02*
X291240Y39000D01*
X290240D02*
X290740Y39500D01*
X289740Y39000D02*
X290240D01*
X310500Y38500D02*
Y39000D01*
X311000Y39500D01*
X310500Y40000D02*
X311000Y39500D01*
X310500Y40000D02*
Y40500D01*
X311000D01*
X311500Y40000D01*
X312000Y40500D01*
X312500D01*
Y40000D02*
Y40500D01*
X312000Y39500D02*
X312500Y40000D01*
X312000Y39500D02*
X312500Y39000D01*
Y38500D02*
Y39000D01*
X312000Y38500D02*
X312500D01*
X311500Y39000D02*
X312000Y38500D01*
X311000D02*
X311500Y39000D01*
X310500Y38500D02*
X311000D01*
X492500Y187500D02*
Y188000D01*
X493000Y188500D01*
X492500Y189000D02*
X493000Y188500D01*
X492500Y189000D02*
Y189500D01*
X493000D01*
X493500Y189000D01*
X494000Y189500D01*
X494500D01*
Y189000D02*
Y189500D01*
X494000Y188500D02*
X494500Y189000D01*
X494000Y188500D02*
X494500Y188000D01*
Y187500D02*
Y188000D01*
X494000Y187500D02*
X494500D01*
X493500Y188000D02*
X494000Y187500D01*
X493000D02*
X493500Y188000D01*
X492500Y187500D02*
X493000D01*
X335500Y108000D02*
Y108500D01*
X336000Y109000D01*
X335500Y109500D02*
X336000Y109000D01*
X335500Y109500D02*
Y110000D01*
X336000D01*
X336500Y109500D01*
X337000Y110000D01*
X337500D01*
Y109500D02*
Y110000D01*
X337000Y109000D02*
X337500Y109500D01*
X337000Y109000D02*
X337500Y108500D01*
Y108000D02*
Y108500D01*
X337000Y108000D02*
X337500D01*
X336500Y108500D02*
X337000Y108000D01*
X336000D02*
X336500Y108500D01*
X335500Y108000D02*
X336000D01*
X405500Y83000D02*
Y83500D01*
X406000Y84000D01*
X405500Y84500D02*
X406000Y84000D01*
X405500Y84500D02*
Y85000D01*
X406000D01*
X406500Y84500D01*
X407000Y85000D01*
X407500D01*
Y84500D02*
Y85000D01*
X407000Y84000D02*
X407500Y84500D01*
X407000Y84000D02*
X407500Y83500D01*
Y83000D02*
Y83500D01*
X407000Y83000D02*
X407500D01*
X406500Y83500D02*
X407000Y83000D01*
X406000D02*
X406500Y83500D01*
X405500Y83000D02*
X406000D01*
X421421Y149110D02*
Y149610D01*
X421921Y150110D01*
X421421Y150610D02*
X421921Y150110D01*
X421421Y150610D02*
Y151110D01*
X421921D01*
X422421Y150610D01*
X422921Y151110D01*
X423421D01*
Y150610D02*
Y151110D01*
X422921Y150110D02*
X423421Y150610D01*
X422921Y150110D02*
X423421Y149610D01*
Y149110D02*
Y149610D01*
X422921Y149110D02*
X423421D01*
X422421Y149610D02*
X422921Y149110D01*
X421921D02*
X422421Y149610D01*
X421421Y149110D02*
X421921D01*
X303543Y358500D02*
Y359000D01*
X304043Y359500D01*
X303543Y360000D02*
X304043Y359500D01*
X303543Y360000D02*
Y360500D01*
X304043D01*
X304543Y360000D01*
X305043Y360500D01*
X305543D01*
Y360000D02*
Y360500D01*
X305043Y359500D02*
X305543Y360000D01*
X305043Y359500D02*
X305543Y359000D01*
Y358500D02*
Y359000D01*
X305043Y358500D02*
X305543D01*
X304543Y359000D02*
X305043Y358500D01*
X304043D02*
X304543Y359000D01*
X303543Y358500D02*
X304043D01*
X74000Y120000D02*
Y120500D01*
X74500Y121000D01*
X74000Y121500D02*
X74500Y121000D01*
X74000Y121500D02*
Y122000D01*
X74500D01*
X75000Y121500D01*
X75500Y122000D01*
X76000D01*
Y121500D02*
Y122000D01*
X75500Y121000D02*
X76000Y121500D01*
X75500Y121000D02*
X76000Y120500D01*
Y120000D02*
Y120500D01*
X75500Y120000D02*
X76000D01*
X75000Y120500D02*
X75500Y120000D01*
X74500D02*
X75000Y120500D01*
X74000Y120000D02*
X74500D01*
X246000D02*
Y120500D01*
X246500Y121000D01*
X246000Y121500D02*
X246500Y121000D01*
X246000Y121500D02*
Y122000D01*
X246500D01*
X247000Y121500D01*
X247500Y122000D01*
X248000D01*
Y121500D02*
Y122000D01*
X247500Y121000D02*
X248000Y121500D01*
X247500Y121000D02*
X248000Y120500D01*
Y120000D02*
Y120500D01*
X247500Y120000D02*
X248000D01*
X247000Y120500D02*
X247500Y120000D01*
X246500D02*
X247000Y120500D01*
X246000Y120000D02*
X246500D01*
X247000Y39000D02*
Y39500D01*
X247500Y40000D01*
X247000Y40500D02*
X247500Y40000D01*
X247000Y40500D02*
Y41000D01*
X247500D01*
X248000Y40500D01*
X248500Y41000D01*
X249000D01*
Y40500D02*
Y41000D01*
X248500Y40000D02*
X249000Y40500D01*
X248500Y40000D02*
X249000Y39500D01*
Y39000D02*
Y39500D01*
X248500Y39000D02*
X249000D01*
X248000Y39500D02*
X248500Y39000D01*
X247500D02*
X248000Y39500D01*
X247000Y39000D02*
X247500D01*
X434000Y149000D02*
Y149500D01*
X434500Y150000D01*
X434000Y150500D02*
X434500Y150000D01*
X434000Y150500D02*
Y151000D01*
X434500D01*
X435000Y150500D01*
X435500Y151000D01*
X436000D01*
Y150500D02*
Y151000D01*
X435500Y150000D02*
X436000Y150500D01*
X435500Y150000D02*
X436000Y149500D01*
Y149000D02*
Y149500D01*
X435500Y149000D02*
X436000D01*
X435000Y149500D02*
X435500Y149000D01*
X434500D02*
X435000Y149500D01*
X434000Y149000D02*
X434500D01*
X367000Y42500D02*
Y43000D01*
X367500Y43500D01*
X367000Y44000D02*
X367500Y43500D01*
X367000Y44000D02*
Y44500D01*
X367500D01*
X368000Y44000D01*
X368500Y44500D01*
X369000D01*
Y44000D02*
Y44500D01*
X368500Y43500D02*
X369000Y44000D01*
X368500Y43500D02*
X369000Y43000D01*
Y42500D02*
Y43000D01*
X368500Y42500D02*
X369000D01*
X368000Y43000D02*
X368500Y42500D01*
X367500D02*
X368000Y43000D01*
X367000Y42500D02*
X367500D01*
X482000Y93500D02*
Y94000D01*
X482500Y94500D01*
X482000Y95000D02*
X482500Y94500D01*
X482000Y95000D02*
Y95500D01*
X482500D01*
X483000Y95000D01*
X483500Y95500D01*
X484000D01*
Y95000D02*
Y95500D01*
X483500Y94500D02*
X484000Y95000D01*
X483500Y94500D02*
X484000Y94000D01*
Y93500D02*
Y94000D01*
X483500Y93500D02*
X484000D01*
X483000Y94000D02*
X483500Y93500D01*
X482500D02*
X483000Y94000D01*
X482000Y93500D02*
X482500D01*
X497000Y129000D02*
Y129500D01*
X497500Y130000D01*
X497000Y130500D02*
X497500Y130000D01*
X497000Y130500D02*
Y131000D01*
X497500D01*
X498000Y130500D01*
X498500Y131000D01*
X499000D01*
Y130500D02*
Y131000D01*
X498500Y130000D02*
X499000Y130500D01*
X498500Y130000D02*
X499000Y129500D01*
Y129000D02*
Y129500D01*
X498500Y129000D02*
X499000D01*
X498000Y129500D02*
X498500Y129000D01*
X497500D02*
X498000Y129500D01*
X497000Y129000D02*
X497500D01*
X573598Y118307D02*
X574598Y118807D01*
X575598Y118307D01*
X575098Y119307D02*
X575598Y118307D01*
X575098Y119307D02*
X575598Y120307D01*
X574598Y119807D02*
X575598Y120307D01*
X573598D02*
X574598Y119807D01*
X573598Y120307D02*
X574098Y119307D01*
X573598Y118307D02*
X574098Y119307D01*
X573598Y216693D02*
X574598Y217193D01*
X575598Y216693D01*
X575098Y217693D02*
X575598Y216693D01*
X575098Y217693D02*
X575598Y218693D01*
X574598Y218193D02*
X575598Y218693D01*
X573598D02*
X574598Y218193D01*
X573598Y218693D02*
X574098Y217693D01*
X573598Y216693D02*
X574098Y217693D01*
X568508Y189811D02*
X569008Y189311D01*
X568008Y189811D02*
X568508D01*
X568008D02*
X568508Y190311D01*
X568008Y190811D02*
X568508Y190311D01*
X568008Y190811D02*
X568508D01*
X569008Y191311D01*
X569508Y190811D01*
X570008D01*
X569508Y190311D02*
X570008Y190811D01*
X569508Y190311D02*
X570008Y189811D01*
X569508D02*
X570008D01*
X569008Y189311D02*
X569508Y189811D01*
X579689Y184358D02*
X580189Y183858D01*
X579189Y184358D02*
X579689D01*
X579189D02*
X579689Y184858D01*
X579189Y185358D02*
X579689Y184858D01*
X579189Y185358D02*
X579689D01*
X580189Y185858D01*
X580689Y185358D01*
X581189D01*
X580689Y184858D02*
X581189Y185358D01*
X580689Y184858D02*
X581189Y184358D01*
X580689D02*
X581189D01*
X580189Y183858D02*
X580689Y184358D01*
X568508Y178905D02*
X569008Y178405D01*
X568008Y178905D02*
X568508D01*
X568008D02*
X568508Y179405D01*
X568008Y179905D02*
X568508Y179405D01*
X568008Y179905D02*
X568508D01*
X569008Y180405D01*
X569508Y179905D01*
X570008D01*
X569508Y179405D02*
X570008Y179905D01*
X569508Y179405D02*
X570008Y178905D01*
X569508D02*
X570008D01*
X569008Y178405D02*
X569508Y178905D01*
X579689Y173453D02*
X580189Y172953D01*
X579189Y173453D02*
X579689D01*
X579189D02*
X579689Y173953D01*
X579189Y174453D02*
X579689Y173953D01*
X579189Y174453D02*
X579689D01*
X580189Y174953D01*
X580689Y174453D01*
X581189D01*
X580689Y173953D02*
X581189Y174453D01*
X580689Y173953D02*
X581189Y173453D01*
X580689D02*
X581189D01*
X580189Y172953D02*
X580689Y173453D01*
X568508Y168000D02*
X569008Y167500D01*
X568008Y168000D02*
X568508D01*
X568008D02*
X568508Y168500D01*
X568008Y169000D02*
X568508Y168500D01*
X568008Y169000D02*
X568508D01*
X569008Y169500D01*
X569508Y169000D01*
X570008D01*
X569508Y168500D02*
X570008Y169000D01*
X569508Y168500D02*
X570008Y168000D01*
X569508D02*
X570008D01*
X569008Y167500D02*
X569508Y168000D01*
X579689Y162547D02*
X580189Y162047D01*
X579189Y162547D02*
X579689D01*
X579189D02*
X579689Y163047D01*
X579189Y163547D02*
X579689Y163047D01*
X579189Y163547D02*
X579689D01*
X580189Y164047D01*
X580689Y163547D01*
X581189D01*
X580689Y163047D02*
X581189Y163547D01*
X580689Y163047D02*
X581189Y162547D01*
X580689D02*
X581189D01*
X580189Y162047D02*
X580689Y162547D01*
X568508Y157095D02*
X569008Y156595D01*
X568008Y157095D02*
X568508D01*
X568008D02*
X568508Y157595D01*
X568008Y158095D02*
X568508Y157595D01*
X568008Y158095D02*
X568508D01*
X569008Y158595D01*
X569508Y158095D01*
X570008D01*
X569508Y157595D02*
X570008Y158095D01*
X569508Y157595D02*
X570008Y157095D01*
X569508D02*
X570008D01*
X569008Y156595D02*
X569508Y157095D01*
X579689Y151642D02*
X580189Y151142D01*
X579189Y151642D02*
X579689D01*
X579189D02*
X579689Y152142D01*
X579189Y152642D02*
X579689Y152142D01*
X579189Y152642D02*
X579689D01*
X580189Y153142D01*
X580689Y152642D01*
X581189D01*
X580689Y152142D02*
X581189Y152642D01*
X580689Y152142D02*
X581189Y151642D01*
X580689D02*
X581189D01*
X580189Y151142D02*
X580689Y151642D01*
X568508Y146189D02*
X569008Y145689D01*
X568008Y146189D02*
X568508D01*
X568008D02*
X568508Y146689D01*
X568008Y147189D02*
X568508Y146689D01*
X568008Y147189D02*
X568508D01*
X569008Y147689D01*
X569508Y147189D01*
X570008D01*
X569508Y146689D02*
X570008Y147189D01*
X569508Y146689D02*
X570008Y146189D01*
X569508D02*
X570008D01*
X569008Y145689D02*
X569508Y146189D01*
X470000Y27000D02*
X471000Y29000D01*
X469000D02*
X471000D01*
X469000D02*
X470000Y27000D01*
X450000D02*
X451000Y29000D01*
X449000D02*
X451000D01*
X449000D02*
X450000Y27000D01*
X374500Y217500D02*
X375500Y219500D01*
X373500D02*
X375500D01*
X373500D02*
X374500Y217500D01*
X384500D02*
X385500Y219500D01*
X383500D02*
X385500D01*
X383500D02*
X384500Y217500D01*
X394500D02*
X395500Y219500D01*
X393500D02*
X395500D01*
X393500D02*
X394500Y217500D01*
X531000Y27283D02*
X532000Y29283D01*
X530000D02*
X532000D01*
X530000D02*
X531000Y27283D01*
X511000D02*
X512000Y29283D01*
X510000D02*
X512000D01*
X510000D02*
X511000Y27283D01*
D66*
X1071859Y408859D02*
X1077859Y414859D01*
X1065859Y408859D02*
X1077859Y420859D01*
X1059859Y408859D02*
X1071859Y420859D01*
X1053859Y408859D02*
X1065859Y420859D01*
X1047859Y408859D02*
X1059859Y420859D01*
X1041859Y408859D02*
X1053859Y420859D01*
X1035859Y408859D02*
X1047859Y420859D01*
X1029859Y408859D02*
X1041859Y420859D01*
X1023859Y408859D02*
X1035859Y420859D01*
X1017859Y408859D02*
X1029859Y420859D01*
X1011859Y408859D02*
X1023859Y420859D01*
X1005859Y408859D02*
X1017859Y420859D01*
X999859Y408859D02*
X1011859Y420859D01*
X993859Y408859D02*
X1005859Y420859D01*
X987859Y408859D02*
X999859Y420859D01*
X981859Y408859D02*
X993859Y420859D01*
X975859Y408859D02*
X987859Y420859D01*
X969859Y408859D02*
X981859Y420859D01*
X965891Y410891D02*
X975859Y420859D01*
X965891Y416891D02*
X969859Y420859D01*
X1071859D02*
X1077859Y426859D01*
X1065859Y420859D02*
X1077859Y432859D01*
X1059859Y420859D02*
X1071859Y432859D01*
X1053859Y420859D02*
X1065859Y432859D01*
X1047859Y420859D02*
X1059859Y432859D01*
X1041859Y420859D02*
X1053859Y432859D01*
X1035859Y420859D02*
X1047859Y432859D01*
X1029859Y420859D02*
X1041859Y432859D01*
X1023859Y420859D02*
X1035859Y432859D01*
X1017859Y420859D02*
X1029859Y432859D01*
X1011859Y420859D02*
X1023859Y432859D01*
X1005859Y420859D02*
X1017859Y432859D01*
X999859Y420859D02*
X1011859Y432859D01*
X993859Y420859D02*
X1005859Y432859D01*
X987859Y420859D02*
X999859Y432859D01*
X981859Y420859D02*
X993859Y432859D01*
X975859Y420859D02*
X987859Y432859D01*
X969859Y420859D02*
X981859Y432859D01*
X965891Y422891D02*
X975859Y432859D01*
X965891Y428891D02*
X969859Y432859D01*
X1071859D02*
X1077859Y438859D01*
X1065859Y432859D02*
X1077859Y444859D01*
X1059859Y432859D02*
X1071859Y444859D01*
X1053859Y432859D02*
X1065859Y444859D01*
X1047859Y432859D02*
X1059859Y444859D01*
X1041859Y432859D02*
X1053859Y444859D01*
X1035859Y432859D02*
X1047859Y444859D01*
X1029859Y432859D02*
X1041859Y444859D01*
X1023859Y432859D02*
X1035859Y444859D01*
X1017859Y432859D02*
X1029859Y444859D01*
X1011859Y432859D02*
X1023859Y444859D01*
X1005859Y432859D02*
X1017859Y444859D01*
X999859Y432859D02*
X1011859Y444859D01*
X993859Y432859D02*
X1005859Y444859D01*
X987859Y432859D02*
X999859Y444859D01*
X981859Y432859D02*
X993859Y444859D01*
X975859Y432859D02*
X987859Y444859D01*
X969859Y432859D02*
X981859Y444859D01*
X965891Y434891D02*
X975859Y444859D01*
X965891Y440891D02*
X969859Y444859D01*
X1071859D02*
X1077859Y450859D01*
X1065859Y444859D02*
X1077859Y456859D01*
X1059859Y444859D02*
X1071859Y456859D01*
X1053859Y444859D02*
X1065859Y456859D01*
X1047859Y444859D02*
X1059859Y456859D01*
X1041859Y444859D02*
X1053859Y456859D01*
X1035859Y444859D02*
X1047859Y456859D01*
X1029859Y444859D02*
X1041859Y456859D01*
X1023859Y444859D02*
X1035859Y456859D01*
X1017859Y444859D02*
X1029859Y456859D01*
X1011859Y444859D02*
X1023859Y456859D01*
X1005859Y444859D02*
X1017859Y456859D01*
X999859Y444859D02*
X1011859Y456859D01*
X993859Y444859D02*
X1005859Y456859D01*
X987859Y444859D02*
X999859Y456859D01*
X981859Y444859D02*
X993859Y456859D01*
X975859Y444859D02*
X987859Y456859D01*
X969859Y444859D02*
X981859Y456859D01*
X965891Y446891D02*
X975859Y456859D01*
X965891Y452891D02*
X969859Y456859D01*
X1071859D02*
X1077859Y462859D01*
X1065859Y456859D02*
X1077859Y468859D01*
X1059859Y456859D02*
X1071859Y468859D01*
X1053859Y456859D02*
X1065859Y468859D01*
X1047859Y456859D02*
X1059859Y468859D01*
X1041859Y456859D02*
X1053859Y468859D01*
X1035859Y456859D02*
X1047859Y468859D01*
X1029859Y456859D02*
X1041859Y468859D01*
X1023859Y456859D02*
X1035859Y468859D01*
X1017859Y456859D02*
X1029859Y468859D01*
X1011859Y456859D02*
X1023859Y468859D01*
X1005859Y456859D02*
X1017859Y468859D01*
X999859Y456859D02*
X1011859Y468859D01*
X993859Y456859D02*
X1005859Y468859D01*
X987859Y456859D02*
X999859Y468859D01*
X981859Y456859D02*
X993859Y468859D01*
X975859Y456859D02*
X987859Y468859D01*
X969859Y456859D02*
X981859Y468859D01*
X965891Y458891D02*
X975859Y468859D01*
X965891Y464891D02*
X969859Y468859D01*
X1071859D02*
X1077859Y474859D01*
X1065859Y468859D02*
X1077859Y480859D01*
X1059859Y468859D02*
X1071859Y480859D01*
X1053859Y468859D02*
X1065859Y480859D01*
X1047859Y468859D02*
X1059859Y480859D01*
X1041859Y468859D02*
X1053859Y480859D01*
X1035859Y468859D02*
X1047859Y480859D01*
X1029859Y468859D02*
X1041859Y480859D01*
X1023859Y468859D02*
X1035859Y480859D01*
X1017859Y468859D02*
X1029859Y480859D01*
X1011859Y468859D02*
X1023859Y480859D01*
X1005859Y468859D02*
X1017859Y480859D01*
X999859Y468859D02*
X1011859Y480859D01*
X993859Y468859D02*
X1005859Y480859D01*
X987859Y468859D02*
X999859Y480859D01*
X981859Y468859D02*
X993859Y480859D01*
X975859Y468859D02*
X987859Y480859D01*
X969859Y468859D02*
X981859Y480859D01*
X965891Y470891D02*
X975859Y480859D01*
X965891Y476891D02*
X969859Y480859D01*
X1071859D02*
X1077859Y486859D01*
X1065859Y480859D02*
X1077859Y492859D01*
X1059859Y480859D02*
X1071859Y492859D01*
X1053859Y480859D02*
X1065859Y492859D01*
X1047859Y480859D02*
X1059859Y492859D01*
X1041859Y480859D02*
X1053859Y492859D01*
X1035859Y480859D02*
X1047859Y492859D01*
X1029859Y480859D02*
X1041859Y492859D01*
X1023859Y480859D02*
X1035859Y492859D01*
X1017859Y480859D02*
X1029859Y492859D01*
X1011859Y480859D02*
X1023859Y492859D01*
X1005859Y480859D02*
X1017859Y492859D01*
X999859Y480859D02*
X1011859Y492859D01*
X993859Y480859D02*
X1005859Y492859D01*
X987859Y480859D02*
X999859Y492859D01*
X981859Y480859D02*
X993859Y492859D01*
X975859Y480859D02*
X987859Y492859D01*
X969859Y480859D02*
X981859Y492859D01*
X965891Y482891D02*
X975859Y492859D01*
X965891Y488891D02*
X969859Y492859D01*
D67*
X940148Y287198D02*
Y280000D01*
Y283599D01*
X944946D01*
Y287198D01*
Y280000D01*
X948545D02*
X950945D01*
X952144Y281200D01*
Y283599D01*
X950945Y284799D01*
X948545D01*
X947346Y283599D01*
Y281200D01*
X948545Y280000D01*
X954543D02*
X956942D01*
X955743D01*
Y287198D01*
X954543D01*
X964140Y280000D02*
X961741D01*
X960541Y281200D01*
Y283599D01*
X961741Y284799D01*
X964140D01*
X965340Y283599D01*
Y282399D01*
X960541D01*
X974937Y287198D02*
X979735D01*
X977336D01*
Y280000D01*
X982134Y284799D02*
Y281200D01*
X983334Y280000D01*
X986933D01*
Y278800D01*
X985733Y277601D01*
X984534D01*
X986933Y280000D02*
Y284799D01*
X989332Y277601D02*
Y284799D01*
X992931D01*
X994131Y283599D01*
Y281200D01*
X992931Y280000D01*
X989332D01*
X1000129D02*
X997729D01*
X996530Y281200D01*
Y283599D01*
X997729Y284799D01*
X1000129D01*
X1001328Y283599D01*
Y282399D01*
X996530D01*
X889560Y280000D02*
Y287198D01*
X893159D01*
X894359Y285998D01*
Y283599D01*
X893159Y282399D01*
X889560D01*
X896758Y280000D02*
X899157D01*
X897958D01*
Y287198D01*
X896758D01*
X903956Y284799D02*
X906355D01*
X907555Y283599D01*
Y280000D01*
X903956D01*
X902756Y281200D01*
X903956Y282399D01*
X907555D01*
X911153Y285998D02*
Y284799D01*
X909954D01*
X912353D01*
X911153D01*
Y281200D01*
X912353Y280000D01*
X919551D02*
X917152D01*
X915952Y281200D01*
Y283599D01*
X917152Y284799D01*
X919551D01*
X920750Y283599D01*
Y282399D01*
X915952D01*
X927948Y287198D02*
Y280000D01*
X924349D01*
X923149Y281200D01*
Y283599D01*
X924349Y284799D01*
X927948D01*
X759798Y287198D02*
X755000D01*
Y283599D01*
X757399D01*
X755000D01*
Y280000D01*
X762198D02*
X764597D01*
X763397D01*
Y284799D01*
X762198D01*
X768196Y280000D02*
Y284799D01*
X771795D01*
X772994Y283599D01*
Y280000D01*
X775393D02*
X777793D01*
X776593D01*
Y284799D01*
X775393D01*
X781391Y280000D02*
X784990D01*
X786190Y281200D01*
X784990Y282399D01*
X782591D01*
X781391Y283599D01*
X782591Y284799D01*
X786190D01*
X788589Y287198D02*
Y280000D01*
Y283599D01*
X789789Y284799D01*
X792188D01*
X793388Y283599D01*
Y280000D01*
X799386D02*
X796986D01*
X795787Y281200D01*
Y283599D01*
X796986Y284799D01*
X799386D01*
X800585Y283599D01*
Y282399D01*
X795787D01*
X807783Y287198D02*
Y280000D01*
X804184D01*
X802985Y281200D01*
Y283599D01*
X804184Y284799D01*
X807783D01*
X817380Y287198D02*
Y280000D01*
Y283599D01*
X822178D01*
Y287198D01*
Y280000D01*
X825777D02*
X828176D01*
X829376Y281200D01*
Y283599D01*
X828176Y284799D01*
X825777D01*
X824578Y283599D01*
Y281200D01*
X825777Y280000D01*
X831775D02*
X834174D01*
X832975D01*
Y287198D01*
X831775D01*
X841372Y280000D02*
X838973D01*
X837773Y281200D01*
Y283599D01*
X838973Y284799D01*
X841372D01*
X842572Y283599D01*
Y282399D01*
X837773D01*
X856967Y285998D02*
X855767Y287198D01*
X853368D01*
X852168Y285998D01*
Y284799D01*
X853368Y283599D01*
X855767D01*
X856967Y282399D01*
Y281200D01*
X855767Y280000D01*
X853368D01*
X852168Y281200D01*
X859366Y280000D02*
X861765D01*
X860566D01*
Y284799D01*
X859366D01*
X865364D02*
X870163D01*
X865364Y280000D01*
X870163D01*
X876161D02*
X873762D01*
X872562Y281200D01*
Y283599D01*
X873762Y284799D01*
X876161D01*
X877360Y283599D01*
Y282399D01*
X872562D01*
X685219Y287198D02*
Y280000D01*
Y283599D01*
X690017D01*
Y287198D01*
Y280000D01*
X692416D02*
X694815D01*
X693616D01*
Y284799D01*
X692416D01*
X699614Y285998D02*
Y284799D01*
X698414D01*
X700814D01*
X699614D01*
Y281200D01*
X700814Y280000D01*
X716409Y285998D02*
X715209Y287198D01*
X712810D01*
X711610Y285998D01*
Y281200D01*
X712810Y280000D01*
X715209D01*
X716409Y281200D01*
X720007Y280000D02*
X722407D01*
X723606Y281200D01*
Y283599D01*
X722407Y284799D01*
X720007D01*
X718808Y283599D01*
Y281200D01*
X720007Y280000D01*
X726005Y284799D02*
Y281200D01*
X727205Y280000D01*
X730804D01*
Y284799D01*
X733203Y280000D02*
Y284799D01*
X736802D01*
X738002Y283599D01*
Y280000D01*
X741600Y285998D02*
Y284799D01*
X740401D01*
X742800D01*
X741600D01*
Y281200D01*
X742800Y280000D01*
X639430Y285998D02*
X638230Y287198D01*
X635831D01*
X634631Y285998D01*
Y284799D01*
X635831Y283599D01*
X638230D01*
X639430Y282399D01*
Y281200D01*
X638230Y280000D01*
X635831D01*
X634631Y281200D01*
X641829Y284799D02*
Y281200D01*
X643028Y280000D01*
X646627D01*
Y278800D01*
X645428Y277601D01*
X644228D01*
X646627Y280000D02*
Y284799D01*
X649026Y280000D02*
Y284799D01*
X650226D01*
X651426Y283599D01*
Y280000D01*
Y283599D01*
X652625Y284799D01*
X653825Y283599D01*
Y280000D01*
X656224Y287198D02*
Y280000D01*
X659823D01*
X661023Y281200D01*
Y282399D01*
Y283599D01*
X659823Y284799D01*
X656224D01*
X664621Y280000D02*
X667021D01*
X668220Y281200D01*
Y283599D01*
X667021Y284799D01*
X664621D01*
X663422Y283599D01*
Y281200D01*
X664621Y280000D01*
X670619D02*
X673019D01*
X671819D01*
Y287198D01*
X670619D01*
M02*
