G04*
G04 #@! TF.GenerationSoftware,Altium Limited,Altium Designer,18.1.9 (240)*
G04*
G04 Layer_Color=65535*
%FSLAX25Y25*%
%MOIN*%
G70*
G01*
G75*
%ADD10C,0.00984*%
%ADD11C,0.02362*%
%ADD12C,0.00787*%
%ADD13C,0.01000*%
%ADD14C,0.00800*%
%ADD15C,0.00591*%
D10*
X463504Y86114D02*
G03*
X463504Y86114I-492J0D01*
G01*
X443886Y170681D02*
G03*
X443886Y170681I-492J0D01*
G01*
X491004Y86114D02*
G03*
X491004Y86114I-492J0D01*
G01*
X272992Y332827D02*
G03*
X272992Y332827I-492J0D01*
G01*
X292079Y142347D02*
G03*
X292079Y142347I-492J0D01*
G01*
X361043Y322847D02*
G03*
X361043Y322847I-492J0D01*
G01*
D11*
X453441Y165949D02*
G03*
X453441Y165949I-1181J0D01*
G01*
X302807Y138154D02*
G03*
X302807Y138154I-1181J0D01*
G01*
D12*
X612020Y206138D02*
G03*
X614756Y203402I2736J0D01*
G01*
X635622Y200646D02*
G03*
X632886Y203382I-2736J0D01*
G01*
X614756Y133598D02*
G03*
X612020Y130862I0J-2736D01*
G01*
X632886Y133618D02*
G03*
X635622Y136354I0J2736D01*
G01*
X353000Y30000D02*
X413000D01*
X353000Y10500D02*
X413000D01*
X353000D02*
Y35200D01*
X413000D01*
Y10500D02*
Y35200D01*
X268000Y372500D02*
X428000D01*
X268000D02*
Y382500D01*
X275500D01*
X428000D01*
Y372500D02*
Y382500D01*
X451594Y65445D02*
X452579D01*
X451594Y83555D02*
X452579D01*
X462421Y65445D02*
X463406D01*
X462421Y83555D02*
X463406D01*
X451594Y65445D02*
Y83555D01*
X463406Y65445D02*
Y83555D01*
X562600Y53500D02*
X587300D01*
X562600D02*
Y93500D01*
X587300Y53500D02*
Y93500D01*
X562600D02*
X587300D01*
X582000Y53600D02*
Y93500D01*
X394039Y71106D02*
Y71894D01*
X398961Y71106D02*
Y71894D01*
X408539Y71106D02*
Y71894D01*
X413461Y71106D02*
Y71894D01*
X423539Y71106D02*
Y71894D01*
X428461Y71106D02*
Y71894D01*
X297539Y218606D02*
Y219394D01*
X302461Y218606D02*
Y219394D01*
X347039Y218606D02*
Y219394D01*
X351961Y218606D02*
Y219394D01*
X479095Y65445D02*
X480079D01*
X479095Y83555D02*
X480079D01*
X489921Y65445D02*
X490906D01*
X489921Y83555D02*
X490906D01*
X479095Y65445D02*
Y83555D01*
X490906Y65445D02*
Y83555D01*
X280539Y218606D02*
Y219394D01*
X285461Y218606D02*
Y219394D01*
X332961Y218106D02*
Y218894D01*
X328039Y218106D02*
Y218894D01*
X277224Y331646D02*
X279193D01*
Y328496D02*
Y331646D01*
X277224Y319835D02*
X279193D01*
Y322984D01*
X297689Y90909D02*
X321311D01*
X297689Y142091D02*
X321311D01*
Y90909D02*
Y142091D01*
X297689Y90909D02*
Y142091D01*
X337500Y10000D02*
Y34700D01*
X277500D02*
X337500D01*
X277500Y10000D02*
Y34700D01*
Y10000D02*
X337500D01*
X277500Y29500D02*
X337500D01*
X20000Y307000D02*
X210600D01*
X20000Y327000D02*
X210600D01*
X20000Y307000D02*
Y327000D01*
X210600Y307000D02*
Y327000D01*
X20000Y67000D02*
X210600D01*
X20000Y87000D02*
X210600D01*
X20000Y67000D02*
Y87000D01*
X210600Y67000D02*
Y87000D01*
X366457Y282315D02*
Y321685D01*
X373543Y282315D02*
Y321685D01*
X366457D02*
X373543D01*
X366457Y282315D02*
X373543D01*
X600189Y107870D02*
Y229130D01*
X563181Y107870D02*
X612000D01*
X563181Y229130D02*
X612000D01*
X635622Y136354D02*
Y200646D01*
X563181Y107870D02*
Y229130D01*
X563181Y140941D02*
X600189D01*
X612000Y107870D02*
Y229130D01*
X563181Y196059D02*
X600189D01*
X614756Y203402D02*
X632866D01*
X614756Y133598D02*
X632866D01*
X180600Y10000D02*
Y20000D01*
Y10000D02*
X234000D01*
X241500D01*
Y20000D01*
X180600D02*
X241500D01*
D13*
X241504Y387343D02*
X558433D01*
Y245610D02*
Y387343D01*
X241504Y245610D02*
X558433D01*
X241504D02*
Y387343D01*
X501000Y10583D02*
Y45983D01*
X541000D01*
Y10583D02*
Y45983D01*
X501000Y10583D02*
X541000D01*
X496728Y133463D02*
X498624Y131567D01*
X496728Y150537D02*
X498624Y152433D01*
X517594Y147000D02*
Y152433D01*
X498624D02*
X517594D01*
X498624Y131567D02*
X517594D01*
Y137335D01*
X496728Y133463D02*
Y137265D01*
Y146665D02*
Y150537D01*
X448216Y144008D02*
X462783D01*
X448216Y169992D02*
X462783D01*
Y144008D02*
Y169992D01*
X448216Y144008D02*
Y169992D01*
X488382Y173728D02*
Y177272D01*
X498618Y173728D02*
Y177272D01*
X524618Y173224D02*
Y176768D01*
X514382Y173224D02*
Y176768D01*
X367300Y189500D02*
X402000D01*
Y228000D01*
X367300D02*
X402000D01*
X367300Y189500D02*
Y228000D01*
X440000Y10300D02*
Y45700D01*
X480000D01*
Y10300D02*
Y45700D01*
X440000Y10300D02*
X480000D01*
X353600Y38600D02*
Y44598D01*
X356599D01*
X357599Y43598D01*
Y41599D01*
X356599Y40599D01*
X353600D01*
X363597Y44598D02*
X361597Y43598D01*
X359598Y41599D01*
Y39600D01*
X360598Y38600D01*
X362597D01*
X363597Y39600D01*
Y40599D01*
X362597Y41599D01*
X359598D01*
X439150Y181048D02*
Y176050D01*
X440150Y175050D01*
X442149D01*
X443149Y176050D01*
Y181048D01*
X445148Y180048D02*
X446148Y181048D01*
X448147D01*
X449147Y180048D01*
Y179049D01*
X448147Y178049D01*
X447147D01*
X448147D01*
X449147Y177049D01*
Y176050D01*
X448147Y175050D01*
X446148D01*
X445148Y176050D01*
X286850Y152348D02*
Y147350D01*
X287850Y146350D01*
X289849D01*
X290849Y147350D01*
Y152348D01*
X296847Y146350D02*
X292848D01*
X296847Y150349D01*
Y151348D01*
X295847Y152348D01*
X293848D01*
X292848Y151348D01*
X356050Y332848D02*
Y327850D01*
X357050Y326850D01*
X359049D01*
X360049Y327850D01*
Y332848D01*
X362048Y326850D02*
X364047D01*
X363048D01*
Y332848D01*
X362048Y331848D01*
X279000Y230971D02*
Y236969D01*
X281999D01*
X282999Y235969D01*
Y233970D01*
X281999Y232970D01*
X279000D01*
X280999D02*
X282999Y230971D01*
X284998D02*
X286997D01*
X285998D01*
Y236969D01*
X284998Y235969D01*
X289996D02*
X290996Y236969D01*
X292996D01*
X293995Y235969D01*
Y231971D01*
X292996Y230971D01*
X290996D01*
X289996Y231971D01*
Y235969D01*
X296000Y231000D02*
Y236998D01*
X298999D01*
X299999Y235998D01*
Y233999D01*
X298999Y232999D01*
X296000D01*
X297999D02*
X299999Y231000D01*
X301998Y232000D02*
X302998Y231000D01*
X304997D01*
X305997Y232000D01*
Y235998D01*
X304997Y236998D01*
X302998D01*
X301998Y235998D01*
Y234999D01*
X302998Y233999D01*
X305997D01*
X422000Y83471D02*
Y89469D01*
X424999D01*
X425999Y88469D01*
Y86470D01*
X424999Y85470D01*
X422000D01*
X423999D02*
X425999Y83471D01*
X427998Y88469D02*
X428998Y89469D01*
X430997D01*
X431997Y88469D01*
Y87470D01*
X430997Y86470D01*
X431997Y85470D01*
Y84471D01*
X430997Y83471D01*
X428998D01*
X427998Y84471D01*
Y85470D01*
X428998Y86470D01*
X427998Y87470D01*
Y88469D01*
X428998Y86470D02*
X430997D01*
X407000Y83471D02*
Y89469D01*
X409999D01*
X410999Y88469D01*
Y86470D01*
X409999Y85470D01*
X407000D01*
X408999D02*
X410999Y83471D01*
X412998Y89469D02*
X416997D01*
Y88469D01*
X412998Y84471D01*
Y83471D01*
X392500Y83500D02*
Y89498D01*
X395499D01*
X396499Y88498D01*
Y86499D01*
X395499Y85499D01*
X392500D01*
X394499D02*
X396499Y83500D01*
X402497Y89498D02*
X400497Y88498D01*
X398498Y86499D01*
Y84500D01*
X399498Y83500D01*
X401497D01*
X402497Y84500D01*
Y85499D01*
X401497Y86499D01*
X398498D01*
X486900Y189200D02*
Y195198D01*
X489899D01*
X490899Y194198D01*
Y192199D01*
X489899Y191199D01*
X486900D01*
X488899D02*
X490899Y189200D01*
X496897Y195198D02*
X492898D01*
Y192199D01*
X494897Y193199D01*
X495897D01*
X496897Y192199D01*
Y190200D01*
X495897Y189200D01*
X493898D01*
X492898Y190200D01*
X512900Y188696D02*
Y194694D01*
X515899D01*
X516899Y193694D01*
Y191695D01*
X515899Y190695D01*
X512900D01*
X514899D02*
X516899Y188696D01*
X521897D02*
Y194694D01*
X518898Y191695D01*
X522897D01*
X326500Y230500D02*
Y236498D01*
X329499D01*
X330499Y235498D01*
Y233499D01*
X329499Y232499D01*
X326500D01*
X328499D02*
X330499Y230500D01*
X332498Y235498D02*
X333498Y236498D01*
X335497D01*
X336497Y235498D01*
Y234499D01*
X335497Y233499D01*
X334497D01*
X335497D01*
X336497Y232499D01*
Y231500D01*
X335497Y230500D01*
X333498D01*
X332498Y231500D01*
X345500Y231000D02*
Y236998D01*
X348499D01*
X349499Y235998D01*
Y233999D01*
X348499Y232999D01*
X345500D01*
X347499D02*
X349499Y231000D01*
X355497D02*
X351498D01*
X355497Y234999D01*
Y235998D01*
X354497Y236998D01*
X352498D01*
X351498Y235998D01*
X367750Y231550D02*
Y237548D01*
X370749D01*
X371749Y236548D01*
Y234549D01*
X370749Y233549D01*
X367750D01*
X369749D02*
X371749Y231550D01*
X373748D02*
X375747D01*
X374748D01*
Y237548D01*
X373748Y236548D01*
X272086Y337790D02*
Y341789D01*
X271086Y342788D01*
X269087D01*
X268087Y341789D01*
Y337790D01*
X269087Y336790D01*
X271086D01*
X270086Y338790D02*
X272086Y336790D01*
X271086D02*
X272086Y337790D01*
X274085Y336790D02*
X276084D01*
X275085D01*
Y342788D01*
X274085Y341789D01*
X13900Y330400D02*
Y336398D01*
X16899D01*
X17899Y335398D01*
Y333399D01*
X16899Y332399D01*
X13900D01*
X19898Y330400D02*
X21897D01*
X20898D01*
Y336398D01*
X19898Y335398D01*
X24896D02*
X25896Y336398D01*
X27896D01*
X28895Y335398D01*
Y331400D01*
X27896Y330400D01*
X25896D01*
X24896Y331400D01*
Y335398D01*
X563200Y96900D02*
Y102898D01*
X566199D01*
X567199Y101898D01*
Y99899D01*
X566199Y98899D01*
X563200D01*
X569198Y97900D02*
X570198Y96900D01*
X572197D01*
X573197Y97900D01*
Y101898D01*
X572197Y102898D01*
X570198D01*
X569198Y101898D01*
Y100899D01*
X570198Y99899D01*
X573197D01*
X501150Y49533D02*
Y55531D01*
X504149D01*
X505149Y54532D01*
Y52532D01*
X504149Y51533D01*
X501150D01*
X507148Y54532D02*
X508148Y55531D01*
X510147D01*
X511147Y54532D01*
Y53532D01*
X510147Y52532D01*
X511147Y51533D01*
Y50533D01*
X510147Y49533D01*
X508148D01*
X507148Y50533D01*
Y51533D01*
X508148Y52532D01*
X507148Y53532D01*
Y54532D01*
X508148Y52532D02*
X510147D01*
X13900Y90400D02*
Y96398D01*
X16899D01*
X17899Y95398D01*
Y93399D01*
X16899Y92399D01*
X13900D01*
X19898Y96398D02*
X23897D01*
Y95398D01*
X19898Y91400D01*
Y90400D01*
X234100Y398600D02*
Y404598D01*
X237099D01*
X238099Y403598D01*
Y401599D01*
X237099Y400599D01*
X234100D01*
X244097Y404598D02*
X240098D01*
Y401599D01*
X242097Y402599D01*
X243097D01*
X244097Y401599D01*
Y399600D01*
X243097Y398600D01*
X241098D01*
X240098Y399600D01*
X440150Y49250D02*
Y55248D01*
X443149D01*
X444149Y54248D01*
Y52249D01*
X443149Y51249D01*
X440150D01*
X449147Y49250D02*
Y55248D01*
X446148Y52249D01*
X450147D01*
X181200Y23400D02*
Y29398D01*
X184199D01*
X185199Y28398D01*
Y26399D01*
X184199Y25399D01*
X181200D01*
X187198Y28398D02*
X188198Y29398D01*
X190197D01*
X191197Y28398D01*
Y27399D01*
X190197Y26399D01*
X189197D01*
X190197D01*
X191197Y25399D01*
Y24400D01*
X190197Y23400D01*
X188198D01*
X187198Y24400D01*
X278100Y38100D02*
Y44098D01*
X281099D01*
X282099Y43098D01*
Y41099D01*
X281099Y40099D01*
X278100D01*
X284098Y38100D02*
X286097D01*
X285098D01*
Y44098D01*
X284098Y43098D01*
X559799Y238498D02*
X557799D01*
X558799D01*
Y233500D01*
X557799Y232500D01*
X556800D01*
X555800Y233500D01*
X561798Y232500D02*
X563797D01*
X562798D01*
Y238498D01*
X561798Y237498D01*
X450500Y97798D02*
Y91800D01*
X453499D01*
X454499Y92800D01*
Y96798D01*
X453499Y97798D01*
X450500D01*
X460497Y91800D02*
X456498D01*
X460497Y95799D01*
Y96798D01*
X459497Y97798D01*
X457498D01*
X456498Y96798D01*
X478000Y97798D02*
Y91800D01*
X480999D01*
X481999Y92800D01*
Y96798D01*
X480999Y97798D01*
X478000D01*
X483998Y91800D02*
X485997D01*
X484998D01*
Y97798D01*
X483998Y96798D01*
X422799Y151998D02*
X421799Y152998D01*
X419800D01*
X418800Y151998D01*
Y148000D01*
X419800Y147000D01*
X421799D01*
X422799Y148000D01*
X424798Y147000D02*
X426797D01*
X425798D01*
Y152998D01*
X424798Y151998D01*
X433795Y147000D02*
X429796D01*
X433795Y150999D01*
Y151998D01*
X432795Y152998D01*
X430796D01*
X429796Y151998D01*
X431799Y230998D02*
X430799Y231998D01*
X428800D01*
X427800Y230998D01*
Y227000D01*
X428800Y226000D01*
X430799D01*
X431799Y227000D01*
X433798Y226000D02*
X435797D01*
X434798D01*
Y231998D01*
X433798Y230998D01*
X438796Y226000D02*
X440796D01*
X439796D01*
Y231998D01*
X438796Y230998D01*
X465799D02*
X464799Y231998D01*
X462800D01*
X461800Y230998D01*
Y227000D01*
X462800Y226000D01*
X464799D01*
X465799Y227000D01*
X467798Y226000D02*
X469797D01*
X468798D01*
Y231998D01*
X467798Y230998D01*
X472796D02*
X473796Y231998D01*
X475796D01*
X476795Y230998D01*
Y227000D01*
X475796Y226000D01*
X473796D01*
X472796Y227000D01*
Y230998D01*
X449299Y230960D02*
X448299Y231960D01*
X446300D01*
X445300Y230960D01*
Y226961D01*
X446300Y225961D01*
X448299D01*
X449299Y226961D01*
X451298D02*
X452298Y225961D01*
X454297D01*
X455297Y226961D01*
Y230960D01*
X454297Y231960D01*
X452298D01*
X451298Y230960D01*
Y229960D01*
X452298Y228960D01*
X455297D01*
X497110Y160948D02*
X496110Y161948D01*
X494111D01*
X493111Y160948D01*
Y156950D01*
X494111Y155950D01*
X496110D01*
X497110Y156950D01*
X499110Y160948D02*
X500109Y161948D01*
X502108D01*
X503108Y160948D01*
Y159949D01*
X502108Y158949D01*
X503108Y157949D01*
Y156950D01*
X502108Y155950D01*
X500109D01*
X499110Y156950D01*
Y157949D01*
X500109Y158949D01*
X499110Y159949D01*
Y160948D01*
X500109Y158949D02*
X502108D01*
X356299Y134121D02*
X355299Y135121D01*
X353300D01*
X352300Y134121D01*
Y130122D01*
X353300Y129123D01*
X355299D01*
X356299Y130122D01*
X358298Y135121D02*
X362297D01*
Y134121D01*
X358298Y130122D01*
Y129123D01*
X467549Y123248D02*
X466549Y124248D01*
X464550D01*
X463550Y123248D01*
Y119250D01*
X464550Y118250D01*
X466549D01*
X467549Y119250D01*
X473547Y124248D02*
X471547Y123248D01*
X469548Y121249D01*
Y119250D01*
X470548Y118250D01*
X472547D01*
X473547Y119250D01*
Y120249D01*
X472547Y121249D01*
X469548D01*
X408049Y332748D02*
X407049Y333748D01*
X405050D01*
X404050Y332748D01*
Y328750D01*
X405050Y327750D01*
X407049D01*
X408049Y328750D01*
X414047Y333748D02*
X410048D01*
Y330749D01*
X412047Y331749D01*
X413047D01*
X414047Y330749D01*
Y328750D01*
X413047Y327750D01*
X411048D01*
X410048Y328750D01*
X409049Y301248D02*
X408049Y302248D01*
X406050D01*
X405050Y301248D01*
Y297250D01*
X406050Y296250D01*
X408049D01*
X409049Y297250D01*
X414047Y296250D02*
Y302248D01*
X411048Y299249D01*
X415047D01*
X366549Y274748D02*
X365549Y275748D01*
X363550D01*
X362550Y274748D01*
Y270750D01*
X363550Y269750D01*
X365549D01*
X366549Y270750D01*
X368548Y274748D02*
X369548Y275748D01*
X371547D01*
X372547Y274748D01*
Y273749D01*
X371547Y272749D01*
X370547D01*
X371547D01*
X372547Y271749D01*
Y270750D01*
X371547Y269750D01*
X369548D01*
X368548Y270750D01*
X310387Y297248D02*
X309388Y298248D01*
X307388D01*
X306389Y297248D01*
Y293250D01*
X307388Y292250D01*
X309388D01*
X310387Y293250D01*
X316385Y292250D02*
X312387D01*
X316385Y296249D01*
Y297248D01*
X315386Y298248D01*
X313386D01*
X312387Y297248D01*
X311049Y328248D02*
X310049Y329248D01*
X308050D01*
X307050Y328248D01*
Y324250D01*
X308050Y323250D01*
X310049D01*
X311049Y324250D01*
X313048Y323250D02*
X315047D01*
X314048D01*
Y329248D01*
X313048Y328248D01*
X-1900Y756300D02*
Y762298D01*
X99Y760299D01*
X2099Y762298D01*
Y756300D01*
X8097Y762298D02*
X4098D01*
Y759299D01*
X6097Y760299D01*
X7097D01*
X8097Y759299D01*
Y757300D01*
X7097Y756300D01*
X5098D01*
X4098Y757300D01*
X21500Y350000D02*
Y355998D01*
X23499Y353999D01*
X25499Y355998D01*
Y350000D01*
X27498D02*
X29497D01*
X28498D01*
Y355998D01*
X27498Y354998D01*
X568000Y344000D02*
Y349998D01*
X569999Y347999D01*
X571999Y349998D01*
Y344000D01*
X577997D02*
X573998D01*
X577997Y347999D01*
Y348998D01*
X576997Y349998D01*
X574998D01*
X573998Y348998D01*
X569500Y43000D02*
Y48998D01*
X571499Y46999D01*
X573499Y48998D01*
Y43000D01*
X575498Y47998D02*
X576498Y48998D01*
X578497D01*
X579497Y47998D01*
Y46999D01*
X578497Y45999D01*
X577497D01*
X578497D01*
X579497Y44999D01*
Y44000D01*
X578497Y43000D01*
X576498D01*
X575498Y44000D01*
X21500Y44000D02*
Y49998D01*
X23499Y47999D01*
X25499Y49998D01*
Y44000D01*
X30497D02*
Y49998D01*
X27498Y46999D01*
X31497D01*
D14*
X214500Y323665D02*
X215333Y324498D01*
X216999D01*
X217832Y323665D01*
Y322832D01*
X216999Y321999D01*
X216166D01*
X216999D01*
X217832Y321166D01*
Y320333D01*
X216999Y319500D01*
X215333D01*
X214500Y320333D01*
X219498Y323665D02*
X220331Y324498D01*
X221998D01*
X222831Y323665D01*
Y322832D01*
X221998Y321999D01*
X222831Y321166D01*
Y320333D01*
X221998Y319500D01*
X220331D01*
X219498Y320333D01*
Y321166D01*
X220331Y321999D01*
X219498Y322832D01*
Y323665D01*
X220331Y321999D02*
X221998D01*
X214100Y313765D02*
X214933Y314598D01*
X216599D01*
X217432Y313765D01*
Y312932D01*
X216599Y312099D01*
X215766D01*
X216599D01*
X217432Y311266D01*
Y310433D01*
X216599Y309600D01*
X214933D01*
X214100Y310433D01*
X219098Y314598D02*
X222431D01*
Y313765D01*
X219098Y310433D01*
Y309600D01*
X15000Y310000D02*
X16666D01*
X15833D01*
Y314998D01*
X15000Y314165D01*
X17032Y320100D02*
X13700D01*
X17032Y323432D01*
Y324265D01*
X16199Y325098D01*
X14533D01*
X13700Y324265D01*
X214500Y83665D02*
X215333Y84498D01*
X216999D01*
X217832Y83665D01*
Y82832D01*
X216999Y81999D01*
X216166D01*
X216999D01*
X217832Y81166D01*
Y80333D01*
X216999Y79500D01*
X215333D01*
X214500Y80333D01*
X219498Y83665D02*
X220331Y84498D01*
X221998D01*
X222831Y83665D01*
Y82832D01*
X221998Y81999D01*
X222831Y81166D01*
Y80333D01*
X221998Y79500D01*
X220331D01*
X219498Y80333D01*
Y81166D01*
X220331Y81999D01*
X219498Y82832D01*
Y83665D01*
X220331Y81999D02*
X221998D01*
X214100Y73765D02*
X214933Y74598D01*
X216599D01*
X217432Y73765D01*
Y72932D01*
X216599Y72099D01*
X215766D01*
X216599D01*
X217432Y71266D01*
Y70433D01*
X216599Y69600D01*
X214933D01*
X214100Y70433D01*
X219098Y74598D02*
X222431D01*
Y73765D01*
X219098Y70433D01*
Y69600D01*
X15000Y70000D02*
X16666D01*
X15833D01*
Y74998D01*
X15000Y74165D01*
X17032Y80100D02*
X13700D01*
X17032Y83432D01*
Y84265D01*
X16199Y85098D01*
X14533D01*
X13700Y84265D01*
D15*
X555406Y191295D02*
Y189327D01*
Y190311D01*
X561309D01*
X560325Y191295D01*
X561309Y144722D02*
Y148658D01*
X558357D01*
X559341Y146690D01*
Y145706D01*
X558357Y144722D01*
X556390D01*
X555406Y145706D01*
Y147674D01*
X556390Y148658D01*
X593397Y154110D02*
X592413Y153126D01*
Y151158D01*
X593397Y150174D01*
X597333D01*
X598317Y151158D01*
Y153126D01*
X597333Y154110D01*
X596349D01*
X595365Y153126D01*
Y150174D01*
X598317Y182891D02*
X597333Y184859D01*
X595365Y186827D01*
X593397D01*
X592413Y185843D01*
Y183875D01*
X593397Y182891D01*
X594381D01*
X595365Y183875D01*
Y186827D01*
M02*
