G04*
G04 #@! TF.GenerationSoftware,Altium Limited,Altium Designer,18.1.9 (240)*
G04*
G04 Layer_Color=16711935*
%FSLAX25Y25*%
%MOIN*%
G70*
G01*
G75*
%ADD26R,0.07500X0.07500*%
%ADD27C,0.07500*%
%ADD28R,0.11000X0.11000*%
%ADD29C,0.11000*%
%ADD30R,0.07500X0.07500*%
%ADD31C,0.10000*%
%ADD32C,0.08000*%
%ADD33R,0.08000X0.08000*%
%ADD34C,0.08500*%
%ADD35R,0.08500X0.08500*%
%ADD36C,0.19740*%
%ADD37C,0.06000*%
%ADD38C,0.16748*%
%ADD39C,0.19000*%
D26*
X358000Y23000D02*
D03*
X273000Y377500D02*
D03*
X282500Y22500D02*
D03*
X236500Y15000D02*
D03*
D27*
X368000Y23000D02*
D03*
X378000D02*
D03*
X388000D02*
D03*
X398000D02*
D03*
X408000D02*
D03*
X283000Y377500D02*
D03*
X293000D02*
D03*
X303000D02*
D03*
X313000D02*
D03*
X323000D02*
D03*
X333000D02*
D03*
X343000D02*
D03*
X353000D02*
D03*
X363000D02*
D03*
X373000D02*
D03*
X383000D02*
D03*
X393000D02*
D03*
X403000D02*
D03*
X413000D02*
D03*
X423000D02*
D03*
X575000Y78500D02*
D03*
Y68500D02*
D03*
Y58500D02*
D03*
X332500Y22500D02*
D03*
X322500D02*
D03*
X312500D02*
D03*
X302500D02*
D03*
X292500D02*
D03*
X186500Y15000D02*
D03*
X196500D02*
D03*
X206500D02*
D03*
X216500D02*
D03*
X226500D02*
D03*
D28*
X511000Y28283D02*
D03*
X450000Y28000D02*
D03*
D29*
X531000Y28283D02*
D03*
X470000Y28000D02*
D03*
D30*
X575000Y88500D02*
D03*
D31*
X394500Y218500D02*
D03*
X384500D02*
D03*
X374500D02*
D03*
D32*
X205000Y322000D02*
D03*
Y312000D02*
D03*
X195000Y322000D02*
D03*
Y312000D02*
D03*
X185000Y322000D02*
D03*
Y312000D02*
D03*
X175000Y322000D02*
D03*
Y312000D02*
D03*
X165000Y322000D02*
D03*
Y312000D02*
D03*
X155000Y322000D02*
D03*
Y312000D02*
D03*
X145000Y322000D02*
D03*
Y312000D02*
D03*
X135000Y322000D02*
D03*
Y312000D02*
D03*
X125000Y322000D02*
D03*
Y312000D02*
D03*
X115000Y322000D02*
D03*
Y312000D02*
D03*
X105000Y322000D02*
D03*
Y312000D02*
D03*
X95000Y322000D02*
D03*
Y312000D02*
D03*
X85000Y322000D02*
D03*
Y312000D02*
D03*
X75000Y322000D02*
D03*
Y312000D02*
D03*
X65000Y322000D02*
D03*
Y312000D02*
D03*
X55000Y322000D02*
D03*
Y312000D02*
D03*
X45000Y322000D02*
D03*
Y312000D02*
D03*
X35000Y322000D02*
D03*
Y312000D02*
D03*
X25000Y322000D02*
D03*
X205000Y82000D02*
D03*
Y72000D02*
D03*
X195000Y82000D02*
D03*
Y72000D02*
D03*
X185000Y82000D02*
D03*
Y72000D02*
D03*
X175000Y82000D02*
D03*
Y72000D02*
D03*
X165000Y82000D02*
D03*
Y72000D02*
D03*
X155000Y82000D02*
D03*
Y72000D02*
D03*
X145000Y82000D02*
D03*
Y72000D02*
D03*
X135000Y82000D02*
D03*
Y72000D02*
D03*
X125000Y82000D02*
D03*
Y72000D02*
D03*
X115000Y82000D02*
D03*
Y72000D02*
D03*
X105000Y82000D02*
D03*
Y72000D02*
D03*
X95000Y82000D02*
D03*
Y72000D02*
D03*
X85000Y82000D02*
D03*
Y72000D02*
D03*
X75000Y82000D02*
D03*
Y72000D02*
D03*
X65000Y82000D02*
D03*
Y72000D02*
D03*
X55000Y82000D02*
D03*
Y72000D02*
D03*
X45000Y82000D02*
D03*
Y72000D02*
D03*
X35000Y82000D02*
D03*
Y72000D02*
D03*
X25000Y82000D02*
D03*
D33*
Y312000D02*
D03*
Y72000D02*
D03*
D34*
X569008Y146689D02*
D03*
X580189Y152142D02*
D03*
X569008Y157595D02*
D03*
X580189Y163047D02*
D03*
X569008Y168500D02*
D03*
X580189Y173953D02*
D03*
X569008Y179405D02*
D03*
X580189Y184858D02*
D03*
D35*
X569008Y190311D02*
D03*
D36*
X574598Y217693D02*
D03*
Y119307D02*
D03*
D37*
X493500Y188500D02*
D03*
X311500Y39500D02*
D03*
X290740Y40000D02*
D03*
X271500Y27500D02*
D03*
X540000Y7000D02*
D03*
X457500Y50500D02*
D03*
X272000Y13000D02*
D03*
X323000Y5500D02*
D03*
X475500Y164169D02*
D03*
X420000Y115000D02*
D03*
X9500Y13553D02*
D03*
X440135Y67071D02*
D03*
X447642Y65000D02*
D03*
X414500Y131161D02*
D03*
X485450Y150500D02*
D03*
X20000Y43000D02*
D03*
X39000Y12000D02*
D03*
X354000Y296500D02*
D03*
X374000Y272250D02*
D03*
X311000Y264000D02*
D03*
X424000Y264500D02*
D03*
X427500Y313000D02*
D03*
X428000Y293500D02*
D03*
X345559Y314500D02*
D03*
X341500Y332500D02*
D03*
X339000Y295500D02*
D03*
X320000Y293500D02*
D03*
X379449Y332000D02*
D03*
X318177Y255630D02*
D03*
X414500Y252500D02*
D03*
X432000Y278000D02*
D03*
X412000D02*
D03*
X435000Y157000D02*
D03*
X534000Y150500D02*
D03*
X533500Y227000D02*
D03*
X451500Y228500D02*
D03*
X505000Y149500D02*
D03*
X457500Y219339D02*
D03*
X414500Y217000D02*
D03*
X411000Y81000D02*
D03*
X466000Y186000D02*
D03*
X513000Y115000D02*
D03*
X475000Y117500D02*
D03*
X505500Y123000D02*
D03*
X462000Y122500D02*
D03*
X447642Y80500D02*
D03*
X431500Y166500D02*
D03*
X442000Y142555D02*
D03*
X528500Y154000D02*
D03*
X412000Y312500D02*
D03*
X388000Y313000D02*
D03*
X416500Y297500D02*
D03*
X310500Y292000D02*
D03*
X311161Y309161D02*
D03*
X353000Y309500D02*
D03*
X352000Y319500D02*
D03*
X326500Y315000D02*
D03*
X337500Y45000D02*
D03*
X348677Y113323D02*
D03*
X334500Y109000D02*
D03*
X424500Y123000D02*
D03*
X436500Y135500D02*
D03*
X467606Y142555D02*
D03*
X435000Y150000D02*
D03*
X422421Y150110D02*
D03*
X291000Y60000D02*
D03*
X360500Y57000D02*
D03*
X362000Y99500D02*
D03*
X470500Y102000D02*
D03*
X418500Y47500D02*
D03*
X368000Y43500D02*
D03*
X396000Y87000D02*
D03*
X115000Y48500D02*
D03*
X320000Y44500D02*
D03*
X533500Y141500D02*
D03*
X559000D02*
D03*
X210500Y67000D02*
D03*
X279500Y105000D02*
D03*
X165000D02*
D03*
X268500Y131500D02*
D03*
X155000D02*
D03*
X97000Y25500D02*
D03*
X95000Y63000D02*
D03*
X380500Y242500D02*
D03*
X37500D02*
D03*
X392000Y290000D02*
D03*
X534500Y289000D02*
D03*
X437000Y191000D02*
D03*
X193000D02*
D03*
X150500Y157000D02*
D03*
X316500Y103500D02*
D03*
X145000Y109000D02*
D03*
X276000Y138500D02*
D03*
X135000D02*
D03*
X315500Y94500D02*
D03*
X124500Y98000D02*
D03*
X287500Y321000D02*
D03*
X324000D02*
D03*
X327000Y333000D02*
D03*
X286500D02*
D03*
X271500Y292500D02*
D03*
X311000Y169000D02*
D03*
X109500D02*
D03*
X479500Y343500D02*
D03*
X45500Y344000D02*
D03*
X423000Y159000D02*
D03*
X25000Y159500D02*
D03*
X421500Y238500D02*
D03*
X399500Y358000D02*
D03*
X303000Y359500D02*
D03*
X95000Y387500D02*
D03*
X317000Y392000D02*
D03*
X375000Y199500D02*
D03*
X286000Y195000D02*
D03*
X281500Y338000D02*
D03*
X282114Y312500D02*
D03*
X281500Y369500D02*
D03*
X314000Y370000D02*
D03*
X106500Y145500D02*
D03*
X325000Y149000D02*
D03*
X371500Y123000D02*
D03*
X394500D02*
D03*
X354000Y231000D02*
D03*
X292929Y230500D02*
D03*
X154000Y279000D02*
D03*
X164500Y280000D02*
D03*
X388500Y276500D02*
D03*
X330000Y304500D02*
D03*
X327500Y204000D02*
D03*
X268000Y204500D02*
D03*
X221500Y301500D02*
D03*
X225500Y363000D02*
D03*
X257500Y62000D02*
D03*
X261500Y383500D02*
D03*
X359500Y213500D02*
D03*
X405000Y211500D02*
D03*
X290740Y326000D02*
D03*
X419000Y326740D02*
D03*
X338000Y181000D02*
D03*
X343500Y173000D02*
D03*
X483500Y94500D02*
D03*
X492500Y80000D02*
D03*
X463000Y130000D02*
D03*
X498000D02*
D03*
Y71500D02*
D03*
X95000Y164500D02*
D03*
X379500D02*
D03*
X85500Y154000D02*
D03*
X373500Y153500D02*
D03*
X74500Y335500D02*
D03*
X6500D02*
D03*
X13500Y6500D02*
D03*
X10000Y329500D02*
D03*
X334000Y85500D02*
D03*
X286500D02*
D03*
X234500Y338500D02*
D03*
X233475Y80025D02*
D03*
X216500Y90000D02*
D03*
X220000Y55000D02*
D03*
X201500Y51000D02*
D03*
X18000Y293500D02*
D03*
D38*
X546622Y377500D02*
D03*
Y255453D02*
D03*
X251346D02*
D03*
Y377500D02*
D03*
D39*
X575000Y374500D02*
D03*
Y24500D02*
D03*
X25000Y374500D02*
D03*
Y24500D02*
D03*
M02*
