M48
;Layer_Color=9474304
;FILE_FORMAT=2:5
INCH,LZ
;TYPE=PLATED
T1F00S00C0.02800
T2F00S00C0.04000
T3F00S00C0.04291
T4F00S00C0.05500
T5F00S00C0.09843
T6F00S00C0.12205
T7F00S00C0.13600
%
T01
X00135Y00065
X00095Y0013553
X0039Y0012
X002Y0043
X0097Y00255
X0115Y00485
X02015Y0051
X022Y0055
X02715Y00275
X0272Y0013
X029074Y004
X03115Y00395
X032Y00445
X03375Y0045
X0368Y00435
X0323Y00055
X04185Y00475
X04575Y00505
X054Y0007
X05335Y01415
X0534Y01505
X05285Y0154
X0559Y01415
X0505Y01495
X048545Y01505
X04755Y0164169
X0467606Y0142555
X0463Y013
X0462Y01225
X0475Y01175
X04705Y0102
X04835Y00945
X04925Y008
X0498Y00715
X0447642Y0065
X0440135Y0067071
X0447642Y00805
X0411Y0081
X0396Y0087
X03945Y0123
X03715
X03735Y01535
X03795Y01645
X0375Y01995
X0405Y02115
X0437Y0191
X04315Y01665
X0435Y0157
Y015
X0422421Y015011
X0423Y0159
X0442Y0142555
X04365Y01355
X04245Y0123
X042Y0115
X04145Y0131161
X0498Y013
X05055Y0123
X0513Y0115
X04935Y01885
X0466Y0186
X0338Y0181
X03435Y0173
X0311Y0169
X0325Y0149
X03345Y0109
X0348677Y0113323
X0362Y00995
X0334Y00855
X03155Y00945
X03165Y01035
X02795Y0105
X02865Y00855
X0291Y006
X02575Y0062
X0233475Y0080025
X02165Y009
X02685Y01315
X0276Y01385
X0286Y0195
X0268Y02045
X03275Y0204
X03605Y0057
X02105Y0067
X0165Y0105
X0145Y0109
X01245Y0098
X0135Y01385
X0155Y01315
X01505Y0157
X01095Y0169
X0095Y01645
X00855Y0154
X01065Y01455
X0095Y0063
X0193Y0191
X0025Y01595
X00375Y02425
X0018Y02935
X001Y03295
X00065Y03355
X00455Y0344
X00745Y03355
X0154Y0279
X01645Y028
X02215Y03015
X02345Y03385
X02255Y0363
X0303Y03595
X02865Y0333
X02815Y0338
X029074Y0326
X02875Y0321
X0282114Y03125
X02715Y02925
X03105Y0292
X032Y02935
X0339Y02955
X0354Y02965
X0353Y03095
X0352Y03195
X0345559Y03145
X03265Y0315
X0324Y0321
X0327Y0333
X03415Y03325
X033Y03045
X0311161Y0309161
X0311Y0264
X0318177Y025563
X0292929Y02305
X0354Y0231
X03595Y02135
X03805Y02425
X0374Y027225
X03885Y02765
X0392Y029
X0388Y0313
X0412Y03125
X04275Y0313
X0428Y02935
X04165Y02975
X0412Y0278
X0432
X0424Y02645
X04145Y02525
X04215Y02385
X04145Y0217
X04575Y0219339
X04515Y02285
X0419Y032674
X0379449Y0332
X03995Y0358
X04795Y03435
X05345Y0289
X05335Y0227
X0314Y037
X0317Y0392
X02815Y03695
X02615Y03835
X0095Y03875
T02
X01865Y0015
X01965
X02065
X02165
X02265
X02365
X02825Y00225
X02925
X03025
X03125
X03225
X03325
X0358Y0023
X0368
X0378
X0388
X0398
X0408
X0575Y00585
Y00685
Y00785
Y00885
X0205Y0082
Y0072
X0195
Y0082
X0185
Y0072
X0175
Y0082
X0165
Y0072
X0155
Y0082
X0145
Y0072
X0135
Y0082
X0125
Y0072
X0115
Y0082
X0105
Y0072
X0095
Y0082
X0085
Y0072
X0075
Y0082
X0065
Y0072
X0055
Y0082
X0045
Y0072
X0035
Y0082
X0025
Y0072
Y0312
X0035
X0045
X0055
Y0322
X0045
X0035
X0025
X0065
X0075
X0085
X0095
X0105
X0115
X0125
X0135
X0145
X0155
X0165
X0175
X0185
X0195
X0205
Y0312
X0195
X0185
X0175
X0165
X0155
X0145
X0135
X0125
X0115
X0105
X0095
X0085
X0075
X0065
X0373Y03775
X0383
X0393
X0403
X0413
X0423
X0363
X0353
X0343
X0333
X0323
X0313
X0303
X0293
X0283
X0273
T03
X0569008Y0146689
Y0157595
Y01685
Y0179405
Y0190311
X0580189Y0184858
Y0173953
Y0163047
Y0152142
T04
X045Y0028
X047
X0511Y0028283
X0531
X03945Y02185
X03845
X03745
T05
X0251346Y0255453
X0546622
Y03775
X0251346
T06
X0574598Y0119307
Y0217693
T07
X0025Y00245
X0575
Y03745
X0025
M30
