G04*
G04 #@! TF.GenerationSoftware,Altium Limited,Altium Designer,18.1.9 (240)*
G04*
G04 Layer_Physical_Order=1*
G04 Layer_Color=255*
%FSLAX25Y25*%
%MOIN*%
G70*
G01*
G75*
%ADD13C,0.01000*%
%ADD26R,0.07500X0.07500*%
%ADD27C,0.07500*%
%ADD31C,0.10000*%
%ADD40R,0.06693X0.11417*%
%ADD41R,0.11811X0.06299*%
%ADD42R,0.06299X0.05906*%
%ADD43O,0.06496X0.01378*%
%ADD44R,0.11024X0.05315*%
%ADD45R,0.05709X0.04921*%
%ADD46R,0.05906X0.06299*%
%ADD47R,0.06693X0.02362*%
%ADD48O,0.09055X0.02362*%
%ADD49O,0.08661X0.02362*%
%ADD50R,0.06500X0.06500*%
%ADD51C,0.06500*%
%ADD52R,0.10000X0.10000*%
%ADD53R,0.06500X0.06500*%
%ADD54C,0.09000*%
%ADD55C,0.07000*%
%ADD56R,0.07000X0.07000*%
%ADD57C,0.18740*%
%ADD58C,0.05000*%
%ADD59C,0.15748*%
%ADD60C,0.18000*%
D13*
X493000Y188000D02*
X493500Y188500D01*
Y183504D02*
Y188500D01*
X492500Y182504D02*
X493500Y183504D01*
X492500Y182504D02*
X493000Y182004D01*
Y188000D02*
X493500Y187500D01*
X493000Y182004D02*
X493500Y181504D01*
X311500Y38000D02*
Y39500D01*
X311000Y37500D02*
X311500Y38000D01*
X290740Y25740D02*
Y40000D01*
X290000Y25000D02*
X290740Y25740D01*
X290000Y25000D02*
X292500Y22500D01*
X271500Y55500D02*
X272500Y56500D01*
X271500Y27500D02*
Y55500D01*
X272500Y56500D02*
Y123000D01*
X535748Y251277D02*
X540000Y247025D01*
Y7000D02*
Y247025D01*
X457500Y50500D02*
Y67905D01*
X272000Y13000D02*
X318000D01*
X323000Y8000D01*
Y5500D02*
Y8000D01*
X467606Y161921D02*
X471579D01*
X473413Y160087D01*
X493500D01*
X420000Y115000D02*
Y125000D01*
X423000Y128000D01*
Y131161D01*
X9500Y13553D02*
X11000Y15053D01*
X480421Y152079D02*
X481000Y151500D01*
Y97000D02*
Y151500D01*
Y97000D02*
X483500Y94500D01*
X472000Y150110D02*
X473000Y149110D01*
Y142999D02*
Y149110D01*
X470500Y140499D02*
X473000Y142999D01*
X440135Y67071D02*
X443071D01*
X447642Y65142D02*
X453154Y70653D01*
X447642Y65000D02*
Y65142D01*
X443071Y67071D02*
X451653Y75653D01*
X414500Y131161D02*
X423000D01*
X409161Y89339D02*
Y133161D01*
Y89339D02*
X420000Y78500D01*
X409161Y133161D02*
X414500Y138500D01*
Y217000D01*
X467606Y156016D02*
X490000D01*
X485450Y150500D02*
Y151550D01*
X482953Y154047D02*
X485450Y151550D01*
X497000Y158000D02*
X498500Y156500D01*
X467622Y158000D02*
X497000D01*
X467606Y157984D02*
X467622Y158000D01*
X297500Y124000D02*
Y192500D01*
Y109000D02*
Y124000D01*
X327413D01*
X41580Y16580D02*
Y31397D01*
X27474Y45503D02*
X41580Y31397D01*
X27474Y45503D02*
Y69526D01*
X25000Y72000D02*
X27474Y69526D01*
X7000Y19053D02*
X11000Y15053D01*
X17997Y43000D02*
X20000D01*
X12500Y48497D02*
X17997Y43000D01*
X39000Y12000D02*
Y14000D01*
X41580Y16580D01*
X374339Y261500D02*
Y263161D01*
X370500Y267000D02*
X374339Y263161D01*
X370500Y267000D02*
Y302000D01*
X368000Y304500D02*
X370500Y302000D01*
X360551Y304500D02*
X368000D01*
X366661Y261500D02*
Y298500D01*
X365661Y299500D02*
X366661Y298500D01*
X360551Y299500D02*
X365661D01*
X356000Y289500D02*
X360551D01*
X338000Y271500D02*
X356000Y289500D01*
X338000Y181000D02*
Y271500D01*
X355500Y284500D02*
X360551D01*
X343500Y272500D02*
X355500Y284500D01*
X343500Y173000D02*
Y272500D01*
X354000Y294500D02*
X360551D01*
X354000D02*
Y296500D01*
X374000Y272250D02*
Y374000D01*
X371000Y377000D02*
X374000Y374000D01*
X432000Y265000D02*
Y278000D01*
Y217839D02*
Y265000D01*
X424000Y264500D02*
X424500Y265000D01*
X432000D01*
X310500Y264500D02*
X311000Y264000D01*
X310500Y264500D02*
Y284000D01*
X427500Y294000D02*
X428000Y293500D01*
X427500Y294000D02*
Y313000D01*
X345500Y314559D02*
X345559Y314500D01*
X360551D01*
X422500Y288000D02*
X428000Y293500D01*
X416839Y288000D02*
X422500D01*
X339000Y330000D02*
X341500Y332500D01*
X339000Y295500D02*
Y330000D01*
X320000Y293500D02*
X321500Y295000D01*
X318177Y291677D02*
X320000Y293500D01*
X318177Y284000D02*
Y291677D01*
X379449Y332000D02*
X379949Y332500D01*
X379449Y319500D02*
Y332000D01*
X381000Y377000D02*
X397275Y360725D01*
X396000Y359450D02*
X397275Y360725D01*
X396000Y356550D02*
Y359450D01*
Y356550D02*
X397500Y355050D01*
Y285500D02*
Y355050D01*
X318000Y255453D02*
X318177Y255630D01*
Y284000D01*
X414500Y217000D02*
Y252500D01*
X409161Y280839D02*
X412000Y278000D01*
X409161Y280839D02*
Y288000D01*
X422752Y162669D02*
X439667D01*
X429000Y161000D02*
X439215D01*
X429000Y159673D02*
Y161000D01*
X435000Y157000D02*
X435984Y156016D01*
X432815Y165000D02*
X437890D01*
X437000Y168011D02*
Y191000D01*
Y168011D02*
X438874Y166138D01*
X435984Y156016D02*
X443394D01*
X437890Y165000D02*
X438252Y164638D01*
X461000Y147500D02*
Y165858D01*
X467606D01*
X533500Y151000D02*
X534000Y150500D01*
X533500Y151000D02*
Y227000D01*
X498500Y149250D02*
Y156500D01*
Y142000D02*
Y149250D01*
X504750D02*
X505000Y149500D01*
X498500Y149250D02*
X504750D01*
X495250Y177750D02*
X511500Y161500D01*
X495250Y177750D02*
Y179754D01*
X493500Y181504D02*
X495250Y179754D01*
X515823Y161500D02*
Y165315D01*
Y142000D02*
Y161500D01*
X511500D02*
X515823D01*
X449500Y226500D02*
X451500Y228500D01*
X449500Y217839D02*
Y226500D01*
X457500Y219339D02*
X459000Y217839D01*
X466000D01*
X420000Y78500D02*
X423429D01*
X426000Y75929D01*
X411000D02*
Y81000D01*
X467606Y167827D02*
X479500Y179720D01*
Y343500D01*
X466000Y186000D02*
X466500Y185500D01*
X466000Y186000D02*
Y210161D01*
X432000Y217839D02*
X439677Y210161D01*
X449500D01*
X466000D01*
X493500Y160087D02*
Y169496D01*
X473000Y115500D02*
X475000Y117500D01*
X470500Y115500D02*
X473000D01*
X513000Y115000D02*
X515823Y117823D01*
Y142000D01*
X467606Y150110D02*
X472000D01*
X470500Y115500D02*
Y140499D01*
X467661Y112661D02*
X470500Y115500D01*
X467661Y110000D02*
Y112661D01*
X505500Y123000D02*
Y135000D01*
X498500Y142000D02*
X505500Y135000D01*
X462000Y85594D02*
Y122500D01*
X457500Y81094D02*
X462000Y85594D01*
X447642Y80500D02*
X449142Y82000D01*
Y156858D01*
X448016Y157984D02*
X449142Y156858D01*
X443394Y157984D02*
X448016D01*
X443394Y152079D02*
X447634D01*
X447642Y152071D01*
Y146181D02*
Y152071D01*
X443394Y167827D02*
X455000D01*
X455500Y91685D02*
Y167327D01*
X455000Y167827D02*
X455500Y167327D01*
X451653Y87839D02*
X455500Y91685D01*
X451653Y75653D02*
Y87839D01*
X457000Y143500D02*
X461000Y147500D01*
X453154Y87217D02*
X457000Y91064D01*
X453154Y70653D02*
Y87217D01*
X457000Y91064D02*
Y143500D01*
X431500Y209661D02*
X432000Y210161D01*
X431500Y166500D02*
Y209661D01*
X432500Y165315D02*
X432815Y165000D01*
X438252Y164638D02*
X438603D01*
X439072Y164169D01*
X443114D01*
X443394Y163890D01*
X421500Y163921D02*
X422752Y162669D01*
X439667D02*
X440135Y162201D01*
X467606Y163890D02*
X473000D01*
X442000Y142555D02*
Y144780D01*
X443394Y146173D01*
X447634D01*
X447642Y146181D01*
X443394Y152079D02*
Y154047D01*
X467606D02*
X482953D01*
X528500Y154000D02*
Y172000D01*
X519500Y181000D02*
X528500Y172000D01*
X386500Y314500D02*
X388000Y313000D01*
X379449Y314500D02*
X386500D01*
X408161Y316339D02*
Y319500D01*
Y316339D02*
X412000Y312500D01*
X407680Y314481D02*
X408161Y314000D01*
X407680Y314481D02*
Y319019D01*
X408161Y289000D02*
Y314000D01*
X407680Y319019D02*
X408161Y319500D01*
X404209Y323064D02*
X411000Y329855D01*
X404209Y315350D02*
Y323064D01*
Y315350D02*
X405000Y314559D01*
X415839Y298161D02*
X416500Y297500D01*
X415839Y298161D02*
Y319500D01*
X408161Y289000D02*
X409161Y288000D01*
X310500Y284000D02*
Y292000D01*
X306000Y220571D02*
Y352000D01*
X331000Y377000D01*
X341000D01*
X353000Y309500D02*
X360551D01*
X311161Y309161D02*
Y315000D01*
X352000Y319500D02*
X360551D01*
X318839Y315000D02*
X325650D01*
X337500Y45000D02*
X338500Y46000D01*
Y105000D01*
X334500Y109000D02*
X338500Y105000D01*
X342000Y32000D02*
Y122000D01*
X332500Y22500D02*
X342000Y32000D01*
X335000Y129000D02*
X342000Y122000D01*
X327413Y109000D02*
X334500D01*
X327413D02*
Y114000D01*
Y119000D01*
X348677Y113323D02*
X356500D01*
X327413Y119000D02*
Y124000D01*
Y129000D02*
X335000D01*
X291587Y109000D02*
Y114000D01*
Y119000D01*
Y124000D01*
X286000Y195000D02*
X295000D01*
X297500Y192500D01*
X291587Y109000D02*
X297500D01*
X424500Y123000D02*
X426000Y121500D01*
Y75929D02*
Y121500D01*
X443114Y147862D02*
X443394Y148142D01*
X438874Y147862D02*
X443114D01*
X436500Y145489D02*
X438874Y147862D01*
X436500Y135500D02*
Y145489D01*
X467606Y142555D02*
Y146173D01*
Y148142D01*
X443284Y150000D02*
X443394Y150110D01*
X435000Y150000D02*
X443284D01*
X422421Y150110D02*
X423000Y149531D01*
Y138839D02*
Y149531D01*
X291000Y93413D02*
X291587Y94000D01*
X291000Y60000D02*
Y93413D01*
X360500Y57000D02*
X362000Y58500D01*
Y99500D01*
X475339Y102000D02*
Y110000D01*
Y85661D02*
Y102000D01*
X470500D02*
X475339D01*
Y85661D02*
X479906Y81094D01*
X485000D01*
X421429Y75929D02*
X426000D01*
X418500Y73000D02*
X421429Y75929D01*
X418500Y47500D02*
Y73000D01*
X368000Y23000D02*
Y43500D01*
X279681Y101819D02*
X288768D01*
X279500Y102000D02*
X279681Y101819D01*
X279500Y102000D02*
Y105000D01*
X396000Y76429D02*
X396500Y75929D01*
X396000Y76429D02*
Y87000D01*
X411000Y36000D02*
Y67071D01*
X398000Y23000D02*
X411000Y36000D01*
X405358Y75929D02*
X411000D01*
X396500Y67071D02*
X405358Y75929D01*
X115000Y48500D02*
Y72000D01*
X320000Y44500D02*
X322500Y42000D01*
Y22500D02*
Y42000D01*
X515823Y165315D02*
X519500Y168992D01*
X515823Y142000D02*
X516323Y141500D01*
X533500D01*
X559000D02*
X563819D01*
X569008Y146689D01*
X443394Y167827D02*
X443583Y167638D01*
X210000Y67000D02*
X210500D01*
X205000Y72000D02*
X210000Y67000D01*
X288768Y101819D02*
X291587Y99000D01*
X272500Y123000D02*
X278500Y129000D01*
X165000Y82000D02*
Y105000D01*
X271000Y134000D02*
X291587D01*
X268500Y131500D02*
X271000Y134000D01*
X155000Y82000D02*
Y131500D01*
X150500Y157000D02*
Y313864D01*
X155000Y316500D02*
Y322000D01*
X153136Y316500D02*
X155000D01*
X150500Y313864D02*
X153136Y316500D01*
X115000Y322000D02*
X120500Y316500D01*
Y97050D02*
Y316500D01*
Y97050D02*
X125000Y92550D01*
Y82000D02*
Y92550D01*
X360500Y15500D02*
X368000Y23000D01*
X293000Y15500D02*
X360500D01*
X293000D02*
Y22000D01*
X292500Y22500D02*
X293000Y22000D01*
X95000Y27500D02*
X97000Y25500D01*
X95000Y27500D02*
Y63000D01*
X89500Y82000D02*
X95000D01*
X89500Y80136D02*
Y82000D01*
X86864Y77500D02*
X89500Y80136D01*
X83136Y77500D02*
X86864D01*
X80500Y80136D02*
X83136Y77500D01*
X80500Y80136D02*
Y82000D01*
X75000D02*
X80500D01*
X94136Y77500D02*
X109500D01*
X89500Y72864D02*
X94136Y77500D01*
X89500Y70136D02*
Y72864D01*
X80500Y70136D02*
Y72864D01*
X75864Y77500D02*
X80500Y72864D01*
X63136Y77500D02*
X75864D01*
X86864Y67500D02*
X89500Y70136D01*
X83136Y67500D02*
X86864D01*
X80500Y70136D02*
X83136Y67500D01*
X60500Y80136D02*
X63136Y77500D01*
X115000Y72000D02*
Y82000D01*
X125000D01*
X109500Y77500D02*
X115000Y72000D01*
X60500Y80136D02*
Y82000D01*
X55000D02*
X60500D01*
X379449Y284500D02*
X380500Y283449D01*
Y242500D02*
Y283449D01*
X37500Y163500D02*
Y242500D01*
X25000Y151000D02*
X37500Y163500D01*
X25000Y82000D02*
Y151000D01*
X7000Y19053D02*
Y326500D01*
X379449Y289500D02*
X379949Y290000D01*
X392000D01*
X388500Y276500D02*
X397500Y285500D01*
X534500Y289000D02*
X535748Y287752D01*
Y251277D02*
Y287752D01*
X443114Y166138D02*
X443394Y165858D01*
X438874Y166138D02*
X443114D01*
X189500Y194500D02*
X193000Y191000D01*
X189500Y194500D02*
Y313864D01*
X186864Y316500D02*
X189500Y313864D01*
X185000Y316500D02*
X186864D01*
X185000D02*
Y322000D01*
X429000Y79658D02*
Y159673D01*
X439982Y160232D02*
X443114D01*
X439215Y161000D02*
X439982Y160232D01*
X443114D02*
X443394Y159953D01*
X429000Y79658D02*
X429854Y78804D01*
X429000Y72200D02*
X429854Y73054D01*
X429000Y70071D02*
Y72200D01*
X429854Y73054D02*
Y78804D01*
X423673Y159673D02*
X429000D01*
X426000Y67071D02*
X429000Y70071D01*
X84500Y309500D02*
X86000Y311000D01*
X321000Y99000D02*
X327413D01*
X316500Y103500D02*
X321000Y99000D01*
X145000Y109000D02*
Y312000D01*
X291087Y138500D02*
X291587Y139000D01*
X276000Y138500D02*
X291087D01*
X134500Y138000D02*
X135000Y138500D01*
Y312000D01*
X326913Y94500D02*
X327413Y94000D01*
X315500Y94500D02*
X326913D01*
X306500Y104000D02*
X311000Y99500D01*
Y37500D02*
Y99500D01*
X124500Y98000D02*
X125000Y98500D01*
Y312000D01*
X272500Y322000D02*
X273500Y321000D01*
X287500D01*
X324000D02*
X324500D01*
X327000Y323500D01*
Y333000D01*
X274000D02*
X286500D01*
X271000Y336000D02*
X274000Y333000D01*
X271000Y336000D02*
Y377000D01*
X271500Y321000D02*
X272500Y322000D01*
X271500Y292500D02*
Y321000D01*
X313500Y134000D02*
X327413D01*
X311000Y136500D02*
X313500Y134000D01*
X311000Y136500D02*
Y169000D01*
X109500D02*
Y313864D01*
Y167500D02*
Y169000D01*
X106864Y316500D02*
X109500Y313864D01*
X105000Y316500D02*
X106864D01*
X105000D02*
Y322000D01*
X45000Y343500D02*
X45500Y344000D01*
X45000Y322000D02*
Y343500D01*
X423000Y159000D02*
X423673Y159673D01*
X440135Y162201D02*
X443114D01*
X421500Y163921D02*
Y238500D01*
X443114Y162201D02*
X443394Y161921D01*
X25000Y159500D02*
Y312000D01*
Y158500D02*
Y159500D01*
X384500Y218500D02*
X399500Y233500D01*
Y358000D01*
X299000Y224429D02*
X300000Y223429D01*
X292929Y230500D02*
X299000Y224429D01*
X281000Y377000D02*
X299000Y359000D01*
X299000Y224429D01*
X291000Y371500D02*
X303000Y359500D01*
X291000Y371500D02*
Y377000D01*
X95000Y322000D02*
Y387500D01*
X317000Y392000D02*
X319500D01*
X321000Y390500D01*
Y377000D02*
Y390500D01*
X165000Y322000D02*
Y389500D01*
X170500Y395000D01*
X301000D01*
Y377000D02*
Y395000D01*
X145000Y322000D02*
Y392000D01*
X150000Y397000D01*
X311000D01*
Y377000D02*
Y397000D01*
X374500Y218500D02*
X375000Y218000D01*
Y199500D02*
Y218000D01*
X283000Y198000D02*
X286000Y195000D01*
X283000Y198000D02*
Y214571D01*
X281500Y338000D02*
Y369500D01*
X282114Y312500D02*
X283000Y311614D01*
Y223429D02*
Y311614D01*
X314000Y369500D02*
Y370000D01*
X321000Y377000D01*
X105000Y82000D02*
X106500Y83500D01*
Y145500D01*
X325000Y149000D02*
X327413Y146587D01*
Y139000D02*
Y146587D01*
Y139000D02*
X338500D01*
X356500Y121000D01*
X369500D02*
X371500Y123000D01*
X356500Y121000D02*
X369500D01*
X394500Y123000D02*
Y218500D01*
X349500Y226500D02*
X354000Y231000D01*
X349500Y223429D02*
Y226500D01*
X292500Y230500D02*
X292929D01*
X300000Y214571D02*
X306000Y220571D01*
X341000Y377000D02*
X351000D01*
X361000D01*
X155000Y280000D02*
Y312000D01*
X154000Y279000D02*
X155000Y280000D01*
X164500Y311500D02*
X165000Y312000D01*
X164500Y280000D02*
Y311500D01*
X388500Y274500D02*
Y276500D01*
X330000Y304500D02*
X330500Y304000D01*
Y222929D02*
Y304000D01*
X265000Y207500D02*
X268000Y204500D01*
X265000Y207500D02*
Y323480D01*
X271000Y329480D01*
X327500Y204000D02*
X330500Y207000D01*
Y214071D01*
X271000Y329480D02*
X272500D01*
X225500Y305500D02*
Y363000D01*
X221500Y301500D02*
X225500Y305500D01*
X257500Y62000D02*
X261500Y66000D01*
Y383500D01*
X358429Y214571D02*
X359500Y213500D01*
X349500Y214571D02*
X358429D01*
X349500D02*
X350071Y214000D01*
X405000Y211500D02*
Y314559D01*
X411000Y329855D02*
Y377000D01*
X282114Y326000D02*
X290740D01*
X419000Y326740D02*
X421000Y328740D01*
X418000Y325740D02*
X419000Y326740D01*
X421000Y328740D02*
Y377000D01*
X580189Y163047D02*
Y173953D01*
X574736Y190311D02*
X580189Y184858D01*
X569008Y190311D02*
X574736D01*
X580189Y178848D02*
Y184858D01*
X580044Y178703D02*
X580189Y178848D01*
X578222Y178703D02*
X580044D01*
X575439Y175920D02*
X578222Y178703D01*
X575439Y164026D02*
Y175920D01*
X569008Y157595D02*
X575439Y164026D01*
X467606Y152079D02*
X480421D01*
X490000Y82500D02*
Y156016D01*
Y82500D02*
X492500Y80000D01*
X463366Y159953D02*
X467606D01*
X463000Y159587D02*
X463366Y159953D01*
X463000Y130000D02*
Y159587D01*
X498000Y130000D02*
Y132031D01*
Y71500D02*
Y130000D01*
X485000Y33000D02*
Y67905D01*
X480000Y28000D02*
X485000Y33000D01*
X470000Y28000D02*
X480000D01*
X291587Y104000D02*
X306500D01*
X95000Y164500D02*
Y312000D01*
X379500Y164500D02*
X380000Y162500D01*
X388000Y154500D01*
Y23000D02*
Y154500D01*
X85500Y154000D02*
Y308500D01*
X84500Y309500D02*
X85500Y308500D01*
X85000Y312000D02*
X86000Y311000D01*
X373500Y153500D02*
X378000Y149000D01*
Y23000D02*
Y149000D01*
X278500Y129000D02*
X291587D01*
X74500Y322500D02*
X75000Y322000D01*
X74500Y322500D02*
Y335500D01*
X5500D02*
X6500D01*
X4000Y334000D02*
X5500Y335500D01*
X4000Y11000D02*
Y334000D01*
Y11000D02*
X8500Y6500D01*
X13500D01*
X7000Y326500D02*
X10000Y329500D01*
X282500Y82500D02*
X285500Y85500D01*
X282500Y22500D02*
Y82500D01*
X285500Y85500D02*
X286500D01*
X239500Y24000D02*
Y333500D01*
X327413Y104000D02*
X327913Y103500D01*
X334000D01*
Y85500D02*
Y103500D01*
X234500Y338500D02*
X239500Y333500D01*
X236500Y21000D02*
X239500Y24000D01*
X236500Y15000D02*
Y21000D01*
X233475Y25475D02*
Y80025D01*
X226500Y18500D02*
X233475Y25475D01*
X226500Y15000D02*
Y18500D01*
X195000Y82000D02*
Y90500D01*
X198000Y93500D01*
X217950D01*
X224000Y87450D01*
Y30000D02*
Y87450D01*
X216500Y22500D02*
X224000Y30000D01*
X216500Y15000D02*
Y22500D01*
X195000Y64500D02*
Y72000D01*
Y64500D02*
X206500Y53000D01*
Y15000D02*
Y53000D01*
X216500Y90000D02*
X220000Y86500D01*
Y55000D02*
Y86500D01*
X196500Y46000D02*
X201500Y51000D01*
X196500Y15000D02*
Y46000D01*
X18000Y293500D02*
X18500Y294000D01*
X12500Y288000D02*
X18000Y293500D01*
X12500Y48497D02*
Y288000D01*
D26*
X569008Y190311D02*
D03*
D27*
Y146689D02*
D03*
X580189Y152142D02*
D03*
X569008Y157595D02*
D03*
X580189Y163047D02*
D03*
X569008Y168500D02*
D03*
X580189Y173953D02*
D03*
X569008Y179405D02*
D03*
X580189Y184858D02*
D03*
D31*
X531000Y28283D02*
D03*
X470000Y28000D02*
D03*
D40*
X457500Y67905D02*
D03*
Y81094D02*
D03*
X485000Y67905D02*
D03*
Y81094D02*
D03*
D41*
X515823Y142000D02*
D03*
X498500D02*
D03*
D42*
X449500Y210161D02*
D03*
Y217839D02*
D03*
X466000Y210161D02*
D03*
Y217839D02*
D03*
X432000Y217839D02*
D03*
Y210161D02*
D03*
X423000Y131161D02*
D03*
Y138839D02*
D03*
X356500Y113323D02*
D03*
Y121000D02*
D03*
D43*
X467606Y146173D02*
D03*
Y148142D02*
D03*
Y150110D02*
D03*
Y152079D02*
D03*
Y154047D02*
D03*
Y156016D02*
D03*
Y157984D02*
D03*
Y159953D02*
D03*
Y161921D02*
D03*
Y163890D02*
D03*
Y165858D02*
D03*
Y167827D02*
D03*
X443394Y146173D02*
D03*
Y148142D02*
D03*
Y150110D02*
D03*
Y152079D02*
D03*
Y154047D02*
D03*
Y156016D02*
D03*
Y157984D02*
D03*
Y159953D02*
D03*
Y161921D02*
D03*
Y163890D02*
D03*
Y165858D02*
D03*
Y167827D02*
D03*
D44*
X493500Y169496D02*
D03*
Y181504D02*
D03*
X519500Y181000D02*
D03*
Y168992D02*
D03*
D45*
X396500Y67071D02*
D03*
Y75929D02*
D03*
X411000Y67071D02*
D03*
Y75929D02*
D03*
X426000Y67071D02*
D03*
Y75929D02*
D03*
X300000Y214571D02*
D03*
Y223429D02*
D03*
X349500Y214571D02*
D03*
Y223429D02*
D03*
X283000Y214571D02*
D03*
Y223429D02*
D03*
X330500Y222929D02*
D03*
Y214071D02*
D03*
D46*
X467661Y110000D02*
D03*
X475339D02*
D03*
X311161Y315000D02*
D03*
X318839D02*
D03*
X310500Y284000D02*
D03*
X318177D02*
D03*
X409161Y288000D02*
D03*
X416839D02*
D03*
X366661Y261500D02*
D03*
X374339D02*
D03*
X408161Y319500D02*
D03*
X415839D02*
D03*
D47*
X272500Y329480D02*
D03*
Y322000D02*
D03*
X280374Y325740D02*
D03*
D48*
X327413Y94000D02*
D03*
Y99000D02*
D03*
Y104000D02*
D03*
Y109000D02*
D03*
Y114000D02*
D03*
Y119000D02*
D03*
Y124000D02*
D03*
Y129000D02*
D03*
Y134000D02*
D03*
Y139000D02*
D03*
X291587Y94000D02*
D03*
Y99000D02*
D03*
Y104000D02*
D03*
Y109000D02*
D03*
Y114000D02*
D03*
Y119000D02*
D03*
Y124000D02*
D03*
Y129000D02*
D03*
Y134000D02*
D03*
Y139000D02*
D03*
D49*
X360551Y319500D02*
D03*
Y314500D02*
D03*
Y309500D02*
D03*
Y304500D02*
D03*
Y299500D02*
D03*
Y294500D02*
D03*
Y289500D02*
D03*
Y284500D02*
D03*
X379449Y319500D02*
D03*
Y314500D02*
D03*
Y309500D02*
D03*
Y304500D02*
D03*
Y299500D02*
D03*
Y294500D02*
D03*
Y289500D02*
D03*
Y284500D02*
D03*
D50*
X358000Y23000D02*
D03*
X273000Y377500D02*
D03*
X282500Y22500D02*
D03*
X236500Y15000D02*
D03*
D51*
X368000Y23000D02*
D03*
X378000D02*
D03*
X388000D02*
D03*
X398000D02*
D03*
X408000D02*
D03*
X283000Y377500D02*
D03*
X293000D02*
D03*
X303000D02*
D03*
X313000D02*
D03*
X323000D02*
D03*
X333000D02*
D03*
X343000D02*
D03*
X353000D02*
D03*
X363000D02*
D03*
X373000D02*
D03*
X383000D02*
D03*
X393000D02*
D03*
X403000D02*
D03*
X413000D02*
D03*
X423000D02*
D03*
X575000Y78500D02*
D03*
Y68500D02*
D03*
Y58500D02*
D03*
X332500Y22500D02*
D03*
X322500D02*
D03*
X312500D02*
D03*
X302500D02*
D03*
X292500D02*
D03*
X186500Y15000D02*
D03*
X196500D02*
D03*
X206500D02*
D03*
X216500D02*
D03*
X226500D02*
D03*
D52*
X511000Y28283D02*
D03*
X450000Y28000D02*
D03*
D53*
X575000Y88500D02*
D03*
D54*
X394500Y218500D02*
D03*
X384500D02*
D03*
X374500D02*
D03*
D55*
X205000Y322000D02*
D03*
Y312000D02*
D03*
X195000Y322000D02*
D03*
Y312000D02*
D03*
X185000Y322000D02*
D03*
Y312000D02*
D03*
X175000Y322000D02*
D03*
Y312000D02*
D03*
X165000Y322000D02*
D03*
Y312000D02*
D03*
X155000Y322000D02*
D03*
Y312000D02*
D03*
X145000Y322000D02*
D03*
Y312000D02*
D03*
X135000Y322000D02*
D03*
Y312000D02*
D03*
X125000Y322000D02*
D03*
Y312000D02*
D03*
X115000Y322000D02*
D03*
Y312000D02*
D03*
X105000Y322000D02*
D03*
Y312000D02*
D03*
X95000Y322000D02*
D03*
Y312000D02*
D03*
X85000Y322000D02*
D03*
Y312000D02*
D03*
X75000Y322000D02*
D03*
Y312000D02*
D03*
X65000Y322000D02*
D03*
Y312000D02*
D03*
X55000Y322000D02*
D03*
Y312000D02*
D03*
X45000Y322000D02*
D03*
Y312000D02*
D03*
X35000Y322000D02*
D03*
Y312000D02*
D03*
X25000Y322000D02*
D03*
X205000Y82000D02*
D03*
Y72000D02*
D03*
X195000Y82000D02*
D03*
Y72000D02*
D03*
X185000Y82000D02*
D03*
Y72000D02*
D03*
X175000Y82000D02*
D03*
Y72000D02*
D03*
X165000Y82000D02*
D03*
Y72000D02*
D03*
X155000Y82000D02*
D03*
Y72000D02*
D03*
X145000Y82000D02*
D03*
Y72000D02*
D03*
X135000Y82000D02*
D03*
Y72000D02*
D03*
X125000Y82000D02*
D03*
Y72000D02*
D03*
X115000Y82000D02*
D03*
Y72000D02*
D03*
X105000Y82000D02*
D03*
Y72000D02*
D03*
X95000Y82000D02*
D03*
Y72000D02*
D03*
X85000Y82000D02*
D03*
Y72000D02*
D03*
X75000Y82000D02*
D03*
Y72000D02*
D03*
X65000Y82000D02*
D03*
Y72000D02*
D03*
X55000Y82000D02*
D03*
Y72000D02*
D03*
X45000Y82000D02*
D03*
Y72000D02*
D03*
X35000Y82000D02*
D03*
Y72000D02*
D03*
X25000Y82000D02*
D03*
D56*
Y312000D02*
D03*
Y72000D02*
D03*
D57*
X574598Y217693D02*
D03*
Y119307D02*
D03*
D58*
X493500Y188500D02*
D03*
X311500Y39500D02*
D03*
X290740Y40000D02*
D03*
X271500Y27500D02*
D03*
X540000Y7000D02*
D03*
X457500Y50500D02*
D03*
X272000Y13000D02*
D03*
X323000Y5500D02*
D03*
X475500Y164169D02*
D03*
X420000Y115000D02*
D03*
X9500Y13553D02*
D03*
X440135Y67071D02*
D03*
X447642Y65000D02*
D03*
X414500Y131161D02*
D03*
X485450Y150500D02*
D03*
X20000Y43000D02*
D03*
X39000Y12000D02*
D03*
X354000Y296500D02*
D03*
X374000Y272250D02*
D03*
X311000Y264000D02*
D03*
X424000Y264500D02*
D03*
X427500Y313000D02*
D03*
X428000Y293500D02*
D03*
X345559Y314500D02*
D03*
X341500Y332500D02*
D03*
X339000Y295500D02*
D03*
X320000Y293500D02*
D03*
X379449Y332000D02*
D03*
X318177Y255630D02*
D03*
X414500Y252500D02*
D03*
X432000Y278000D02*
D03*
X412000D02*
D03*
X435000Y157000D02*
D03*
X534000Y150500D02*
D03*
X533500Y227000D02*
D03*
X451500Y228500D02*
D03*
X505000Y149500D02*
D03*
X457500Y219339D02*
D03*
X414500Y217000D02*
D03*
X411000Y81000D02*
D03*
X466000Y186000D02*
D03*
X513000Y115000D02*
D03*
X475000Y117500D02*
D03*
X505500Y123000D02*
D03*
X462000Y122500D02*
D03*
X447642Y80500D02*
D03*
X431500Y166500D02*
D03*
X442000Y142555D02*
D03*
X528500Y154000D02*
D03*
X412000Y312500D02*
D03*
X388000Y313000D02*
D03*
X416500Y297500D02*
D03*
X310500Y292000D02*
D03*
X311161Y309161D02*
D03*
X353000Y309500D02*
D03*
X352000Y319500D02*
D03*
X326500Y315000D02*
D03*
X337500Y45000D02*
D03*
X348677Y113323D02*
D03*
X334500Y109000D02*
D03*
X424500Y123000D02*
D03*
X436500Y135500D02*
D03*
X467606Y142555D02*
D03*
X435000Y150000D02*
D03*
X422421Y150110D02*
D03*
X291000Y60000D02*
D03*
X360500Y57000D02*
D03*
X362000Y99500D02*
D03*
X470500Y102000D02*
D03*
X418500Y47500D02*
D03*
X368000Y43500D02*
D03*
X396000Y87000D02*
D03*
X115000Y48500D02*
D03*
X320000Y44500D02*
D03*
X533500Y141500D02*
D03*
X559000D02*
D03*
X210500Y67000D02*
D03*
X279500Y105000D02*
D03*
X165000D02*
D03*
X268500Y131500D02*
D03*
X155000D02*
D03*
X97000Y25500D02*
D03*
X95000Y63000D02*
D03*
X380500Y242500D02*
D03*
X37500D02*
D03*
X392000Y290000D02*
D03*
X534500Y289000D02*
D03*
X437000Y191000D02*
D03*
X193000D02*
D03*
X150500Y157000D02*
D03*
X316500Y103500D02*
D03*
X145000Y109000D02*
D03*
X276000Y138500D02*
D03*
X135000D02*
D03*
X315500Y94500D02*
D03*
X124500Y98000D02*
D03*
X287500Y321000D02*
D03*
X324000D02*
D03*
X327000Y333000D02*
D03*
X286500D02*
D03*
X271500Y292500D02*
D03*
X311000Y169000D02*
D03*
X109500D02*
D03*
X479500Y343500D02*
D03*
X45500Y344000D02*
D03*
X423000Y159000D02*
D03*
X25000Y159500D02*
D03*
X421500Y238500D02*
D03*
X399500Y358000D02*
D03*
X303000Y359500D02*
D03*
X95000Y387500D02*
D03*
X317000Y392000D02*
D03*
X375000Y199500D02*
D03*
X286000Y195000D02*
D03*
X281500Y338000D02*
D03*
X282114Y312500D02*
D03*
X281500Y369500D02*
D03*
X314000Y370000D02*
D03*
X106500Y145500D02*
D03*
X325000Y149000D02*
D03*
X371500Y123000D02*
D03*
X394500D02*
D03*
X354000Y231000D02*
D03*
X292929Y230500D02*
D03*
X154000Y279000D02*
D03*
X164500Y280000D02*
D03*
X388500Y276500D02*
D03*
X330000Y304500D02*
D03*
X327500Y204000D02*
D03*
X268000Y204500D02*
D03*
X221500Y301500D02*
D03*
X225500Y363000D02*
D03*
X257500Y62000D02*
D03*
X261500Y383500D02*
D03*
X359500Y213500D02*
D03*
X405000Y211500D02*
D03*
X290740Y326000D02*
D03*
X419000Y326740D02*
D03*
X338000Y181000D02*
D03*
X343500Y173000D02*
D03*
X483500Y94500D02*
D03*
X492500Y80000D02*
D03*
X463000Y130000D02*
D03*
X498000D02*
D03*
Y71500D02*
D03*
X95000Y164500D02*
D03*
X379500D02*
D03*
X85500Y154000D02*
D03*
X373500Y153500D02*
D03*
X74500Y335500D02*
D03*
X6500D02*
D03*
X13500Y6500D02*
D03*
X10000Y329500D02*
D03*
X334000Y85500D02*
D03*
X286500D02*
D03*
X234500Y338500D02*
D03*
X233475Y80025D02*
D03*
X216500Y90000D02*
D03*
X220000Y55000D02*
D03*
X201500Y51000D02*
D03*
X18000Y293500D02*
D03*
D59*
X546622Y377500D02*
D03*
Y255453D02*
D03*
X251346D02*
D03*
Y377500D02*
D03*
D60*
X575000Y374500D02*
D03*
Y24500D02*
D03*
X25000Y374500D02*
D03*
Y24500D02*
D03*
M02*
